<svg width="29" height="35" viewBox="0 0 29 35" fill="none" xmlns="http://www.w3.org/2000/svg">
<path fill-rule="evenodd" clip-rule="evenodd" d="M0 14.0109C0 6.28528 6.5047 0 14.5 0C22.4953 0 29 6.28528 29 14.0109C29 17.9114 26.6857 22.5251 22.1214 27.7237C18.8105 31.4949 15.5463 34.1522 15.409 34.2635L14.5 35L13.591 34.2635C13.4537 34.1522 10.1896 31.4948 6.87859 27.7237C2.31427 22.5251 0 17.9114 0 14.0109ZM26.1707 14.0109C26.1707 7.79272 20.9352 2.73383 14.5 2.73383C8.06469 2.73383 2.82927 7.79272 2.82927 14.0109C2.82927 15.2093 3.11962 16.462 3.61064 17.7247L14.4293 8.64649L20.3 13.5728V10.0468H23.1293V15.9469L25.3548 17.8144C25.8671 16.5213 26.1707 15.2377 26.1707 14.0109ZM14.5 31.3926C12.4906 29.6303 7.63471 25.1076 4.86125 20.2961L14.4293 12.2673L24.0927 20.3761C21.3117 25.1577 16.4982 29.6402 14.5 31.3926ZM16.5512 22.7591V18.6584H12.3073V22.7591H16.5512Z" fill="white"/>
</svg>
