<svg width="35" height="35" viewBox="0 0 35 35" fill="none" xmlns="http://www.w3.org/2000/svg">
<path fill-rule="evenodd" clip-rule="evenodd" d="M0 35L2.46021 26.0123C0.942083 23.3815 0.144375 20.3992 0.145833 17.341C0.150208 7.78021 7.93042 0 17.4898 0C22.1287 0.00145833 26.4833 1.80833 29.7588 5.08667C33.0327 8.365 34.8352 12.7225 34.8338 17.3571C34.8294 26.9194 27.0492 34.6996 17.4898 34.6996C14.5877 34.6981 11.7279 33.9704 9.19479 32.5879L0 35ZM27.6104 22.0659C27.4865 21.8584 27.1552 21.7345 26.6564 21.4852C26.1594 21.2358 23.7142 20.0325 23.2573 19.8668C22.8021 19.7011 22.4707 19.6174 22.1377 20.1162C21.8063 20.6132 20.8524 21.7345 20.5628 22.0659C20.2733 22.3973 19.9821 22.4391 19.485 22.1898C18.988 21.9404 17.3846 21.4166 15.4851 19.7212C14.0073 18.4024 13.0082 16.774 12.7186 16.2752C12.4291 15.7782 12.6885 15.5087 12.9362 15.261C13.1605 15.0384 13.4333 14.6803 13.6826 14.3891C13.9353 14.1012 14.0173 13.8937 14.1847 13.5606C14.3504 13.2293 14.2684 12.9381 14.1429 12.6887C14.0173 12.441 13.0232 9.99251 12.6098 8.99671C12.2048 8.02769 11.7948 8.15824 11.4902 8.14317L10.5362 8.12644C10.2049 8.12644 9.66596 8.25028 9.21074 8.74902C8.75552 9.24775 7.47019 10.4494 7.47019 12.8979C7.47019 15.3464 9.25258 17.7112 9.50027 18.0426C9.74964 18.3739 13.0065 23.3981 17.9955 25.552C19.1821 26.0642 20.1093 26.3704 20.8306 26.5997C22.0222 26.978 23.1067 26.9244 23.9636 26.7972C24.9192 26.6549 26.9058 25.5939 27.3208 24.4324C27.7359 23.2692 27.7359 22.2734 27.6104 22.0659Z" fill="#75BD4B"/>
</svg>
