<svg width="44" height="36" viewBox="0 0 44 36" fill="none" xmlns="http://www.w3.org/2000/svg">
<path fill-rule="evenodd" clip-rule="evenodd" d="M43.5264 23.0186C43.5264 17.0199 37.7267 12.1557 30.5744 12.1557C23.4221 12.1557 17.6224 17.0199 17.6224 23.0186C17.6224 29.019 23.4221 33.8832 30.5744 33.8832C32.0525 33.8832 33.4787 33.6722 34.8027 33.2881L35.1826 33.2303C35.4316 33.2303 35.6574 33.3079 35.8706 33.4305L38.7068 35.079L38.9558 35.1602C39.1941 35.1602 39.3876 34.9654 39.3876 34.7255L39.3177 34.4081L38.7337 32.2167L38.6889 31.939C38.6889 31.6468 38.8322 31.3889 39.0508 31.232C41.7813 29.239 43.5264 26.2938 43.5264 23.0186ZM0.526367 13.1981C0.526367 17.1263 2.61903 20.6631 5.89599 23.0528C6.15937 23.2404 6.33137 23.5506 6.33137 23.9023L6.27762 24.2342L5.57708 26.8638L5.49287 27.2443C5.49287 27.5329 5.72578 27.7673 6.01066 27.7673L6.31166 27.6699L9.71403 25.6914C9.96845 25.5435 10.239 25.4516 10.5382 25.4516L10.9951 25.5201C12.5825 25.98 14.2953 26.2361 16.0691 26.2361L16.9219 26.2145C16.5851 25.1973 16.4005 24.1259 16.4005 23.0204C16.4005 16.4536 22.7466 11.1294 30.5744 11.1294L31.4183 11.1511C30.2483 4.92337 23.8216 0.160156 16.0691 0.160156C7.4852 0.160156 0.526367 5.9965 0.526367 13.1981ZM26.2565 21.2817C25.3033 21.2817 24.5311 20.5026 24.5311 19.5431C24.5311 18.5818 25.3033 17.8044 26.2565 17.8044C27.2115 17.8044 27.9837 18.5818 27.9837 19.5431C27.9837 20.5026 27.2115 21.2817 26.2565 21.2817ZM34.8923 21.2817C33.9374 21.2817 33.1652 20.5026 33.1652 19.5431C33.1652 18.5818 33.9374 17.8044 34.8923 17.8044C35.8455 17.8044 36.6177 18.5818 36.6177 19.5431C36.6177 20.5026 35.8455 21.2817 34.8923 21.2817ZM10.8876 11.1114C9.7427 11.1114 8.81641 10.1772 8.81641 9.02649C8.81641 7.87401 9.7427 6.93976 10.8876 6.93976C12.0325 6.93976 12.9605 7.87401 12.9605 9.02649C12.9605 10.1772 12.0325 11.1114 10.8876 11.1114ZM21.2488 11.1114C20.1039 11.1114 19.1776 10.1772 19.1776 9.02649C19.1776 7.87401 20.1039 6.93976 21.2488 6.93976C22.3937 6.93976 23.3217 7.87401 23.3217 9.02649C23.3217 10.1772 22.3937 11.1114 21.2488 11.1114Z" fill="white"/>
</svg>
