<?xml version="1.0" encoding="UTF-8"?>
<svg width="216px" height="216px" viewBox="0 0 216 216" version="1.1" xmlns="http://www.w3.org/2000/svg" xmlns:xlink="http://www.w3.org/1999/xlink">
    <title>Цифровой детокс</title>
    <g id="Page-1" stroke="none" stroke-width="1" fill="none" fill-rule="evenodd">
        <g id="Главная" transform="translate(-540.000000, -2539.000000)" fill="#83BFC4">
            <g id="Цифровой-детокс" transform="translate(648.062977, 2647.111513) rotate(-20.000000) translate(-648.062977, -2647.111513) translate(564.062977, 2563.111513)">
                <path d="M93.9801047,154.78332 L93.644581,151.440114 L92.450579,151.559944 L91.7699452,144.778012 L89.847602,144.970939 L90.5282358,151.75287 L86.8029495,152.126739 L86.1223157,145.344808 L84.1999725,145.537734 L85.0387817,153.895748 L92.0236935,153.194743 L92.2010417,154.961866 L93.9801047,154.78332 Z M100.843808,151.72416 L103.04687,145.319304 L104.670499,150.53231 L106.503644,149.961364 L104.005754,141.941355 L102.264266,142.483753 L100.064773,148.900067 L98.4375763,143.675604 L96.5929742,144.250118 L99.0908636,152.270127 L100.843808,151.72416 Z M117.325739,145.518368 L116.877716,144.724001 C118.075705,143.965672 118.847725,143.123831 119.193776,142.198476 C119.539827,141.273122 119.439715,140.326159 118.893441,139.357589 C118.355027,138.402955 117.599374,137.832607 116.626483,137.646544 C115.653593,137.460482 114.530817,137.680417 113.258158,138.306351 L113.258158,138.306351 L112.839609,137.564245 L111.282232,138.442607 L111.706675,139.195165 C110.509578,139.97136 109.736039,140.818651 109.386058,141.737037 C109.036077,142.655423 109.132259,143.595418 109.674603,144.55702 C110.213017,145.511654 110.967687,146.08026 111.938613,146.262839 C112.909539,146.445417 114.034816,146.221774 115.314443,145.59191 L115.314443,145.59191 L115.768362,146.39673 L117.325739,145.518368 Z M116.129045,143.396572 L114.012724,139.644233 C115.546772,138.944353 116.628198,139.151863 117.257003,140.266764 C117.579266,140.838151 117.646669,141.381066 117.459212,141.89551 C117.271756,142.409953 116.828367,142.910307 116.129045,143.396572 L116.129045,143.396572 Z M114.571668,144.274933 C113.021899,144.946941 111.936543,144.732462 111.315598,143.631498 C110.993335,143.060111 110.926155,142.521662 111.114058,142.016152 C111.30196,141.510642 111.749056,141.012789 112.455346,140.522595 L112.455346,140.522595 L114.571668,144.274933 Z M127.120367,138.881074 L125.601699,137.132502 L126.879152,136.023009 C127.44087,135.535147 127.848598,135.019436 128.102339,134.475878 C128.356079,133.932319 128.443871,133.389843 128.365714,132.848449 C128.287558,132.307054 128.046515,131.803819 127.642586,131.338741 C127.233411,130.867623 126.767578,130.556973 126.245087,130.40679 C125.722595,130.256608 125.17317,130.267567 124.596812,130.439667 C124.020453,130.611767 123.451415,130.941749 122.889697,131.429611 L122.889697,131.429611 L120.144531,133.813842 L125.652654,140.155811 L127.120367,138.881074 Z M125.758938,134.897913 L124.563024,135.936588 L122.650918,133.735019 L123.846833,132.696344 C124.28775,132.313398 124.705591,132.117384 125.100353,132.108302 C125.495116,132.099219 125.847249,132.272857 126.156753,132.629215 C126.461011,132.979534 126.581003,133.349493 126.516728,133.739094 C126.452453,134.128695 126.199856,134.514968 125.758938,134.897913 L125.758938,134.897913 Z M137.734362,128.576638 C138.271754,127.889911 138.606857,127.156627 138.739673,126.376786 C138.872489,125.596945 138.802266,124.846147 138.529006,124.124393 C138.255745,123.40264 137.794652,122.787857 137.145726,122.280047 C136.496801,121.772236 135.789198,121.472466 135.022917,121.380737 C134.256637,121.289008 133.510977,121.401345 132.785938,121.717747 C132.060899,122.03415 131.429684,122.535714 130.892292,123.222441 C130.3549,123.909168 130.018564,124.644028 129.883283,125.427019 C129.748002,126.21001 129.818225,126.960807 130.09395,127.679411 C130.369676,128.398015 130.832002,129.011222 131.480927,129.519032 C132.129853,130.026843 132.836223,130.328188 133.600039,130.423067 C134.363854,130.517946 135.109514,130.40561 135.837018,130.086057 C136.564522,129.766505 137.19697,129.263365 137.734362,128.576638 Z M136.43021,127.556087 C136.124538,127.946702 135.758668,128.229261 135.332601,128.403762 C134.906534,128.578264 134.462589,128.629573 134.000766,128.55769 C133.538942,128.485807 133.103272,128.289634 132.693756,127.969171 C132.28424,127.648708 131.989081,127.272978 131.808279,126.841981 C131.627477,126.410984 131.570552,125.967724 131.637505,125.5122 C131.704458,125.056677 131.890771,124.633608 132.196443,124.242993 C132.502116,123.852377 132.867985,123.569819 133.294052,123.395317 C133.720119,123.220815 134.164065,123.169506 134.625888,123.241389 C135.087711,123.313272 135.523381,123.509445 135.932897,123.829908 C136.342414,124.150371 136.637573,124.526101 136.818375,124.957098 C136.999177,125.388096 137.056101,125.831356 136.989148,126.286879 C136.922195,126.742402 136.735883,127.165471 136.43021,127.556087 Z M145.59371,116.672585 C146.067925,115.738013 146.247148,114.92513 146.13138,114.233935 C146.015612,113.542741 145.62599,113.028816 144.962516,112.692159 C144.513065,112.464102 144.073417,112.393525 143.64357,112.480427 C143.213724,112.56733 142.815188,112.804684 142.447962,113.192489 C142.454015,112.773926 142.363201,112.400406 142.175522,112.07193 C141.987842,111.743454 141.708515,111.485097 141.33754,111.29686 C140.71687,110.981923 140.115804,110.981947 139.534343,111.29693 C138.952881,111.611913 138.441333,112.204587 137.999698,113.074952 L137.999698,113.074952 L136.229539,116.563545 L143.720382,120.3645 L145.59371,116.672585 Z M141.027028,114.79945 L140.207108,116.415332 L138.387903,115.492243 L139.207824,113.876361 C139.396061,113.505386 139.61843,113.261624 139.87493,113.145074 C140.13143,113.028524 140.40593,113.044459 140.698429,113.192877 C140.998063,113.344915 141.175702,113.55616 141.231347,113.82661 C141.286992,114.097061 141.218886,114.421341 141.027028,114.79945 L141.027028,114.79945 Z M144.276986,116.0852 L143.310457,117.990014 L141.416344,117.028915 L142.382873,115.124101 C142.795548,114.310809 143.312221,114.061632 143.93289,114.376568 C144.574963,114.702364 144.689661,115.271908 144.276986,116.0852 L144.276986,116.0852 Z M150.638522,104.866912 C150.874146,104.027349 150.904986,103.221714 150.73104,102.450005 C150.557094,101.678295 150.206439,101.010711 149.679076,100.447251 C149.151712,99.8837906 148.491356,99.4907333 147.698008,99.2680788 C146.90466,99.0454244 146.136219,99.0374874 145.392686,99.244268 C144.649153,99.4510486 144.002346,99.8386939 143.452265,100.407204 C142.902185,100.975714 142.509332,101.67975 142.273707,102.519312 C142.038083,103.358874 142.006703,104.166436 142.179568,104.941996 C142.352433,105.717556 142.703088,106.385141 143.231532,106.94475 C143.759977,107.504359 144.420873,107.89549 145.214221,108.118145 C146.007569,108.340799 146.77547,108.350662 147.517922,108.147732 C148.260374,107.944803 148.907181,107.557158 149.458343,106.984797 C150.009504,106.412436 150.402897,105.706474 150.638522,104.866912 Z M149.044123,104.419441 C148.910098,104.89699 148.679284,105.297521 148.351681,105.621033 C148.024078,105.944545 147.63306,106.160937 147.178629,106.27021 C146.724198,106.379482 146.246655,106.363863 145.745998,106.223353 C145.245342,106.082843 144.829406,105.847705 144.498192,105.51794 C144.166977,105.188175 143.945653,104.799928 143.834219,104.3532 C143.722785,103.906471 143.734081,103.444332 143.868106,102.966783 C144.002131,102.489233 144.232945,102.088703 144.560548,101.765191 C144.888151,101.441679 145.279169,101.225286 145.7336,101.116014 C146.188031,101.006742 146.665575,101.022361 147.166231,101.162871 C147.666888,101.303381 148.082823,101.538519 148.414037,101.868284 C148.745252,102.198049 148.966576,102.586296 149.07801,103.033024 C149.189444,103.479753 149.178148,103.941892 149.044123,104.419441 Z M144.405397,90.4904379 C144.461214,89.7164479 144.347338,89.1267293 144.063767,88.721282 C143.780196,88.3158346 143.339475,88.0875425 142.741605,88.0364055 L142.741605,88.0364055 L142.645795,89.3649553 C142.932473,89.3936502 143.143579,89.4971029 143.279111,89.6753133 C143.414644,89.8535237 143.470901,90.1022145 143.447884,90.4213856 C143.401274,91.0677071 143.086149,91.3778437 142.502511,91.3517954 L142.502511,91.3517954 L142.406701,92.6803452 C143.628681,92.7524283 144.294914,92.0224592 144.405397,90.4904379 Z M153.175504,93.1682033 L148.01794,88.7778502 L153.463797,89.1705852 L153.601902,87.2555585 L145.22366,86.6513508 L145.092461,88.4706261 L150.261994,92.8618425 L144.804168,92.4682443 L144.6652,94.3952399 L153.043441,94.9994476 L153.175504,93.1682033 Z M154.619316,72.3457411 L152.926458,72.7480234 L151.555924,66.9806306 L153.248782,66.5783483 L152.832628,64.8271156 L149.598685,65.5956135 L149.870572,66.7397522 L143.239238,68.315589 L144.731844,74.5966768 L147.310839,74.0824909 C148.62174,73.8203116 149.651482,73.7071735 150.400064,73.7430765 C151.148646,73.7789795 151.588981,74.040254 151.721071,74.5269 L151.721071,74.5269 L151.798753,74.8537968 L155.03547,74.0969738 L154.619316,72.3457411 Z M150.31447,68.6077337 L151.182845,72.2619725 C150.810479,72.079108 150.280657,72.0035541 149.593378,72.035311 C148.9061,72.0670679 148.071383,72.1790866 147.089228,72.371367 L147.089228,72.371367 L145.890067,72.6193271 L145.224221,69.8173549 L150.31447,68.6077337 Z M147.042505,54.1182196 L145.619448,54.7573663 L147.492639,58.9280182 L145.719291,59.7244933 L144.121425,56.1668506 L142.742154,56.7863312 L144.340021,60.343974 L142.676138,61.091284 L140.866862,57.0629377 L139.443805,57.7020844 L142.04464,63.4928322 L149.707255,60.051273 L147.042505,54.1182196 Z M142.488869,45.9537424 L136.834535,49.7598373 L135.33354,47.5299589 L134.019504,48.414474 L138.086933,54.4570461 L139.400968,53.5725311 L137.906674,51.3526076 L143.561009,47.5465126 L142.488869,45.9537424 Z M135.2338,36.5723101 C134.622972,35.9499971 133.93962,35.5221784 133.183741,35.2888542 C132.427863,35.05553 131.674318,35.0272973 130.923105,35.2041563 C130.171892,35.3810152 129.502257,35.7580468 128.914199,36.3352509 C128.326142,36.912455 127.936703,37.5749512 127.745882,38.3227396 C127.555062,39.070528 127.569254,39.8244687 127.788458,40.5845618 C128.007663,41.3446548 128.422679,42.0358578 129.033506,42.6581709 C129.644334,43.280484 130.329088,43.70973 131.087768,43.9459089 C131.846448,44.1820877 132.599994,44.2103204 133.348405,44.0306068 C134.096816,43.8508931 134.76505,43.4724343 135.353107,42.8952302 C135.941165,42.3180261 136.332004,41.6569572 136.525627,40.9120234 C136.71925,40.1670897 136.705058,39.4131489 136.483051,38.6502013 C136.261045,37.8872536 135.844628,37.1946232 135.2338,36.5723101 Z M134.051976,37.7323223 C134.399419,38.0862985 134.631882,38.4858749 134.749363,38.9310515 C134.866844,39.376228 134.859854,39.8230738 134.728392,40.2715888 C134.596929,40.7201037 134.345646,41.1264887 133.974542,41.4907438 C133.603438,41.8549988 133.192443,42.0986689 132.741557,42.2217541 C132.290671,42.3448393 131.843773,42.3435054 131.400862,42.2177525 C130.957951,42.0919996 130.562774,41.852135 130.21533,41.4981588 C129.867887,41.1441825 129.635425,40.7446061 129.517943,40.2994296 C129.400462,39.8542531 129.407453,39.4074073 129.538915,38.9588923 C129.670377,38.5103773 129.92166,38.1039923 130.292764,37.7397373 C130.663869,37.3754823 131.074864,37.1318122 131.525749,37.008727 C131.976635,36.8856418 132.423534,36.8869756 132.866445,37.0127285 C133.309356,37.1384814 133.704533,37.378346 134.051976,37.7323223 Z M126.298896,28.4758045 L124.377239,31.2612467 L123.270964,30.4980352 L123.394925,26.4723743 L121.577473,25.2185268 L121.441744,30.4023611 L116.876543,32.1804458 L118.565588,33.3457062 L122.311512,31.804234 L123.457296,32.5947031 L121.528825,35.3900227 L123.119095,36.4871393 L127.889167,29.572921 L126.298896,28.4758045 Z M113.844151,20.813029 C113.180058,20.5147605 112.525552,20.361116 111.880635,20.3520953 C111.235717,20.3430746 110.630846,20.4792031 110.066021,20.7604808 L110.066021,20.7604808 L110.732482,22.3226711 C111.522668,21.9496746 112.300891,21.9352543 113.067153,22.2794102 C113.541505,22.4924591 113.918067,22.7865569 114.196837,23.1617036 C114.475607,23.5368503 114.635404,23.9572226 114.676228,24.4228206 C114.717052,24.8884185 114.63094,25.3583936 114.417891,25.832746 C114.204842,26.3070983 113.910744,26.6836597 113.535597,26.9624301 C113.160451,27.2412006 112.740078,27.4009977 112.27448,27.4418215 C111.808882,27.4826453 111.338907,27.3965328 110.864555,27.1834839 C110.098293,26.839328 109.590478,26.2516857 109.341109,25.4205569 L109.341109,25.4205569 L107.730678,25.9601125 C107.898904,26.56186 108.198765,27.099952 108.630263,27.5743884 C109.06176,28.0488249 109.609556,28.4351774 110.273649,28.7334458 C111.061804,29.0874348 111.847714,29.2365165 112.631379,29.180691 C113.415045,29.1248656 114.1227,28.877044 114.754346,28.4372263 C115.385992,27.9974086 115.872254,27.3980179 116.213132,26.6390541 C116.55401,25.8800903 116.679035,25.1184547 116.588205,24.3541471 C116.497376,23.5898396 116.21254,22.8962541 115.733699,22.2733908 C115.254857,21.6505275 114.625008,21.1637402 113.844151,20.813029 Z M97.075034,17.1857993 C96.6644702,17.1187665 96.2915703,17.2058162 95.9563343,17.4469485 C95.6210982,17.6880808 95.4186747,18.0218243 95.3490637,18.448179 C95.2794526,18.8745337 95.3655356,19.2533552 95.6073124,19.5846435 C95.8490892,19.9159318 96.1752595,20.1150924 96.5858233,20.1821252 C96.9963871,20.249158 97.3689647,20.1640822 97.7035562,19.9268976 C98.0381477,19.689713 98.240249,19.3579434 98.30986,18.9315887 C98.379471,18.5052341 98.2937104,18.1244387 98.0525781,17.7892026 C97.8114458,17.4539666 97.4855977,17.2528321 97.075034,17.1857993 Z M73.7337137,13.2585867 L74.0830827,16.6003739 L75.2765781,16.4755992 L75.9852981,23.2546531 L77.9068257,23.0537659 L77.1981057,16.274712 L80.9218114,15.8854151 L81.6305314,22.664469 L83.552059,22.4635818 L82.6786364,14.109114 L75.6966883,14.8390457 L75.5120218,13.0726725 L73.7337137,13.2585867 Z M66.8796972,16.3454187 L64.7039384,22.7596012 L63.0581188,17.5535588 L61.2274225,18.1323086 L63.7594527,26.1416046 L65.4986142,25.5917923 L67.6707557,19.1661679 L69.3201926,24.3836522 L71.1623306,23.8012853 L68.6303005,15.7919892 L66.8796972,16.3454187 Z M50.4293936,22.6163087 L50.880717,23.4088055 C49.6858922,24.17211 48.9173801,25.0171551 48.5751807,25.9439407 C48.2329812,26.8707263 48.3370304,27.8172641 48.8873282,28.783554 C49.4297081,29.7359405 50.1877262,30.3031412 51.1613825,30.4851559 C52.1350388,30.6671707 53.2568897,30.4425672 54.526935,29.8113455 L54.526935,29.8113455 L54.9485661,30.5517044 L56.5022769,29.666873 L56.0747074,28.9160865 C57.2685659,28.1349196 58.0385744,27.2844192 58.3847328,26.3645854 C58.7308913,25.4447515 58.6308011,24.5051654 58.0844622,23.5458272 C57.5420823,22.5934407 56.785054,22.027978 55.8133772,21.8494391 C54.8417003,21.6709002 53.7173634,21.8992211 52.4403663,22.5344017 L52.4403663,22.5344017 L51.9831045,21.7314773 L50.4293936,22.6163087 Z M51.6349022,24.7331094 L53.7668114,28.4766141 C52.2356873,29.1828682 51.153407,28.9798572 50.5199707,27.8675809 C50.1953345,27.2975394 50.1256741,26.7549093 50.3109894,26.2396906 C50.4963047,25.724472 50.9376089,25.2222783 51.6349022,24.7331094 L51.6349022,24.7331094 Z M53.188613,23.848278 C54.735573,23.1698308 55.8218123,23.3797936 56.4473307,24.4781663 C56.7719668,25.0482079 56.8413857,25.5863724 56.6555873,26.0926598 C56.4697889,26.5989472 56.0247672,27.0986548 55.3205222,27.5917827 L55.3205222,27.5917827 L53.188613,23.848278 Z M40.6528738,29.2973294 L42.1783774,31.0399409 L40.9052778,32.1544279 C40.3454752,32.6444861 39.9397689,33.1617892 39.6881592,33.7063372 C39.4365494,34.2508852 39.3508824,34.7937011 39.4311582,35.3347851 C39.5114339,35.875869 39.7544453,36.3781572 40.1601924,36.8416497 C40.5712089,37.3111616 41.0382549,37.6199853 41.5613303,37.7681208 C42.0844057,37.9162563 42.6337836,37.903146 43.2094641,37.7287901 C43.7851446,37.5544342 44.3528862,37.2222271 44.9126888,36.732169 L44.9126888,36.732169 L47.6484985,34.3372074 L42.1155839,28.0168549 L40.6528738,29.2973294 Z M42.0298891,33.2751284 L43.221727,32.2317788 L45.1424388,34.425844 L43.9506009,35.4691936 C43.5111859,35.8538629 43.0941164,36.0515117 42.6993924,36.0621399 C42.3046684,36.0727682 41.9518578,35.9005105 41.6409607,35.5453669 C41.3353331,35.1962426 41.2138938,34.8267558 41.2766429,34.4369064 C41.339392,34.047057 41.5904741,33.6597977 42.0298891,33.2751284 L42.0298891,33.2751284 Z M30.0814573,39.6446697 C29.5467649,40.3335006 29.2145417,41.0680942 29.0847877,41.8484505 C28.9550337,42.6288067 29.0282022,43.3793228 29.3042933,44.0999987 C29.5803844,44.8206745 30.0438867,45.4336424 30.6948004,45.9389022 C31.345714,46.444162 32.0544881,46.7411523 32.8211227,46.8298732 C33.5877573,46.9185942 34.3329704,46.8033319 35.0567621,46.4840865 C35.7805538,46.1648412 36.4097958,45.660803 36.9444882,44.9719721 C37.4791806,44.2831412 37.8126302,43.5469677 37.9448369,42.7634517 C38.0770437,41.9799357 38.0038751,41.2294196 37.7253313,40.5119035 C37.4467875,39.7943874 36.9820588,39.1829995 36.3311452,38.6777397 C35.6802316,38.1724799 34.9726838,37.8739096 34.2085019,37.7820289 C33.4443201,37.6901482 32.6991069,37.8054105 31.9728625,38.1278156 C31.2466181,38.4502208 30.6161497,38.9558388 30.0814573,39.6446697 Z M31.3896041,40.6600948 C31.6937411,40.2682827 32.058499,39.9842904 32.4838779,39.8081178 C32.9092568,39.6319452 33.3529973,39.5788939 33.8150992,39.6489639 C34.2772011,39.7190339 34.7136374,39.9134956 35.1244082,40.2323489 C35.5351789,40.5512021 35.8318103,40.925771 36.0143025,41.3560553 C36.1967946,41.7863397 36.2554584,42.229373 36.1902938,42.6851554 C36.1251292,43.1409378 35.9404784,43.564735 35.6363414,43.9565471 C35.3322045,44.3483592 34.9674465,44.6323515 34.5420676,44.8085241 C34.1166887,44.9846967 33.6729483,45.0377479 33.2108463,44.9676779 C32.7487444,44.8976079 32.3123081,44.7031462 31.9015374,44.384293 C31.4907666,44.0654397 31.1941352,43.6908709 31.0116431,43.2605865 C30.8291509,42.8303022 30.7704872,42.3872688 30.8356518,41.9314864 C30.9008163,41.4757041 31.0854671,41.0519068 31.3896041,40.6600948 Z M22.278377,51.5716495 C21.8080732,52.5081955 21.6322495,53.3218207 21.7509058,54.0125252 C21.8695621,54.7032297 22.2613283,55.2155218 22.9262045,55.5494016 C23.3766045,55.7755782 23.8165442,55.8443172 24.2460236,55.7556188 C24.675503,55.6669203 25.0730435,55.4279024 25.4386452,55.0385653 C25.434342,55.4571504 25.5267158,55.8302872 25.7157667,56.1579757 C25.9048176,56.4856642 26.1852225,56.7428511 26.5569812,56.9295366 C27.1789621,57.2418757 27.7800224,57.2393398 28.3601623,56.9219287 C28.9403021,56.6045176 29.4493684,56.0097106 29.8873612,55.1375074 L29.8873612,55.1375074 L31.6429226,51.6415457 L24.1362564,47.8719354 L22.278377,51.5716495 Z M26.8528488,53.4256784 L27.6660076,51.8063833 L29.4890552,52.72186 L28.6758964,54.3411552 C28.4892109,54.7129139 28.267863,54.9576037 28.0118525,55.0752245 C27.7558421,55.1928454 27.4812782,55.1780587 27.1881607,55.0308644 C26.8878941,54.8800799 26.7093732,54.6695798 26.6525981,54.399364 C26.595823,54.1291482 26.6625733,53.8045863 26.8528488,53.4256784 L26.8528488,53.4256784 Z M23.597545,52.1535255 L24.5561031,50.2446876 L26.4542172,51.1978605 L25.4956592,53.1066984 C25.0863872,53.9217079 24.5707608,54.1730431 23.9487798,53.8607039 C23.3053513,53.5375945 23.188273,52.968535 23.597545,52.1535255 L23.597545,52.1535255 Z M17.2739109,63.4126087 C17.0417144,64.2531257 17.0141631,65.0588805 17.1912567,65.8298733 C17.3683504,66.6008661 17.7217267,67.2670141 18.2513857,67.8283173 C18.7810447,68.3896206 19.4429992,68.7799797 20.2372492,68.9993947 C21.0314992,69.2188097 21.7999658,69.2236105 22.5426491,69.0137973 C23.2853323,68.803984 23.9305519,68.4137024 24.4783077,67.8429525 C25.0260636,67.2722025 25.4160397,66.566569 25.6482361,65.726052 C25.8804326,64.885535 25.9085165,64.0778524 25.732488,63.303004 C25.5564594,62.5281557 25.2030831,61.8620077 24.672359,61.30456 C24.1416349,60.7471123 23.4791478,60.358681 22.6848978,60.139266 C21.8906478,59.919851 21.1227138,59.9131224 20.3810956,60.11908 C19.6394775,60.3250377 18.994258,60.7153193 18.445437,61.2899249 C17.896616,61.8645304 17.5061073,62.5720917 17.2739109,63.4126087 Z M18.870122,63.8535689 C19.0021971,63.3754766 19.2313748,62.9740073 19.5576551,62.649161 C19.8839354,62.3243147 20.2740662,62.1063286 20.7280476,61.9952027 C21.1820289,61.8840769 21.6596324,61.8977469 22.1608582,62.0362126 C22.6620839,62.1746784 23.0789755,62.4081166 23.411533,62.7365271 C23.7440905,63.0649377 23.9669973,63.4522781 24.0802534,63.8985482 C24.1935095,64.3448184 24.1841,64.8069996 24.052025,65.2850918 C23.9199499,65.7631841 23.6907723,66.1646534 23.3644919,66.4894997 C23.0382116,66.814346 22.6480808,67.0323321 22.1940994,67.143458 C21.7401181,67.2545838 21.2625146,67.2409138 20.7612888,67.1024481 C20.2600631,66.9639823 19.8431715,66.7305442 19.510614,66.4021336 C19.1780565,66.073723 18.9551497,65.6863826 18.8418936,65.2401125 C18.7286375,64.7938423 18.738047,64.3316611 18.870122,63.8535689 Z M23.5679258,77.7591489 C23.5151672,78.5333533 23.6313734,79.1226174 23.9165441,79.5269411 C24.2017149,79.9312647 24.6433342,80.1578136 25.241402,80.2065878 L25.241402,80.2065878 L25.3319617,78.8776699 C25.045172,78.8501079 24.8336593,78.7474902 24.6974237,78.5698167 C24.5611881,78.3921432 24.5039484,78.1436767 24.5257045,77.8244171 C24.5697606,77.1779165 24.8836569,76.8665371 25.4673934,76.890279 L25.4673934,76.890279 L25.5579531,75.5613611 C24.3356975,75.494107 23.672355,76.2267029 23.5679258,77.7591489 Z M14.7873067,75.1160583 L19.962178,79.4859977 L14.5148116,79.1147844 L14.384275,81.0303418 L22.7648387,81.6014392 L22.8888485,79.7816597 L17.7020049,75.4109044 L23.1613435,75.7829336 L23.2926959,73.8554039 L14.9121322,73.2843065 L14.7873067,75.1160583 Z M13.4290014,95.9459835 L15.1201973,95.5367694 L16.5143476,101.298499 L14.8231516,101.707713 L15.2464766,103.457226 L18.477244,102.675486 L18.2006717,101.532471 L24.8254945,99.9294804 L23.307169,93.6545602 L20.7303026,94.1793073 C19.4204864,94.4468548 18.391217,94.5642106 17.6424942,94.5313746 C16.8937714,94.4985387 16.4523689,94.2390703 16.3182867,93.7529695 L16.3182867,93.7529695 L16.239266,93.4263938 L13.0056764,94.1964705 L13.4290014,95.9459835 Z M17.7491251,99.6663237 L16.865787,96.0156731 C17.2388992,96.1970106 17.7690265,96.2703932 18.456169,96.235821 C19.1433115,96.2012488 19.9775621,96.0858114 20.9589211,95.8895089 L20.9589211,95.8895089 L22.1570565,95.6366382 L22.8343764,98.4358591 L17.7491251,99.6663237 Z M21.0780198,114.134913 L22.4985028,113.490065 L20.6086038,109.326958 L22.3787441,108.523379 L23.9908626,112.074586 L25.3676384,111.44958 L23.7555198,107.898373 L25.4163922,107.144397 L27.2418065,111.165457 L28.6622894,110.520609 L26.0382564,104.740336 L18.3895021,108.212592 L21.0780198,114.134913 Z M25.6690466,122.289281 L31.3083331,118.460926 L32.818107,120.68487 L34.1286454,119.795182 L30.0374278,113.768691 L28.7268893,114.658379 L30.2299232,116.872395 L24.5906367,120.70075 L25.6690466,122.289281 Z M32.954201,131.628555 C33.5675738,132.24836 34.2526742,132.673374 35.0095022,132.903599 C35.7663302,133.133824 36.5199851,133.158968 37.270467,132.979032 C38.0209489,132.799096 38.6890333,132.419323 39.2747203,131.839714 C39.8604073,131.260105 40.2471281,130.596018 40.4348826,129.847454 C40.6226372,129.09889 40.6053557,128.345014 40.3830381,127.585826 C40.1607206,126.826637 39.7428754,126.137141 39.1295026,125.517336 C38.5161298,124.897532 37.8296226,124.471095 37.069981,124.238028 C36.3103394,124.00496 35.5566844,123.979815 34.8090162,124.162595 C34.0613479,124.345374 33.3946703,124.726568 32.8089834,125.306177 C32.2232964,125.885786 31.8351688,126.548451 31.6446006,127.294172 C31.4540324,128.039893 31.4713139,128.793769 31.6964451,129.555801 C31.9215763,130.317832 32.3408283,131.00875 32.954201,131.628555 Z M34.1312613,130.463709 C33.7823703,130.11116 33.5482726,129.71254 33.4289679,129.267848 C33.3096633,128.823157 33.3148225,128.376286 33.4444455,127.927236 C33.5740686,127.478186 33.8236843,127.070775 34.1932926,126.705002 C34.5629009,126.339229 34.9728938,126.093877 35.4232715,125.968945 C35.8736491,125.844013 36.3205493,125.843516 36.7639719,125.967452 C37.2073946,126.091389 37.6035514,126.329632 37.9524424,126.682182 C38.3013333,127.034731 38.5354311,127.433352 38.6547357,127.878043 C38.7740404,128.322734 38.7688812,128.769605 38.6392581,129.218655 C38.5096351,129.667705 38.2600194,130.075116 37.8904111,130.440889 C37.5208028,130.806662 37.1108098,131.052014 36.6604322,131.176946 C36.2100546,131.301878 35.7631544,131.302375 35.3197317,131.178439 C34.876309,131.054502 34.4801522,130.816259 34.1312613,130.463709 Z M41.9096264,139.682613 L43.8208189,136.88998 L44.9299497,137.649036 L44.8210949,141.675133 L46.6432385,142.922152 L46.759516,137.737845 L51.3180126,135.942644 L49.6246074,134.783729 L45.8844941,136.339246 L44.7357514,135.553082 L46.6537212,132.750546 L45.0593456,131.659404 L40.3152508,138.591472 L41.9096264,139.682613 Z M54.4065549,147.304795 C55.0718394,147.600397 55.7269558,147.751415 56.3719044,147.757848 C57.0168529,147.764282 57.6211731,147.625728 58.1848648,147.342187 L58.1848648,147.342187 L57.5121431,145.782683 C56.72346,146.158846 55.9453004,146.176388 55.1776645,145.835309 C54.7024613,145.624164 54.3247232,145.331579 54.0444502,144.957554 C53.7641771,144.583528 53.602695,144.163801 53.5600038,143.69837 C53.5173126,143.23294 53.6015391,142.762623 53.8126835,142.28742 C54.0238278,141.812217 54.3164127,141.434478 54.6904382,141.154205 C55.0644636,140.873932 55.4841915,140.71245 55.9496219,140.669759 C56.4150523,140.627068 56.8853691,140.711294 57.3605723,140.922439 C58.1282082,141.263518 58.6383768,141.849119 58.8910782,142.67924 L58.8910782,142.67924 L60.4993318,142.133229 C60.3286933,141.532161 60.0266756,140.995276 59.5932784,140.522575 C59.1598813,140.049873 58.6105405,139.665721 57.945256,139.370119 C57.1556877,139.019294 56.3691859,138.873366 55.5857507,138.932335 C54.8023155,138.991304 54.0956597,139.241962 53.4657833,139.68431 C52.8359069,140.126658 52.3520532,140.727994 52.0142222,141.48832 C51.6763913,142.248645 51.5544231,143.010776 51.6483177,143.774713 C51.7422123,144.53865 52.0298277,145.231087 52.5111641,145.852025 C52.9925004,146.472962 53.6242974,146.957219 54.4065549,147.304795 Z M71.2109766,150.869979 C71.6218005,150.935398 71.9943556,150.846884 72.3286416,150.604436 C72.6629277,150.361989 72.8640384,150.027453 72.9319737,149.600828 C72.999909,149.174203 72.9123383,148.795723 72.6692617,148.465387 C72.4261851,148.135051 72.0992348,147.937173 71.6884108,147.871754 C71.2775869,147.806335 70.9053464,147.892874 70.5716893,148.131371 C70.2380323,148.369869 70.0372361,148.70243 69.9693008,149.129055 C69.9013655,149.55568 69.9886217,149.936135 70.2310693,150.270421 C70.4735168,150.604707 70.8001526,150.80456 71.2109766,150.869979 Z" id="ЦИФРОВОЙДЕТОКС•ЦИФРОВОЙДЕТОКС•" fill-rule="nonzero"></path>
                <path d="M84,-9.09494702e-13 C37.608081,-9.09494702e-13 0,37.608081 0,84 C0,130.391919 37.608081,168 84,168 C130.391919,168 168,130.391919 168,84 C168,37.608081 130.391919,-9.09494702e-13 84,-9.09494702e-13 Z M84,2 C129.287349,2 166,38.7126505 166,84 C166,129.287349 129.287349,166 84,166 C38.7126505,166 2,129.287349 2,84 C2,38.7126505 38.7126505,2 84,2 Z" id="Oval-Copy-7" fill-rule="nonzero"></path>
                <path d="M99,53 C100.597681,53 101.903661,54.24892 101.994907,55.8237272 L102,56 L102,112 C102,113.597681 100.75108,114.903661 99.1762728,114.994907 L99,115 L69,115 C67.4023191,115 66.0963391,113.75108 66.0050927,112.176273 L66,112 L66,84 C66,83.4477153 66.4477153,83 67,83 C67.5128358,83 67.9355072,83.3860402 67.9932723,83.8833789 L68,84 L68,112 C68,112.512836 68.3860402,112.935507 68.8833789,112.993272 L69,113 L99,113 C99.5128358,113 99.9355072,112.61396 99.9932723,112.116621 L100,112 L100,56 C100,55.4871642 99.6139598,55.0644928 99.1166211,55.0067277 L99,55 L90,55 L90,55 L90,57 C90,58.1045695 89.1045695,59 88,59 L80,59 C78.8954305,59 78,58.1045695 78,57 L78,55 L69,55 C68.4871642,55 68.0644928,55.3860402 68.0067277,55.8833789 L68,56 L68,71.96875 C68,72.5210347 67.5522847,72.96875 67,72.96875 C66.4871642,72.96875 66.0644928,72.5827098 66.0067277,72.0853711 L66,71.96875 L66,56 C66,54.4023191 67.24892,53.0963391 68.8237272,53.0050927 L69,53 L99,53 Z" id="Combined-Shape" fill-rule="nonzero"></path>
                <path d="M67,75 C67.5128358,75 67.9355072,75.3860402 67.9932723,75.8833789 L68,76 L68,78 C68,78.5522847 67.5522847,79 67,79 C66.4871642,79 66.0644928,78.6139598 66.0067277,78.1166211 L66,78 L66,76 C66,75.4477153 66.4477153,75 67,75 Z" id="Line-7" fill-rule="nonzero"></path>
                <circle id="Oval" cx="84" cy="107" r="3"></circle>
            </g>
        </g>
    </g>
</svg>