<?xml version="1.0" encoding="UTF-8"?>
<svg width="171px" height="170px" viewBox="0 0 171 170" version="1.1" xmlns="http://www.w3.org/2000/svg" xmlns:xlink="http://www.w3.org/1999/xlink">
    <title>Цифровой детокс</title>
    <g id="Page-1" stroke="none" stroke-width="1" fill="none" fill-rule="evenodd">
        <g id="Главная-мобилка" transform="translate(-137.000000, -2132.000000)" fill="#83BFC4">
            <g id="Цифровой-детокс" transform="translate(222.419171, 2216.761338) rotate(-20.000000) translate(-222.419171, -2216.761338) translate(156.419171, 2150.761338)">
                <g id="Group" transform="translate(13.000000, 11.000000)" fill-rule="nonzero">
                    <path d="M68.63465,109.166258 L67.7405777,105.927395 L66.5838408,106.246706 L64.7701513,99.6764411 L62.907805,100.190533 L64.7214945,106.760798 L61.1124755,107.75705 L59.298786,101.186785 L57.4364397,101.700876 L59.6716204,109.798034 L66.438531,107.930062 L66.9111121,109.642032 L68.63465,109.166258 Z M81.1573797,102.749428 L81.0312154,95.9774454 L84.3435829,100.317932 L85.8699077,99.1531432 L80.7739577,92.4754719 L79.3239491,93.5820211 L79.4573934,100.363543 L76.1377459,96.0135172 L74.6018816,97.1855857 L79.6978316,103.863257 L81.1573797,102.749428 Z M98.9863733,86.4155268 L98.1983483,85.9564401 C98.8489282,84.6966839 99.0897257,83.5801139 98.9207406,82.6067301 C98.7517555,81.6333463 98.1868442,80.8667726 97.2260067,80.307009 C96.2789942,79.7552996 95.3387085,79.6449775 94.4051498,79.9760427 C93.4715911,80.3071079 92.6138531,81.0642614 91.8319356,82.2475031 L91.8319356,82.2475031 L91.0957543,81.8186195 L90.1957029,83.3635633 L90.9422529,83.7984875 C90.3014708,85.0732104 90.0621161,86.1952502 90.2241887,87.1646069 C90.3862613,88.1339637 90.9442601,88.8965103 91.8981851,89.4522468 C92.8451976,90.0039562 93.7837551,90.1132715 94.7138576,89.7801928 C95.64396,89.4471141 96.5019835,88.6854976 97.287928,87.4953433 L97.287928,87.4953433 L98.0863218,87.9604706 L98.9863733,86.4155268 Z M96.881517,85.1892822 L93.1591356,83.0207017 C94.1292466,81.6415641 95.1673021,81.2741613 96.2733021,81.9184935 C96.8401272,82.2487137 97.1726388,82.6831513 97.2708371,83.2218062 C97.3690354,83.760461 97.2392621,84.4162864 96.881517,85.1892822 L96.881517,85.1892822 Z M95.9814655,86.7342259 C94.9837045,88.0972553 93.9387365,88.460631 92.8465615,87.824353 C92.2797365,87.4941328 91.9496743,87.0634369 91.856375,86.5322653 C91.7630756,86.0010937 91.897312,85.3455538 92.2590842,84.5656455 L92.2590842,84.5656455 L95.9814655,86.7342259 Z M106.963359,69.743816 L104.67086,69.4147224 L104.911286,67.7398913 C105.017005,67.0034407 104.988037,66.34666 104.824381,65.7695493 C104.660725,65.1924385 104.372261,64.7247029 103.958989,64.3663425 C103.545717,64.007982 103.034207,63.7850363 102.424457,63.6975054 C101.806789,63.6088377 101.251238,63.6786043 100.757805,63.9068051 C100.264372,64.135006 99.8559792,64.5027062 99.5326272,65.0099059 C99.2092753,65.5171056 98.9947397,66.1389307 98.8890206,66.8753813 L98.8890206,66.8753813 L98.3723608,70.4744866 L106.687125,71.6680901 L106.963359,69.743816 Z M103.328012,67.6217159 L103.102933,69.1896429 L100.216522,68.775292 L100.441601,67.2073649 C100.524585,66.6292908 100.712397,66.2077002 101.005037,65.942593 C101.297677,65.6774858 101.677602,65.5784668 102.144813,65.6455359 C102.604105,65.7114683 102.936874,65.9127962 103.143119,66.2495196 C103.349365,66.586243 103.410996,67.0436418 103.328012,67.6217159 L103.328012,67.6217159 Z M108.342792,48.3579226 C108.147321,47.5081138 107.78836,46.7862084 107.265911,46.1922063 C106.743461,45.5982043 106.115802,45.1802671 105.382932,44.9383949 C104.650063,44.6965227 103.882113,44.6679422 103.079082,44.8526534 C102.276052,45.0373647 101.597768,45.3986048 101.044229,45.9363737 C100.490691,46.4741426 100.108715,47.1243138 99.8983023,47.8868873 C99.6878892,48.6494608 99.6804182,49.4556519 99.8758893,50.3054607 C100.07136,51.1552696 100.430769,51.8791241 100.954115,52.4770244 C101.477462,53.0749246 102.105121,53.4928618 102.837094,53.7308358 C103.569067,53.9688098 104.336569,53.9954412 105.139599,53.8107299 C105.942629,53.6260187 106.621362,53.2667277 107.175797,52.732857 C107.730232,52.1989863 108.112208,51.5488151 108.321724,50.7823434 C108.53124,50.0158717 108.538263,49.2077315 108.342792,48.3579226 Z M106.728935,48.7291385 C106.84012,49.212516 106.829447,49.6746697 106.696915,50.1155997 C106.564383,50.5565297 106.324863,50.933823 105.978355,51.2474797 C105.631848,51.5611364 105.205211,51.7762474 104.698444,51.8928128 C104.191677,52.0093781 103.713931,52.0022914 103.265204,51.8715527 C102.816478,51.7408139 102.436183,51.506089 102.12432,51.1673779 C101.812456,50.8286667 101.600932,50.4176224 101.489746,49.9342449 C101.378561,49.4508674 101.389234,48.9887137 101.521766,48.5477837 C101.654298,48.1068537 101.893818,47.7295604 102.240326,47.4159037 C102.586833,47.102247 103.013471,46.887136 103.520237,46.7705706 C104.027004,46.6540052 104.504751,46.6610919 104.953477,46.7918307 C105.402203,46.9225694 105.782498,47.1572944 106.094362,47.4960055 C106.406225,47.8347167 106.617749,48.245761 106.728935,48.7291385 Z M101.698361,28.5977013 C101.10583,27.7332877 100.478561,27.1860828 99.8165534,26.9560864 C99.1545461,26.72609 98.5167087,26.8214177 97.903041,27.2420697 C97.4873307,27.5270274 97.2144995,27.8789296 97.0845475,28.2977762 C96.9545954,28.7166228 96.9716734,29.1801703 97.1357813,29.6884189 C96.7714265,29.482318 96.4001264,29.382818 96.021881,29.389919 C95.6436356,29.3970201 95.2829499,29.5181722 94.939824,29.7533754 C94.3657478,30.1468885 94.0774299,30.6742904 94.0748525,31.3355812 C94.0723106,31.9968719 94.3469423,32.7300305 94.8987653,33.5350568 L94.8987653,33.5350568 L97.1105803,36.7617607 L104.039086,32.0124646 L101.698361,28.5977013 Z M97.864132,31.7060614 L98.888623,33.200639 L97.205986,34.3540395 L96.181495,32.8594619 C95.9462917,32.5163359 95.8390813,32.2042879 95.8598637,31.923318 C95.880646,31.6423481 96.026308,31.4091388 96.2968497,31.2236901 C96.5739899,31.0337182 96.8445571,30.9791894 97.1085512,31.0601034 C97.3725454,31.1410175 97.6244056,31.3563368 97.864132,31.7060614 L97.864132,31.7060614 Z M100.551326,29.4712535 L101.759004,31.2330734 L100.007082,32.4339669 L98.7994036,30.6721469 C98.2837657,29.9199092 98.3129849,29.3470338 98.887061,28.9535207 C99.4809329,28.5464382 100.035688,28.7190158 100.551326,29.4712535 L100.551326,29.4712535 Z M89.3267274,13.5451313 C88.6063742,13.0537299 87.8527729,12.767225 87.0659235,12.6856165 C86.279074,12.604008 85.5344646,12.7231078 84.8320951,13.0429157 C84.1297256,13.3627237 83.546365,13.862978 83.0820132,14.5436787 C82.6176614,15.2243794 82.364738,15.9500472 82.323243,16.7206821 C82.281748,17.491317 82.4425366,18.2280497 82.8056087,18.9308801 C83.1686808,19.6337106 83.7103934,20.2308265 84.4307466,20.7222279 C85.1510997,21.2136293 85.9063532,21.5012613 86.696507,21.5851239 C87.4866609,21.6689865 88.2312703,21.5498867 88.9303354,21.2278247 C89.6294005,20.9057626 90.211109,20.4043812 90.6754607,19.7236805 C91.1398125,19.0429798 91.3943881,18.3184391 91.4391875,17.5500583 C91.4839869,16.7816775 91.3231983,16.0449448 90.9568218,15.3398603 C90.5904454,14.6347757 90.0470805,14.0365327 89.3267274,13.5451313 Z M88.3935156,14.9131414 C88.8032577,15.1926541 89.1091046,15.5392918 89.3110561,15.9530545 C89.5130077,16.3668173 89.5931972,16.8064644 89.5516247,17.2719961 C89.5100521,17.7375277 89.3427471,18.1850778 89.0497096,18.6146462 C88.756672,19.0442146 88.4010178,19.3632789 87.9827468,19.5718392 C87.5644758,19.7803995 87.1258789,19.8661475 86.666956,19.8290832 C86.2080331,19.792019 85.7737005,19.6337305 85.3639584,19.3542178 C84.9542162,19.0747051 84.6483694,18.7280673 84.4464178,18.3143046 C84.2444663,17.9005419 84.1642768,17.4608948 84.2058493,16.9953631 C84.2474218,16.5298314 84.4147269,16.0822814 84.7077644,15.652713 C85.0008019,15.2231446 85.3564562,14.9040803 85.7747271,14.69552 C86.1929981,14.4869597 86.631595,14.4012117 87.090518,14.438276 C87.5494409,14.4753402 87.9837734,14.6336287 88.3935156,14.9131414 Z M69.3855785,12.3839483 C68.6275335,12.2179849 68.0275897,12.2463306 67.5857472,12.4689853 C67.1439046,12.6916401 66.8549148,13.0951706 66.7187777,13.6795769 L66.7187777,13.6795769 L68.0199579,13.9644522 C68.0893675,13.6848268 68.2219551,13.4906915 68.4177207,13.3820461 C68.6134863,13.2734008 68.8676671,13.2532973 69.1802629,13.3217358 C69.8132696,13.4603238 70.0751376,13.8165725 69.9658671,14.3904819 L69.9658671,14.3904819 L71.2670474,14.6753571 C71.5131949,13.476256 70.8860386,12.7124531 69.3855785,12.3839483 Z M73.2903778,4.08709693 L68.2073827,8.56357149 L69.3751147,3.22990465 L67.4995395,2.81927361 L65.7030288,11.0249149 L67.4848252,11.4150144 L72.5703867,6.92681749 L71.4000883,12.2722067 L73.2873858,12.6854042 L75.0838966,4.47976286 L73.2903778,4.08709693 Z M39.051137,0.971343505 L39.7703899,2.55572833 L34.3725547,5.00614855 L33.6533018,3.42176373 L32.014283,4.16581845 L33.388304,7.1925398 L34.4591296,6.70642405 L37.2766169,12.9128418 L43.1552309,10.2441656 L42.1563253,7.81151522 C41.6477786,6.5751576 41.3393931,5.5861852 41.2311689,4.84459803 C41.1229447,4.10301086 41.2949884,3.62076509 41.7472998,3.39786071 L41.7472998,3.39786071 L42.05325,3.2589705 L40.6901557,0.227288781 L39.051137,0.971343505 Z M36.2074163,5.91276568 L39.6275022,4.36017149 C39.5193892,4.76068063 39.5467734,5.29516179 39.7096548,5.96361495 C39.8725363,6.63206812 40.1424475,7.42984497 40.5193886,8.35694551 L40.5193886,8.35694551 L40.9925655,9.48635938 L38.3701354,10.6768469 L36.2074163,5.91276568 Z M17.2645074,15.711592 L18.3721051,16.8101488 L21.5917218,13.5640354 L22.971959,14.9330062 L20.2255668,17.7020007 L21.2990847,18.7667558 L24.0454769,15.9977614 L25.3405142,17.2822279 L22.2307533,20.4175815 L23.338351,21.5161384 L27.8086324,17.0090675 L21.8446445,11.0937613 L17.2645074,15.711592 Z M7.18228981,28.1456368 L13.3483236,31.0504402 L12.2027674,33.4821155 L13.6357189,34.1571755 L16.7399718,27.5677696 L15.3070203,26.8927097 L14.1665781,29.3135293 L8.00054429,26.4087259 L7.18228981,28.1456368 Z M0.824069258,45.5362287 C0.755850602,46.4055561 0.881940206,47.201861 1.20233807,47.9251432 C1.52273593,48.6484255 1.99627698,49.2352703 2.62296122,49.6856778 C3.24964546,50.1360852 3.97372486,50.3935207 4.79519942,50.4579842 C5.61667398,50.5224477 6.37204634,50.3811091 7.0613165,50.0339684 C7.75058666,49.6868277 8.30987043,49.1810317 8.7391678,48.5165802 C9.16846516,47.8521287 9.41722318,47.0852392 9.48544183,46.2159118 C9.55366049,45.3465843 9.42772735,44.5482856 9.10764241,43.8210156 C8.78755748,43.0937456 8.31401643,42.5069008 7.68701926,42.0604811 C7.0600221,41.6140614 6.33578623,41.3586198 5.51431167,41.2941563 C4.69283711,41.2296928 3.93762121,41.3690375 3.24866398,41.7121904 C2.55970675,42.0553434 2.00042299,42.5611394 1.57081269,43.2295787 C1.14120239,43.8980179 0.892287914,44.6669012 0.824069258,45.5362287 Z M2.47499386,45.6657815 C2.51379714,45.1713017 2.66249586,44.7335932 2.92109004,44.3526562 C3.17968421,43.9717191 3.52127456,43.6835594 3.94586109,43.488177 C4.37044762,43.2927946 4.84194402,43.2154438 5.3603503,43.2561247 C5.87875658,43.2968055 6.33241599,43.446756 6.72132855,43.705976 C7.1102411,43.965196 7.4027015,44.3031116 7.59870975,44.7197226 C7.79471801,45.1363337 7.8733205,45.5918791 7.83451723,46.0863589 C7.79571395,46.5808388 7.64701523,47.0185472 7.38842105,47.3994843 C7.12982688,47.7804214 6.78823653,48.0685811 6.36365,48.2639635 C5.93906347,48.4593459 5.46756707,48.5366967 4.94916079,48.4960158 C4.43075451,48.455335 3.9770951,48.3053845 3.58818254,48.0461645 C3.19926999,47.7869444 2.90680959,47.4490289 2.71080134,47.0324179 C2.51479308,46.6158068 2.43619059,46.1602614 2.47499386,45.6657815 Z M0.55246927,64.2346942 L3.79562033,63.2685539 L4.17933565,64.5566139 L1.55972199,67.6158517 L2.19011144,69.7319503 L5.54476236,65.7776011 L10.2165042,67.2532258 L9.63065314,65.2866342 L5.74561209,64.140102 L5.34819265,62.8060399 L8.60284424,61.8364735 L8.05125347,59.9848872 L0.000878495677,62.383108 L0.55246927,64.2346942 Z M8.16306948,84.1082573 C8.60211644,84.6889653 9.10225601,85.1382363 9.66348821,85.4560702 C10.2247204,85.7739042 10.8205867,85.9452032 11.4510871,85.9699673 L11.4510871,85.9699673 L11.6173577,84.2797123 C10.7451479,84.2270819 10.0557466,83.8657428 9.54915397,83.1956951 C9.23554901,82.7809037 9.04665193,82.3420303 8.98246273,81.8790748 C8.91827354,81.4161194 8.98015295,80.970677 9.16810096,80.5427476 C9.35604898,80.1148182 9.6574187,79.7440511 10.0722101,79.4304461 C10.4870015,79.1168411 10.925875,78.927944 11.3888304,78.8637548 C11.8517859,78.7995657 12.2972283,78.8614451 12.7251577,79.0493931 C13.153087,79.2373411 13.5238542,79.5387108 13.8374592,79.9535022 C14.3440518,80.6235499 14.506987,81.3829261 14.3262648,82.2316307 L14.3262648,82.2316307 L15.9978392,82.5323745 C16.139489,81.9238226 16.135109,81.3078349 15.9846992,80.6844114 C15.8342894,80.0609879 15.539561,79.4589222 15.100514,78.8782142 C14.5794473,78.1890223 13.9618783,77.6806046 13.2478071,77.3529611 C12.5337358,77.0253176 11.7940561,76.9025745 11.0287678,76.984732 C10.2634795,77.0668894 9.54900223,77.3588521 8.88533595,77.8606201 C8.22166967,78.362388 7.74601463,78.9702304 7.45837084,79.684147 C7.17072704,80.3980637 7.08720536,81.143192 7.2078058,81.9195318 C7.32840623,82.6958717 7.64682746,83.4254468 8.16306948,84.1082573 Z M31.4354312,102.943339 C31.8269976,103.083809 32.209505,103.065919 32.5829536,102.889668 C32.9564021,102.713418 33.2160627,102.421979 33.3619354,102.015353 C33.507808,101.608726 33.4919438,101.220571 33.3143428,100.850888 C33.1367418,100.481204 32.8521581,100.226128 32.4605918,100.085658 C32.0690254,99.9451877 31.6871933,99.9611954 31.3150955,100.133681 C30.9429976,100.306166 30.6840123,100.595722 30.5381397,101.002348 C30.392267,101.408975 30.4074559,101.799013 30.5837062,102.172461 C30.7599566,102.54591 31.0438649,102.802869 31.4354312,102.943339 Z" id="ЦИФРОВОЙДЕТОКС•"></path>
                </g>
                <path d="M66,-9.09494702e-13 C29.5492065,-9.09494702e-13 -3.09228199e-11,29.5492065 -3.09228199e-11,66 C-3.09228199e-11,102.450793 29.5492065,132 66,132 C102.450793,132 132,102.450793 132,66 C132,29.5492065 102.450793,-9.09494702e-13 66,-9.09494702e-13 Z M66,2 C101.346224,2 130,30.653776 130,66 C130,101.346224 101.346224,130 66,130 C30.653776,130 2,101.346224 2,66 C2,30.653776 30.653776,2 66,2 Z" id="Oval-Copy-7" fill-rule="nonzero"></path>
                <path d="M81,35 C82.5976809,35 83.9036609,36.24892 83.9949073,37.8237272 L84,38 L84,94 C84,95.5976809 82.75108,96.9036609 81.1762728,96.9949073 L81,97 L51,97 C49.4023191,97 48.0963391,95.75108 48.0050927,94.1762728 L48,94 L48,66 C48,65.4477153 48.4477153,65 49,65 C49.5128358,65 49.9355072,65.3860402 49.9932723,65.8833789 L50,66 L50,94 C50,94.5128358 50.3860402,94.9355072 50.8833789,94.9932723 L51,95 L81,95 C81.5128358,95 81.9355072,94.6139598 81.9932723,94.1166211 L82,94 L82,38 C82,37.4871642 81.6139598,37.0644928 81.1166211,37.0067277 L81,37 L72,37 L72,37 L72,39 C72,40.1045695 71.1045695,41 70,41 L62,41 C60.8954305,41 60,40.1045695 60,39 L60,37 L51,37 C50.4871642,37 50.0644928,37.3860402 50.0067277,37.8833789 L50,38 L50,53.96875 C50,54.5210347 49.5522847,54.96875 49,54.96875 C48.4871642,54.96875 48.0644928,54.5827098 48.0067277,54.0853711 L48,53.96875 L48,38 C48,36.4023191 49.24892,35.0963391 50.8237272,35.0050927 L51,35 L81,35 Z" id="Combined-Shape" fill-rule="nonzero"></path>
                <path d="M49,57 C49.5128358,57 49.9355072,57.3860402 49.9932723,57.8833789 L50,58 L50,60 C50,60.5522847 49.5522847,61 49,61 C48.4871642,61 48.0644928,60.6139598 48.0067277,60.1166211 L48,60 L48,58 C48,57.4477153 48.4477153,57 49,57 Z" id="Line-7" fill-rule="nonzero"></path>
                <circle id="Oval" cx="66" cy="89" r="3"></circle>
            </g>
        </g>
    </g>
</svg>