<svg width="103" height="123" viewBox="0 0 103 123" fill="none" xmlns="http://www.w3.org/2000/svg">
<g clip-path="url(#clip0)">
<circle cx="46.0514" cy="46.1405" r="35" transform="rotate(-20 46.0514 46.1405)" fill="#83BFC4"/>
<path fill-rule="evenodd" clip-rule="evenodd" d="M52.0348 37.774L50.7481 37.3297L50.7199 38.6916C50.7193 38.7175 50.6485 41.2878 49.1349 41.3752C48.7998 41.3945 48.5335 41.2934 48.297 41.057C47.6939 40.4545 47.3599 39.088 47.4459 37.576C47.5648 35.4851 46.535 33.7144 44.4677 32.4552C43.0136 31.5695 41.5376 31.2501 41.4754 31.2369L39.6903 30.8588L40.3467 32.5615C40.3584 32.5919 41.4984 35.6266 39.6496 37.5645C38.5169 38.7518 37.9396 40.2437 38.0242 41.7654C38.1034 43.189 38.7765 44.532 39.8711 45.45C40.3192 45.8257 40.5493 46.199 40.5553 46.5593C40.5638 47.0741 40.1393 47.4953 40.0089 47.6121C38.6323 48.8465 36.7899 47.0688 36.7148 46.9951L35.4079 45.6929L35.0456 47.5018C34.5802 49.8247 34.765 52.2358 35.5798 54.4744C38.0096 61.1502 45.3816 64.6267 52.0684 62.2823C52.1174 62.2658 52.1664 62.2487 52.2153 62.2309L52.2154 62.2309L52.2156 62.2308C58.9409 59.783 62.4211 52.3205 59.9735 45.5958C58.6332 41.9134 55.7397 39.0625 52.0348 37.774ZM46.3356 57.9447L46.3314 57.9333C46.0528 57.1963 45.9048 56.351 45.8895 55.412L48.4259 55.2476L48.0063 54.0227C47.3635 52.1468 47.9979 50.6207 48.6127 49.6962C49.1691 50.5549 49.809 51.2683 50.5486 51.8574C51.3914 52.5277 52.1583 53.0768 52.8607 53.5697C53.3123 53.8873 53.7145 54.4685 53.9639 55.1643L53.9656 55.1688C54.3363 56.1872 54.288 57.2894 53.8297 58.2723C53.3717 59.2543 52.558 59.9994 51.5383 60.3706L51.538 60.3707C49.4355 61.1357 47.102 60.0482 46.3356 57.9447ZM55.8266 54.4936C56.1404 55.3567 56.2513 56.26 56.1632 57.1479C58.6285 54.2317 59.51 50.1107 58.1131 46.2728C57.1175 43.5375 55.1104 41.3434 52.5151 40.1078C52.4624 40.3338 52.3946 40.5737 52.3075 40.8168C51.751 42.3698 50.6648 43.2701 49.2488 43.3517C48.3481 43.4036 47.535 43.0945 46.8976 42.4575C45.883 41.4437 45.3491 39.5769 45.4693 37.4636C45.5444 36.1423 44.8743 35.0343 43.4775 34.1704C43.1911 33.9932 42.9003 33.843 42.6248 33.7173C42.7983 35.1944 42.6625 37.2741 41.0819 38.931C40.3308 39.7183 39.9468 40.6858 40.0007 41.6555C40.0503 42.548 40.456 43.3569 41.1431 43.9331C42.2735 44.8811 42.5238 45.8667 42.5347 46.5266C42.5499 47.4534 42.111 48.3863 41.3303 49.0862C40.1747 50.1221 38.691 50.3172 37.1524 49.6351C37.0265 49.5793 36.9054 49.52 36.7895 49.4587C36.7125 50.9247 36.9316 52.4004 37.44 53.7972C38.8376 57.6371 42.1648 60.228 45.9302 60.8755C45.3018 60.2635 44.7977 59.505 44.4774 58.6276C44.0168 57.4063 43.8345 55.9905 43.9355 54.4192L43.9912 53.5511L45.8308 53.4319C45.6197 52.0217 45.867 50.6073 46.5653 49.2823C47.2238 48.0327 48.0452 47.3054 48.1368 47.2266L49.1129 46.3858L49.6739 47.5456C50.2477 48.7321 50.9371 49.6358 51.7814 50.3083C52.5382 50.9101 53.2151 51.3998 53.9986 51.9497C54.788 52.5046 55.4368 53.4079 55.8266 54.4936Z" fill="black"/>
</g>
<defs>
<clipPath id="clip0">
<rect width="71" height="103" fill="white" transform="translate(0.527344 25.2476) rotate(-20)"/>
</clipPath>
</defs>
</svg>
