<svg width="15" height="18" viewBox="0 0 15 18" fill="none" xmlns="http://www.w3.org/2000/svg">
<path fill-rule="evenodd" clip-rule="evenodd" d="M7.4835 12.75C6.7725 12.7583 6.33675 13.422 6 13.956C5.27625 15.1073 4.4925 16.3268 3.81825 17.3528C3.58425 17.709 3.33075 17.997 2.904 18C2.4765 18.003 2.115 17.4863 2.32125 17.0513C2.8695 15.897 5.25 11.7435 5.25 8.25C5.25 7.04025 4.6065 6.75 3.75 6.75H0.75C0.336 6.75 0 6.414 0 6C0 5.586 0.336 5.25 0.75 5.25H14.25C14.6648 5.25 15 5.58675 15 6C15 6.41325 14.6648 6.75 14.25 6.75H11.25C10.3943 6.75 9.75 7.04025 9.75 8.25C9.75 11.7435 12.1313 15.897 12.6795 17.0513C12.8858 17.4863 12.5243 18.003 12.0968 18C11.67 17.997 11.4158 17.709 11.1825 17.3528C10.5083 16.3268 9.7245 15.1073 9 13.956C8.66175 13.4183 8.2215 12.7478 7.5 12.75H7.4835ZM7.5 0C8.74275 0 9.75 1.008 9.75 2.25C9.75 3.492 8.74275 4.5 7.5 4.5C6.25875 4.5 5.25 3.492 5.25 2.25C5.25 1.008 6.25875 0 7.5 0Z" fill="#83BFC4"/>
</svg>
