<svg width="70" height="75" viewBox="0 0 70 75" fill="none" xmlns="http://www.w3.org/2000/svg">
<path fill-rule="evenodd" clip-rule="evenodd" d="M69.6021 11.9868C69.4633 9.96035 68.3102 8.17105 66.5175 7.20029C59.7897 3.55737 52.1591 1.68721 44.4558 1.80103C39.2646 1.87573 34.1816 2.83506 29.3478 4.65249C27.6867 5.2771 25.7772 4.93198 24.3645 3.75234C21.4677 1.33271 17.7903 0 14.0101 0C11.9003 0 9.84662 0.401807 7.9057 1.19414C7.35463 1.41899 6.99457 1.95498 6.99457 2.55029C6.99457 3.14546 7.35478 3.68159 7.90585 3.90659C11.7874 5.49097 14.6532 8.77148 15.7057 12.7806C12.9329 15.1828 10.4585 17.914 8.34193 20.9101C7.87523 21.5709 8.03241 22.4848 8.6932 22.9518C9.35399 23.4185 10.2681 23.2611 10.7349 22.6005C12.8775 19.5675 15.4121 16.8246 18.2686 14.4478C18.6802 14.1053 18.8721 13.5656 18.7691 13.0402C17.9682 8.95181 15.6506 5.4022 12.3451 3.0334C12.8942 2.96455 13.4497 2.92998 14.0101 2.92998C17.1051 2.92998 20.1155 4.0207 22.4868 6.00117C24.7079 7.8564 27.7319 8.39004 30.3792 7.39512C34.8956 5.69692 39.6459 4.80044 44.4981 4.73086C51.5989 4.62861 58.625 6.32271 64.8445 9.6293L54.672 12.6006C53.2313 13.0214 51.8999 13.6556 50.7068 14.4623C51.3393 13.5397 51.5759 12.5268 51.3581 11.5641V11.5642C50.7875 9.0438 47.4812 7.79399 43.6665 8.65752C39.852 9.52075 37.4056 12.0724 37.976 14.5931C38.4248 16.5757 40.5664 17.7719 43.317 17.7718C44.0629 17.7718 44.8539 17.6837 45.6676 17.4996C46.617 17.2847 47.5119 16.95 48.3014 16.5223C46.9832 17.9404 45.965 19.6279 45.3246 21.4917C45.0744 21.0939 44.8037 20.7072 44.5116 20.3332C44.0135 19.6957 43.0929 19.5826 42.4554 20.0805C41.8177 20.5784 41.7046 21.4991 42.2027 22.1367C43.1692 23.3738 43.8467 24.7825 44.2163 26.3231C45.3423 31.015 43.2829 35.8083 39.2586 38.2477C38.4289 36.2216 37.7526 34.1269 37.2426 32.0013C36.8257 30.264 36.5148 28.4886 36.3188 26.7248C36.2295 25.9207 35.5061 25.34 34.7011 25.4307C33.897 25.5199 33.3177 26.2444 33.407 27.0483C33.4511 27.4447 33.5018 27.8416 33.5566 28.2385C32.3928 28.609 31.0504 29.0396 29.6764 29.4895C27.4997 27.2265 24.515 25.9465 21.3424 25.9465C14.9614 25.9465 9.77016 31.1377 9.77016 37.5187C9.77016 39.5323 10.2864 41.482 11.2681 43.2141C9.89862 45.451 8.82094 47.8749 8.0831 50.4456C7.9914 50.7649 7.92812 51.086 7.88886 51.4065C7.54228 51.3325 7.18559 51.293 6.82318 51.293C5.52445 51.293 4.33793 51.7802 3.43471 52.5804C3.18935 50.792 3.05678 48.9835 3.0414 47.169C3.00316 42.6643 3.67934 38.221 5.0516 33.9625C5.29975 33.1926 4.8767 32.3672 4.10663 32.119C3.33642 31.8713 2.51112 32.2939 2.26312 33.0642C0.794765 37.6213 0.0709861 42.3751 0.112002 47.1939C0.14291 50.8312 0.609609 54.4475 1.49936 57.9422C1.78031 59.0458 1.77768 60.2288 1.49159 61.3636C1.10385 62.901 0.907265 64.4897 0.907265 66.0854C0.907265 68.8976 1.50053 71.6105 2.6702 74.1486C2.83603 74.5085 3.14071 74.786 3.51454 74.9174C3.6723 74.9729 3.83651 75.0003 4.00043 75.0003C4.22514 75.0003 4.44911 74.9486 4.65419 74.8463C7.84228 73.2567 10.4917 70.8558 12.3782 67.8604C14.2138 68.4264 16.1182 68.7127 18.0558 68.7127C19.5853 68.7127 21.1121 68.5315 22.5938 68.1743C23.0031 68.0754 23.3503 67.8053 23.5464 67.4328C23.7426 67.0602 23.7691 66.6212 23.6188 66.2278C21.7221 61.2599 17.8102 57.2568 12.8865 55.2445C11.288 54.5914 10.4337 52.8757 10.8993 51.254C13.5011 42.1904 20.7821 35.1207 30.376 32.3424C30.3924 32.3377 30.4088 32.3326 30.425 32.3272C31.6955 31.9106 32.9444 31.5089 34.0554 31.1546C34.16 31.6668 34.2725 32.1775 34.3942 32.6848C35.0673 35.4898 36.0114 38.2444 37.2004 40.8725C37.445 41.413 37.9776 41.7338 38.5357 41.7338C38.7313 41.7338 38.9301 41.6944 39.1206 41.6114C44.9103 39.0864 48.2085 33.0283 47.3046 26.8774C53.9349 24.5927 60.8752 21.7875 67.2024 17.1442C68.8435 15.9393 69.7409 14.0114 69.6021 11.9868ZM11.7779 57.9562C15.4031 59.4376 18.3814 62.1914 20.1568 65.6481C19.461 65.7376 18.7586 65.7828 18.0553 65.7828C16.0573 65.7828 14.1013 65.424 12.2418 64.7165C11.557 64.4562 10.7849 64.7417 10.4345 65.3851C9.07392 67.8838 7.12143 69.9551 4.73534 71.4466C4.13842 69.7304 3.83681 67.9336 3.83666 66.085C3.83666 64.7306 4.00336 63.3829 4.33192 62.0795C4.55004 61.2145 4.65023 60.3275 4.63456 59.4473C4.63463 59.4437 4.63488 59.44 4.63514 59.4364C4.63544 59.4322 4.63573 59.428 4.63573 59.4237V56.4097C4.63573 55.2037 5.61703 54.2222 6.82304 54.2222C7.56117 54.2222 8.24555 54.595 8.64823 55.2053C9.32602 56.4064 10.4034 57.3946 11.7779 57.9562ZM12.6998 37.5186C12.6998 38.5209 12.8712 39.5014 13.2017 40.4269C16.5694 36.1169 21.1313 32.7053 26.4924 30.5795C25.0187 29.4828 23.2256 28.876 21.3424 28.876C16.5768 28.876 12.6998 32.7532 12.6998 37.5186ZM47.8794 13.27C47.2078 13.8828 46.166 14.3829 45.0207 14.642C42.6424 15.1799 40.958 14.4973 40.8332 13.946C40.7084 13.3947 41.9348 12.0529 44.3129 11.5146C44.9239 11.3764 45.4892 11.3187 45.994 11.3187C47.4537 11.3187 48.4076 11.8009 48.5003 12.2105V12.2106C48.5465 12.414 48.3723 12.8203 47.8794 13.27ZM47.764 23.6131C53.7376 21.4929 59.893 18.8736 65.4688 14.7819C66.3087 14.1655 66.7499 13.2196 66.6793 12.1872C66.6788 12.1796 66.6779 12.1722 66.6771 12.1647C66.6764 12.1586 66.6758 12.1524 66.6752 12.1462L55.4932 15.4124C51.5617 16.5608 48.6499 19.7017 47.764 23.6131Z" fill="#83BFC4"/>
</svg>
