<svg width="223" height="229" viewBox="0 0 223 229" fill="none" xmlns="http://www.w3.org/2000/svg">
<path fill-rule="evenodd" clip-rule="evenodd" d="M117.174 73.0498C117.839 74.8768 116.933 76.8842 115.149 77.5335C113.365 78.1827 111.38 77.2278 110.715 75.4008L101.17 49.1769C100.643 47.7292 101.097 46.115 102.289 45.193C103.483 44.2708 105.137 44.2549 106.373 45.1541L124.847 58.5828L118.897 42.7054C118.215 40.8847 119.102 38.8682 120.88 38.2013L120.912 38.1897C122.681 37.5458 124.655 38.4808 125.333 40.2905L134.813 65.5908C135.473 67.4037 135.018 69.2312 133.665 70.278C132.34 71.3033 130.542 71.2835 129.082 70.2246L111.492 57.4382L117.174 73.0498ZM194.237 59.9685C177.343 52.4777 158.795 49.6899 140.599 51.9066C138.687 52.1394 136.943 50.771 136.704 48.8507C136.466 46.9295 137.823 45.1829 139.735 44.9508C159.178 42.5822 178.992 45.5593 197.038 53.5602C215.034 61.5395 230.57 74.2001 241.967 90.1736C243.09 91.7488 242.733 93.9367 241.168 95.0601C240.903 95.2498 240.622 95.3971 240.33 95.5032C238.896 96.0252 237.233 95.5506 236.298 94.2414C225.632 79.291 211.088 67.4396 194.237 59.9685ZM51.2733 205.659C51.361 205.805 51.4599 205.945 51.5677 206.077C52.681 207.434 54.5224 207.943 56.1569 207.348L56.1823 207.339C57.8239 206.729 58.8974 205.134 58.855 203.37C58.8542 203.338 58.8532 203.306 58.8515 203.274L57.9584 185.919L68.4095 199.798C68.4394 199.838 68.4705 199.878 68.5023 199.916C69.616 201.271 71.4566 201.78 73.0903 201.185L73.1156 201.176C74.756 200.567 75.83 198.973 75.7887 197.21C75.7848 197.055 75.7709 196.901 75.7473 196.748L71.4417 169.072C71.1431 167.151 69.3561 165.829 67.45 166.119C65.5446 166.41 64.2416 168.201 64.5405 170.121L67.0758 186.417L56.6478 172.568C55.4789 171.016 53.2877 170.704 51.7528 171.872C50.7118 172.664 50.2426 173.933 50.4115 175.151L51.287 192.166L42.7466 178.004C41.7424 176.34 39.5948 175.801 37.9464 176.803C36.2992 177.804 35.7773 179.965 36.7811 181.629L51.2733 205.659ZM260.941 99.3314C261.591 101.119 260.616 103.116 258.76 103.791L250.982 106.622L253.262 112.885L260.218 110.353C262.074 109.678 264.105 110.58 264.755 112.368C265.406 114.156 264.43 116.152 262.575 116.828L255.618 119.36L257.898 125.623L265.676 122.792C267.531 122.116 269.562 123.019 270.213 124.806C270.864 126.594 269.888 128.591 268.032 129.266L256.896 133.32C255.04 133.995 253.009 133.093 252.359 131.305L243.087 105.83C242.436 104.042 243.412 102.045 245.267 101.37L256.404 97.3166C258.259 96.6413 260.29 97.5435 260.941 99.3314ZM48.1263 165.555C48.4517 165.53 48.7633 165.461 49.0556 165.355C50.4941 164.831 51.4687 163.399 51.3451 161.798C49.9235 143.396 53.5414 124.88 61.8065 108.253C70.0967 91.5751 82.725 77.4892 98.3264 67.5177C99.9545 66.4773 100.431 64.3138 99.3904 62.6854C98.3496 61.0572 96.1849 60.5797 94.5587 61.6213C77.8887 72.2762 64.3964 87.3239 55.5411 105.137C46.7138 122.895 42.8506 142.675 44.3691 162.336C44.5174 164.262 46.1995 165.704 48.1263 165.555ZM255.007 145.007C254.855 143.078 256.29 141.395 258.211 141.25C260.132 141.104 261.812 142.55 261.964 144.48C263.502 164.042 259.738 183.727 251.081 201.407C242.401 219.135 229.135 234.152 212.719 244.836C212.492 244.983 212.254 245.101 212.01 245.189C210.519 245.732 208.795 245.192 207.89 243.796C206.838 242.171 207.295 240.002 208.909 238.951C224.273 228.953 236.69 214.895 244.816 198.297C252.923 181.743 256.446 163.316 255.007 145.007ZM212.892 184.849C214.25 184.355 215.39 183.333 216.051 181.916C217.173 179.509 216.535 176.777 214.462 175.117L189.998 155.527L193.513 153.184C195.12 152.113 195.554 149.942 194.483 148.335C193.412 146.728 191.239 146.294 189.634 147.365L172.87 158.54C171.106 159.717 170.155 161.756 170.388 163.863L175.941 214.062L147.927 172.039C146.751 170.274 144.712 169.323 142.604 169.556L92.4038 175.109L134.429 147.096C136.193 145.919 137.144 143.88 136.911 141.773L131.358 91.5737L159.372 133.597C160.548 135.362 162.587 136.313 164.695 136.08L214.895 130.526L200.15 140.355C198.544 141.426 198.109 143.597 199.18 145.204C200.25 146.81 202.421 147.244 204.029 146.174L223.361 133.287C225.57 131.814 226.445 129.148 225.536 126.653C224.628 124.158 222.245 122.678 219.605 122.97L179.752 127.378L185.9 96.6464C186.422 94.0425 185.155 91.5393 182.748 90.4168C180.341 89.2942 177.609 89.9334 175.95 92.0057L156.359 116.47L134.119 83.1076C132.647 80.8981 129.981 80.0238 127.486 80.9314L127.485 80.9316C124.99 81.8397 123.51 84.2232 123.801 86.8624L128.21 126.714L97.4779 120.567C94.8746 120.046 92.3706 121.312 91.2484 123.72C90.126 126.126 90.7646 128.858 92.8377 130.518L112.084 145.931C113.072 146.723 114.36 146.891 115.469 146.487C116.05 146.275 116.583 145.906 116.999 145.388C118.206 143.88 117.963 141.68 116.455 140.473L101.513 128.506L129.017 134.008L129.871 141.73L83.9384 172.349C81.7293 173.822 80.8548 176.488 81.7634 178.983C82.6715 181.478 85.0548 182.958 87.6941 182.666L127.547 178.258L121.399 208.99C120.878 211.594 122.145 214.097 124.551 215.219C125.969 215.881 127.5 215.931 128.858 215.436C129.805 215.092 130.668 214.482 131.35 213.63L150.94 189.167L173.18 222.529C174.653 224.738 177.319 225.612 179.814 224.705L179.814 224.705C182.309 223.796 183.79 221.413 183.498 218.774L179.089 178.921L209.821 185.069C210.891 185.282 211.944 185.194 212.892 184.849ZM171.811 128.483L177.322 100.938L159.762 122.865L164.078 129.339L171.811 128.483ZM128.978 205.699L134.488 178.153L142.221 177.297L146.537 183.771L128.978 205.699ZM177.129 164.246L177.984 171.98L205.53 177.49L183.603 159.931L177.129 164.246ZM190.617 244.458C186.986 244.433 183.538 244.222 182.472 244.152C181.568 243.838 181.304 243.041 181.231 242.694C181.129 242.211 181.052 240.968 182.529 239.86C185.784 237.418 190.156 238.879 190.288 238.924C192.097 239.579 194.088 238.645 194.744 236.829C195.401 235.006 194.462 232.984 192.647 232.314C192.324 232.194 184.675 229.45 178.33 234.214C175.12 236.623 173.611 240.417 174.39 244.119C175.121 247.592 177.698 250.252 181.114 251.06C181.294 251.103 181.477 251.131 181.661 251.145C181.836 251.158 186.013 251.461 190.604 251.493C191.895 251.501 194.938 251.744 195.299 253.804C195.571 255.357 194.355 257.508 191.848 258.421C189.264 259.361 186.395 259.217 184.174 258.034C182.463 257.123 180.35 257.777 179.454 259.492C178.557 261.208 179.216 263.337 180.926 264.248C184.867 266.346 189.85 266.64 194.256 265.037C199.762 263.033 203.097 257.808 202.185 252.614C201.5 248.705 198.1 244.509 190.617 244.458ZM68.8067 211.347C91.3012 243.853 130.925 260.546 169.753 253.877C171.643 253.552 173.441 254.826 173.768 256.721C174.06 258.407 173.09 260.017 171.541 260.581C171.348 260.651 171.148 260.704 170.939 260.74C129.459 267.865 87.1307 250.032 63.1007 215.308C62.0068 213.726 62.3965 211.558 63.9725 210.464C65.5481 209.371 67.7119 209.766 68.8067 211.347Z" fill="#D4D4D4"/>
</svg>
