<svg width="154" height="125" viewBox="0 0 154 125" fill="none" xmlns="http://www.w3.org/2000/svg">
<circle opacity="0.1" cx="75" cy="68" r="57" fill="white"/>
<path fill-rule="evenodd" clip-rule="evenodd" d="M116.46 102.906C116.928 102.906 117.376 103.091 117.706 103.421C118.037 103.751 118.222 104.198 118.222 104.664V122.242C118.222 123.213 117.433 124 116.46 124H29.7621C28.7889 124 28 123.213 28 122.242V104.664C28 103.693 28.7889 102.906 29.7621 102.906C30.7631 102.906 31.2482 102.491 32.165 101.628C33.0727 100.773 34.2868 99.6363 36.3219 99.4274C36.1179 95.5863 36.7149 91.3703 38.0559 87.3444C39.5826 82.7608 41.9994 78.5446 45.0854 75.0618C44.0975 74.2543 42.2817 73.2073 41.1751 72.5692L41.1747 72.569C38.191 70.8487 36.0354 69.6056 35.9484 67.7223C35.9098 66.8842 36.3191 66.0985 37.0717 65.5669C40.4492 63.1812 44.6761 61.6648 48.9733 61.2969C52.9016 60.9608 56.6659 61.5971 59.69 63.0941C75.4073 55.7063 86.4281 54.065 92.9408 54.0019C93.0762 54.0005 93.2112 54 93.3451 54C100.938 54 106.552 56.097 108.404 59.6416C109.077 60.9306 109.116 62.4843 108.52 64.2598C107.129 68.4034 102.555 72.88 99.9526 75.1797C96.0604 78.619 91.4659 81.7673 87.1672 83.9607C88.4683 86.5754 89.0731 89.3863 88.9238 92.1901C88.7355 95.7257 87.3633 98.9222 84.9553 101.434L84.9541 101.435L84.9535 101.436L85.0146 101.493L85.1183 101.591L85.158 101.628C86.0748 102.491 86.5599 102.906 87.5608 102.906C88.5617 102.906 89.0468 102.491 89.9637 101.628C90.9664 100.684 92.3398 99.3905 94.7856 99.3905C97.2315 99.3905 98.6049 100.684 99.6076 101.628C100.524 102.491 101.01 102.906 102.01 102.906C103.011 102.906 103.496 102.491 104.413 101.628C105.416 100.684 106.789 99.3905 109.235 99.3905C111.681 99.3905 113.054 100.684 114.057 101.628L114.057 101.628C114.974 102.491 115.459 102.906 116.46 102.906ZM77.032 100.373C76.4707 99.3102 75.9618 98.0402 75.4087 96.6568C74.8797 95.3337 74.3156 93.9254 73.6545 92.5682C71.0257 94.0832 67.3807 96.6109 63.9963 99.6846C64.5466 99.5037 65.1694 99.3905 65.8864 99.3905C68.3323 99.3905 69.7055 100.684 70.7083 101.628C71.6252 102.491 72.1103 102.906 73.1112 102.906C74.1121 102.906 74.5972 102.491 75.5141 101.628C75.9363 101.23 76.4258 100.771 77.032 100.373ZM85.5726 80.828C85.3872 80.0792 85.4182 79.3049 85.6621 78.4652C86.562 75.3676 90.7193 70.2523 105.156 63.2057C103.417 68.2298 94.301 76.3815 85.5726 80.828ZM49.0441 74.5369C49.2866 75.1751 49.1368 75.8956 48.66 76.385C41.6956 83.5325 39.2765 93.2917 39.9056 100.137C40.6961 100.581 41.3005 101.149 41.8089 101.628C42.7258 102.491 43.2109 102.906 44.2118 102.906C45.2127 102.906 45.6978 102.491 46.6146 101.628C47.6175 100.684 48.9907 99.3907 51.4366 99.3907C51.7691 99.3907 52.0801 99.4164 52.3748 99.4599C53.0451 98.1328 53.7781 96.8424 54.5681 95.6174C55.0946 94.8009 56.1849 94.5651 57.0034 95.0901C57.8219 95.6152 58.0586 96.7029 57.532 97.5194C56.8198 98.6241 56.157 99.7876 55.5498 100.985C55.8074 101.205 56.0423 101.424 56.2585 101.628C56.4538 101.812 56.6289 101.974 56.7942 102.118C61.0634 96.9085 67.2357 92.1876 71.881 89.5276C71.6525 89.2091 71.4137 88.9013 71.1628 88.6083L71.1627 88.6082C70.9242 88.3299 70.1991 87.4835 68.2151 87.9707C67.2704 88.2029 66.3155 87.6266 66.0829 86.6839C65.8503 85.7412 66.4279 84.789 67.3729 84.5569C70.0132 83.9088 72.3107 84.5367 73.842 86.3244C76.1476 89.0159 77.5531 92.5306 78.6821 95.3546C79.3268 96.9671 79.9415 98.5021 80.5343 99.3972C80.9979 99.4109 81.4222 99.4708 81.8115 99.5666C81.9972 99.4127 82.1961 99.2258 82.4079 99.0049C86.1093 95.1434 86.439 89.1704 83.2284 84.1421C81.9128 82.0813 81.5926 79.842 82.277 77.4864C83.8913 71.931 90.9868 66.1653 103.938 59.8884C102.232 58.6989 98.9371 57.5156 93.3636 57.5156C93.2353 57.5156 93.1061 57.5163 92.9752 57.5175C86.7083 57.5783 75.9701 59.2116 60.4045 66.6478C59.8805 66.8983 59.2656 66.8747 58.7624 66.5847C53.7069 63.6731 45.8805 64.2248 40.0933 67.7866C40.8645 68.3294 42.0511 69.0137 42.9322 69.5219L42.9323 69.5219L42.9384 69.5254C45.7052 71.1206 48.3186 72.6276 49.0441 74.5369ZM34.5843 104.184C35.5011 103.321 35.9862 102.906 36.9871 102.906C37.988 102.906 38.4732 103.321 39.39 104.184C40.3927 105.129 41.7661 106.422 44.212 106.422C46.6578 106.422 48.0311 105.129 49.0339 104.184C49.9507 103.321 50.4359 102.906 51.4368 102.906C52.4377 102.906 52.9228 103.321 53.8396 104.184C54.8425 105.129 56.2157 106.422 58.6616 106.422C61.1074 106.422 62.4807 105.129 63.4835 104.184C64.4004 103.321 64.8855 102.906 65.8864 102.906C66.8873 102.906 67.3724 103.321 68.2893 104.184C69.2921 105.129 70.6653 106.422 73.1112 106.422C75.5571 106.422 76.9305 105.129 77.9331 104.184C78.85 103.321 79.3351 102.906 80.336 102.906C81.3369 102.906 81.822 103.321 82.7389 104.184C83.7415 105.129 85.115 106.422 87.5608 106.422C90.0067 106.422 91.3801 105.129 92.3828 104.184C93.2996 103.321 93.7847 102.906 94.7856 102.906C95.7865 102.906 96.2717 103.321 97.1885 104.184C98.1912 105.129 99.5646 106.422 102.01 106.422C104.456 106.422 105.83 105.129 106.832 104.184C107.749 103.321 108.234 102.906 109.235 102.906C110.236 102.906 110.721 103.321 111.638 104.184C112.37 104.873 113.299 105.748 114.698 106.171V112.755C114.502 112.591 114.294 112.398 114.057 112.175C113.054 111.231 111.681 109.938 109.235 109.938C106.789 109.938 105.416 111.231 104.413 112.175C103.496 113.038 103.011 113.453 102.01 113.453C101.01 113.453 100.524 113.038 99.6076 112.175C98.6049 111.231 97.2315 109.938 94.7856 109.938C92.3398 109.938 90.9664 111.231 89.9637 112.175C89.0468 113.038 88.5617 113.453 87.5608 113.453C86.5599 113.453 86.0748 113.038 85.158 112.175C84.1553 111.231 82.7819 109.938 80.336 109.938C77.8901 109.938 76.5167 111.231 75.5141 112.175C74.5972 113.038 74.1121 113.453 73.1112 113.453C72.1103 113.453 71.6252 113.038 70.7083 112.175C69.7055 111.231 68.3322 109.938 65.8864 109.938C63.4405 109.938 62.0673 111.231 61.0644 112.175C60.1476 113.038 59.6625 113.453 58.6616 113.453C57.6607 113.453 57.1756 113.038 56.2587 112.175C55.2559 111.231 53.8826 109.938 51.4368 109.938C48.9909 109.938 47.6177 111.231 46.6148 112.175C45.698 113.038 45.2129 113.453 44.212 113.453C43.211 113.453 42.7259 113.038 41.8091 112.175C40.8062 111.231 39.433 109.938 36.9871 109.938C34.5413 109.938 33.168 111.231 32.1652 112.175C31.9282 112.398 31.7202 112.591 31.5245 112.754V106.17C32.9234 105.748 33.8526 104.873 34.5843 104.184ZM31.5245 116.715V120.484L114.698 120.484V116.715C113.3 116.292 112.369 115.42 111.638 114.731C110.721 113.868 110.236 113.453 109.235 113.453C108.234 113.453 107.749 113.868 106.832 114.731C105.83 115.675 104.456 116.969 102.01 116.969C99.5646 116.969 98.1912 115.675 97.1885 114.731C96.2717 113.868 95.7865 113.453 94.7856 113.453C93.7847 113.453 93.2996 113.868 92.3828 114.731C91.3801 115.675 90.0067 116.969 87.5608 116.969C85.115 116.969 83.7415 115.675 82.7389 114.731C81.822 113.868 81.3369 113.453 80.336 113.453C79.3351 113.453 78.85 113.868 77.9331 114.731C76.9305 115.675 75.5571 116.969 73.1112 116.969C70.6653 116.969 69.2921 115.675 68.2893 114.731C67.3724 113.868 66.8873 113.453 65.8864 113.453C64.8855 113.453 64.4004 113.868 63.4835 114.731C62.4807 115.675 61.1074 116.969 58.6616 116.969C56.2157 116.969 54.8425 115.675 53.8396 114.731C52.9228 113.868 52.4377 113.453 51.4368 113.453C50.4359 113.453 49.9507 113.868 49.0339 114.731C48.0311 115.675 46.6578 116.969 44.212 116.969C41.7661 116.969 40.3927 115.675 39.39 114.731C38.4732 113.868 37.988 113.453 36.9871 113.453C35.9862 113.453 35.5011 113.868 34.5843 114.731C33.853 115.42 32.9222 116.292 31.5245 116.715Z" fill="#83BFC4"/>
<path fill-rule="evenodd" clip-rule="evenodd" d="M73.5576 78.1111C73.0765 78.1111 72.621 78.024 72.212 77.8214C71.282 77.3606 70.7593 76.4467 70.7778 75.3144C70.8485 70.9992 71.772 67.9511 73.5227 66.2547C74.4674 65.3393 75.6091 64.8664 76.839 64.8897C79.9636 64.9472 82.2665 66.2801 82.999 68.4551C83.3449 69.4818 83.766 72.1746 80.2153 74.9982C79.4747 75.5873 76.148 78.1111 73.5576 78.1111ZM76.7467 68.4592C76.6278 68.4592 76.3467 68.4815 75.9946 68.8228C75.558 69.2459 74.5813 70.6009 74.3719 74.3546C75.2328 74.0365 76.5894 73.3254 78.0053 72.1996C79.3669 71.1169 79.8015 70.1127 79.628 69.598C79.4508 69.0717 78.4821 68.491 76.7737 68.4595C76.7659 68.4594 76.757 68.4592 76.7467 68.4592Z" fill="#83BFC4"/>
<path d="M61.0561 92.1111C62.1298 92.1111 63.0002 91.4147 63.0002 90.5556C63.0002 89.6964 62.1298 89 61.0561 89H61.0547C59.9809 89 59.1113 89.6964 59.1113 90.5556C59.1113 91.4147 59.9825 92.1111 61.0561 92.1111V92.1111Z" fill="#83BFC4"/>
<circle cx="120" cy="32" r="15" stroke="#83BFC4" stroke-width="4"/>
<path d="M113 31.0558L119.028 38L127 26" stroke="#83BFC4" stroke-width="4" stroke-linecap="round" stroke-linejoin="round"/>
<circle cx="82" cy="28" r="2" fill="#83BFC4"/>
<circle cx="57" cy="47" r="2" fill="#83BFC4"/>
<circle cx="62" cy="2" r="2" fill="#83BFC4"/>
<circle cx="37" cy="21" r="2" fill="#83BFC4"/>
<circle cx="142" cy="62" r="2" fill="#83BFC4"/>
<circle cx="105" cy="9" r="2" fill="#83BFC4"/>
<circle cx="2" cy="49" r="2" fill="#83BFC4"/>
<circle cx="152" cy="29" r="2" fill="#83BFC4"/>
</svg>
