<svg width="72" height="62" viewBox="0 0 72 62" fill="none" xmlns="http://www.w3.org/2000/svg">
<path d="M71.726 36.0898C71.7238 36.0465 71.7197 36.0031 71.7135 35.9598L68.1047 10.7022C68.0432 10.2724 67.789 9.89469 67.415 9.67786C67.0413 9.46102 66.5889 9.42877 66.1879 9.59087L49.5797 16.307C48.859 16.5983 48.5098 17.4223 48.7994 18.147C49.0892 18.8721 49.9085 19.2233 50.6289 18.9319L65.5751 12.8878L68.9052 36.1946C68.9071 36.2602 68.9135 36.3261 68.9246 36.3921C69.6528 40.7036 68.8556 45.1652 66.6803 48.9551C64.175 53.3195 60.1253 56.4388 55.2767 57.7383C50.4268 59.0381 45.3586 58.3619 41.0051 55.834C40.975 55.8164 40.9441 55.8017 40.9133 55.7867C41.8466 55.0733 42.7245 54.3009 43.5434 53.4745L60.0075 49.0373C60.7579 48.8351 61.2031 48.0593 61.002 47.3047C60.801 46.5501 60.0293 46.1021 59.2796 46.3044L46.6113 49.7186C48.0033 47.6357 49.0923 45.3386 49.8365 42.881L61.1388 39.835C61.8892 39.6328 62.3344 38.857 62.1333 38.1024C61.9324 37.3478 61.1606 36.8998 60.4109 37.1021L52.0947 39.3434L55.2219 33.8951L61.8305 32.114C62.5809 31.9119 63.0261 31.1361 62.825 30.3815C62.6239 29.6269 61.8523 29.1789 61.1027 29.3812L57.2109 30.4301L60.2034 25.2166C60.5918 24.5399 60.3613 23.6749 59.6887 23.2843C59.0159 22.8937 58.1559 23.1255 57.7676 23.802L54.7751 29.0154L53.7322 25.1009C53.5311 24.3463 52.7598 23.8983 52.0099 24.1006C51.2595 24.3027 50.8143 25.0786 51.0154 25.8332L52.7861 32.4804L50.9563 35.6683C51.0103 31.1402 49.8584 26.6654 47.5498 22.6436C44.6427 17.579 40.0548 13.6457 34.6255 11.5619C34.6167 11.5581 34.6075 11.5543 34.5985 11.5505L28.235 8.95267C27.5147 8.65889 26.6951 9.00769 26.4031 9.73146C26.111 10.4555 26.4576 11.2804 27.1773 11.5742L33.483 14.1482C33.5115 14.1614 33.5406 14.1736 33.5701 14.1849C38.4202 16.0323 42.5199 19.5386 45.1139 24.0579C48.1334 29.3185 48.9299 35.4503 47.3566 41.3242C45.9052 46.7424 42.5969 51.3414 37.9759 54.4142L35.6157 50.3023L40.7326 31.0946C40.9337 30.3399 40.4885 29.5643 39.7381 29.3621C38.9873 29.16 38.2168 29.6078 38.0157 30.3624L33.627 46.8376L28.4202 37.7666L31.9701 24.4413C32.1712 23.6866 31.726 22.911 30.9756 22.7088C30.2251 22.5065 29.4543 22.9545 29.2532 23.7091L26.4315 34.3016L22.3271 27.1512L24.465 19.1263C24.6661 18.3715 24.2208 17.596 23.4705 17.3937C22.7198 17.1916 21.9492 17.6394 21.7481 18.394L20.3381 23.6862L16.4498 16.9121C16.0615 16.2355 15.2013 16.0036 14.5287 16.3944C13.856 16.7849 13.6255 17.6501 14.014 18.3267L17.9023 25.1006L12.641 23.6826C11.8904 23.4804 11.1197 23.9283 10.9186 24.6829C10.7175 25.4377 11.1627 26.2132 11.9131 26.4155L19.8913 28.5659L23.9957 35.7164L13.4649 32.8783C12.7144 32.676 11.9436 33.124 11.7425 33.8786C11.5414 34.6333 11.9866 35.4089 12.737 35.6111L25.9847 39.1816L31.1915 48.2527L14.8122 43.8383C14.0615 43.636 13.2909 44.084 13.0898 44.8386C12.8887 45.5933 13.334 46.3689 14.0843 46.5712L33.1805 51.7178L35.5404 55.8292C24.9129 61.1568 11.8338 57.3197 5.83513 46.8693C3.21304 42.3012 2.25229 36.9235 3.12993 31.7266C3.14188 31.6565 3.14821 31.5864 3.14934 31.5167L7.16516 3.40519L16.4817 7.20851C17.2021 7.50243 18.0215 7.15363 18.3136 6.42971C18.6057 5.70565 18.2591 4.88074 17.5393 4.58696L6.55766 0.103713C6.15702 -0.0596563 5.70337 -0.0288212 5.32846 0.187731C4.95341 0.404284 4.69832 0.782508 4.63673 1.21335L0.338668 31.2951C0.331777 31.3427 0.327559 31.3905 0.32559 31.4379C-0.607878 37.2254 0.48084 43.2001 3.39866 48.2833C8.09736 56.4695 16.6587 61.0482 25.4596 61.0481C29.3466 61.0481 33.2796 60.1515 36.9477 58.2814L38.6761 61.2925C38.9367 61.7462 39.4093 62 39.8955 62C40.134 62 40.3758 61.9389 40.5973 61.8103C41.2701 61.4198 41.5005 60.5546 41.112 59.878L40.4712 58.7615C43.5787 60.3841 46.9682 61.2143 50.3982 61.2143C52.2671 61.2143 54.1481 60.9686 56.0011 60.472C61.5769 58.9775 66.2348 55.3896 69.1163 50.3695C71.5898 46.0605 72.5139 40.9962 71.726 36.0898Z" fill="#83BFC4"/>
</svg>
