<svg width="130" height="99" viewBox="0 0 130 99" fill="none" xmlns="http://www.w3.org/2000/svg">
<path fill-rule="evenodd" clip-rule="evenodd" d="M32.5475 59.4168C32.3006 59.4304 32.0446 59.4046 31.8103 59.4635C30.7491 59.7304 29.6937 60.0184 28.6379 60.3047C28.3855 60.3731 28.1305 60.4433 27.8928 60.5484C27.3154 60.804 27.2232 61.1798 27.7168 61.5604C28.1593 61.9008 28.6747 62.1862 29.2021 62.3727C30.8697 62.9616 30.8129 63.0086 32.0542 61.4967C32.5236 60.9251 32.7271 60.2541 32.5475 59.4168ZM26.4518 59.4944C26.8239 59.4382 27.1759 59.4132 27.5124 59.3275C28.0668 59.1864 28.608 58.9948 29.1605 58.8446C30.7725 58.4068 32.3871 57.9789 34.0011 57.5484C34.4265 57.4353 34.8219 57.291 34.9374 56.6798C34.6591 56.5551 34.3792 56.3849 34.0753 56.3058C33.732 56.2162 33.368 56.19 33.0112 56.1683C32.3979 56.1308 31.7998 56.0555 31.1679 56.1912C29.4772 56.5542 28.0733 57.4008 26.7841 58.4985C26.5006 58.7395 26.345 58.9865 26.4518 59.4944ZM92.6748 35.9745C92.7724 35.9234 93.0223 35.8737 93.075 35.7445C93.1409 35.5823 93.0588 35.3517 93.0115 35.158C92.9915 35.0747 92.8933 35.0122 92.8376 34.9349C91.9309 33.6732 90.7114 32.832 89.2531 32.3232C87.9459 31.8673 86.6219 31.4578 85.3279 30.9689C84.8259 30.7794 84.3646 30.8452 83.9557 31.0478C83.0816 31.4816 83.023 31.8215 83.745 32.4582C83.8165 32.521 83.8952 32.5761 83.9743 32.629C84.6475 33.081 85.2946 33.5801 86.002 33.9708C86.8117 34.4177 87.6423 34.8819 88.5227 35.1336C89.8023 35.4996 91.1344 35.6817 92.4443 35.9418C92.491 35.951 92.5386 35.9555 92.6748 35.9745ZM41.1693 53.0332C41.2077 53.0742 41.246 53.1156 41.2846 53.157C42.4158 52.4928 43.5685 51.8614 44.6734 51.1558C46.0869 50.2536 47.5455 49.4413 49.0668 48.7385C50.3686 48.1368 51.6925 47.58 52.9785 46.9465C55.7501 45.5807 58.694 45.307 61.7239 45.4685C63.0135 45.5376 64.3063 45.5382 65.5974 45.5858C67.5101 45.6566 69.4244 45.706 71.3338 45.8307C73.1484 45.9491 74.9561 46.1666 76.7692 46.3142C78.4868 46.4538 80.2062 46.5734 81.9265 46.6758C84.1003 46.8052 86.2744 46.9459 88.4508 47.009C89.9332 47.0522 91.4194 46.9498 92.9038 46.9507C94.6109 46.9516 96.2977 46.7918 97.9626 46.4193C98.4753 46.3044 98.9911 46.1883 99.4889 46.0235C100.056 45.8351 100.129 45.5147 99.7385 45.0665C99.6305 44.9422 99.4991 44.8288 99.3581 44.7428C98.8498 44.4312 98.3466 44.1075 97.8165 43.8361C96.306 43.0636 94.7797 42.3224 93.2666 41.5547C90.6764 40.2413 87.9363 39.6024 85.0255 39.7027C83.947 39.7399 83.0753 40.1437 82.4943 41.075C81.8133 42.1671 80.8031 42.7518 79.5459 42.8738C78.4039 42.9842 77.2535 43.0095 76.1065 43.0654C71.4802 43.2913 66.8704 43.1735 62.2792 42.4965C60.8774 42.2897 59.4612 42.2849 58.0906 42.7735C56.646 43.2883 55.3956 42.9232 54.3477 41.8701C53.8966 41.4169 53.5107 40.8911 53.1446 40.3642C52.2334 39.0525 51.366 37.7105 50.4515 36.4009C49.713 35.344 49.1931 35.2342 48.0077 35.7915C46.8439 36.339 45.8501 37.11 44.9868 38.0539C43.7409 39.4158 42.6765 40.9126 41.7617 42.5069C41.3855 43.1624 41.0978 43.8816 40.867 44.6026C40.5635 45.5522 41.1993 46.2062 42.1862 46.0184C42.4179 45.9741 42.6436 45.8807 42.8618 45.7863C43.8272 45.3689 44.7871 44.9386 45.7531 44.5223C46.0375 44.3997 46.3275 44.2741 46.6278 44.2078C47.2375 44.0733 47.7709 44.2447 48.175 44.727C48.5935 45.2266 48.7108 45.7985 48.4208 46.391C48.2448 46.7501 48.0337 47.1188 47.7512 47.395C47.0193 48.1103 46.27 48.8152 45.4705 49.4529C44.4629 50.2566 43.3952 50.9856 42.3592 51.7542C41.8827 52.1077 41.4355 52.4925 41.1693 53.0332ZM62.9174 46.2946C61.5126 46.2946 60.1 46.3044 58.6875 46.2904C57.9086 46.283 57.1752 46.4395 56.4478 46.7124C55.3307 47.1316 54.1956 47.503 53.0707 47.9017C52.733 48.021 52.3918 48.1404 52.073 48.3007C50.7065 48.9872 49.3194 49.6392 47.993 50.3959C45.5442 51.7923 43.1336 53.2551 40.7048 54.6858C39.8606 55.183 39.0027 55.6571 38.1616 56.159C37.2756 56.6881 36.4569 57.302 35.7825 58.0941C35.4412 58.4952 35.2595 58.9136 35.3323 59.462C35.4532 60.3704 35.2027 61.2155 34.6995 61.9713C33.8862 63.1925 32.8921 64.2495 31.6783 65.0886C31.0422 65.5284 30.3369 65.8274 29.5742 65.9637C28.9402 66.0771 28.7265 65.9429 28.6606 65.3022C28.5882 64.5946 28.2221 64.137 27.6621 63.7412C27.2376 63.4413 26.8694 63.0577 26.5 62.6885C26.2136 62.4022 25.9615 62.082 25.6981 61.7737C25.3179 61.3286 24.8471 61.1304 24.2496 61.1271C23.1639 61.1209 22.1004 61.2611 21.0515 61.5143C19.5641 61.8734 18.0683 62.2076 16.6027 62.6411C15.5769 62.9447 14.6005 63.4106 13.5914 63.7746C13.2648 63.8927 12.9017 63.9855 12.5605 63.9706C12.0283 63.9474 11.8427 63.5758 12.145 63.1285C12.3647 62.8036 12.6653 62.5034 12.993 62.2867C13.3666 62.0401 13.7997 61.8696 14.2254 61.7157C18.5278 60.1633 22.6658 58.2414 26.7655 56.2314C27.023 56.1052 27.2756 55.963 27.5441 55.8662C29.4494 55.1795 30.8922 53.9 32.2126 52.4142C34.3759 49.9793 36.2228 47.3218 38.0098 44.6136C39.5191 42.3266 41.0167 40.0291 42.6184 37.8066C44.659 34.9756 47.1645 32.5916 50.133 30.7261C52.3777 29.316 54.6509 27.9484 56.9429 26.6156C57.529 26.2746 58.2244 26.1002 58.8883 25.9143C59.6235 25.7086 60.3799 25.5771 61.1273 25.4144C62.3606 25.1454 63.2287 24.4143 63.7726 23.3029C64.5018 21.8124 64.9933 20.2386 65.0624 18.5832C65.1346 16.8505 65.0753 15.1128 65.075 13.3771C65.075 12.9489 65.0529 12.5183 65.0912 12.0934C65.1334 11.6271 65.2977 11.1653 65.7985 11.0359C66.3062 10.9043 66.7229 11.1463 67.0351 11.5694C67.9388 12.7942 68.553 14.1555 68.9598 15.6103C69.5872 17.8548 70.1946 20.1053 70.8106 22.353C70.8546 22.5134 70.8974 22.6744 70.945 22.8339C71.2857 23.9774 71.8376 24.4157 73.0323 24.5729C74.3122 24.741 75.5928 24.9139 76.8623 25.1439C78.9628 25.5245 80.9938 26.1544 82.9778 26.9367C83.8225 27.27 84.6645 27.6151 85.5257 27.9008C88.8759 29.0113 91.807 30.9166 94.7938 32.7121C95.7134 33.2646 96.5674 33.9252 97.4477 34.5412C100.338 36.5634 101.984 39.3766 102.716 42.764C102.831 43.2966 102.93 43.8355 102.991 44.3762C103.049 44.8889 102.831 45.3031 102.395 45.5941C102.355 45.6206 102.317 45.6501 102.278 45.6774C99.6425 47.5506 99.8643 47.4726 96.3994 47.7074C94.8956 47.8095 93.3851 47.816 91.8777 47.8609C90.1816 47.9115 88.4859 47.96 86.7895 48.0005C86.5779 48.0053 86.3609 47.9707 86.1528 47.9252C85.5347 47.7895 85.007 47.9642 84.5807 48.4025C84.2826 48.7087 84.0311 49.0601 83.7617 49.3934C82.9526 50.3944 82.1827 51.4293 81.3287 52.391C79.404 54.5588 76.9 55.6559 74.0761 56.0995C73.6319 56.1695 73.1655 56.1638 72.7159 56.1239C70.9318 55.9653 69.8698 54.69 70.0153 52.9091C70.1479 51.2874 70.8576 49.9028 71.8155 48.6227C72.0436 48.3177 72.3037 48.0332 72.5075 47.7131C72.8048 47.2468 72.6788 46.8959 72.1498 46.7228C71.881 46.635 71.5868 46.6201 71.3027 46.5835C68.5198 46.2261 65.7264 46.1422 62.9174 46.2946Z" fill="#1A1919"/>
<path fill-rule="evenodd" clip-rule="evenodd" d="M28 88.0394C28 88.6346 28 89.0946 28 89.6537C27.0672 89.5774 26.3354 90.1458 25.548 90.534C24.1534 91.222 22.7763 91.1175 21.4122 90.4222C20.7556 90.0873 20.1351 89.6864 19.3704 89.6644C18.5452 89.6407 17.7796 89.8167 17.0735 90.2654C16.0358 90.9253 14.9338 91.1233 13.7839 90.8878C13.2468 90.7781 12.6967 90.5966 12.2164 90.3088C10.719 89.4106 9.28385 89.4808 7.79973 90.3741C6.44589 91.189 5.01861 91.1395 3.59767 90.547C3.41661 90.4714 3.2416 90.3765 3.06659 90.2837C2.43546 89.9501 1.81733 89.5688 1.04293 89.6616C1.02571 89.3731 1.00092 89.1335 1.00001 88.8942C0.999408 88.627 1.02057 88.3598 1.03326 88.0655C1.96242 87.9211 2.74135 88.2711 3.48613 88.7274C4.02688 89.0589 4.58516 89.2807 5.19694 89.3439C5.99038 89.4258 6.72549 89.2432 7.43006 88.8151C8.24557 88.3193 9.09282 88.0019 10.0528 88.0146C10.9288 88.0259 11.7282 88.2453 12.4785 88.7102C13.8356 89.5499 15.1768 89.5953 16.5515 88.7583C18.3122 87.6859 20.0665 87.7763 21.8024 88.8691C22.9459 89.5891 24.1093 89.5193 25.283 88.9502C25.8793 88.661 26.4781 88.3739 27.0914 88.138C27.3513 88.038 27.6515 88.0724 28 88.0394Z" fill="#1A1919"/>
<path fill-rule="evenodd" clip-rule="evenodd" d="M99 89.6662C99 89.0888 99 88.6004 99 88.0289C99.2595 88.0289 99.5075 87.9669 99.7185 88.0406C100.339 88.2573 100.969 88.4709 101.552 88.7897C102.81 89.4765 104.049 89.589 105.315 88.8576C106.162 88.3681 107.02 88.0088 108.01 88.0109C108.892 88.0126 109.692 88.2276 110.443 88.6921C111.803 89.5326 113.151 89.5963 114.529 88.7651C116.323 87.6827 118.094 87.7692 119.86 88.895C120.924 89.5734 122.042 89.5035 123.151 89.0154C123.466 88.877 123.754 88.663 124.061 88.4986C124.659 88.1774 125.282 87.9939 126 88.1036C126 88.6 126 89.0829 126 89.661C125.103 89.5987 124.382 90.1387 123.608 90.5164C122.194 91.2073 120.787 91.1433 119.395 90.4177C118.804 90.1096 118.24 89.742 117.563 89.6745C116.662 89.5845 115.829 89.8002 115.047 90.2824C114.215 90.7947 113.346 91.01 112.395 90.9647C111.628 90.9283 110.918 90.757 110.236 90.3558C109.592 89.9778 108.941 89.6718 108.174 89.6669C107.419 89.6624 106.735 89.8286 106.084 90.2263C104.426 91.2419 102.763 91.2201 101.078 90.3104C100.447 89.9698 99.8272 89.5613 99 89.6662Z" fill="#1A1919"/>
<path fill-rule="evenodd" clip-rule="evenodd" d="M24 83.0483C24 83.6076 24 84.0731 24 84.4738C23.4491 84.838 22.9519 85.1731 22.4486 85.4969C21.3541 86.2015 20.2706 86.1525 19.2012 85.4194C19.1811 85.4058 19.1613 85.3913 19.1437 85.3744C18.2299 84.4708 17.3303 84.5095 16.3583 85.3131C15.7076 85.8515 14.9402 86.0925 14.106 85.9677C13.6056 85.8925 13.1694 85.6846 12.7579 85.3601C12.4731 85.1346 12.172 84.9138 11.8499 84.7767C11.3941 84.583 10.9302 84.6502 10.5044 84.9413C10.2249 85.1323 9.95383 85.3403 9.66846 85.5194C8.64486 86.1624 7.62506 86.1488 6.60613 85.4896C6.18216 85.2154 5.74068 84.976 5.31467 84.7052C5.20204 84.6337 5.0401 84.5128 5.0328 84.4032C5.00216 83.9427 4.93476 83.4629 5.17169 83C5.79262 83.1314 6.284 83.4841 6.78937 83.796C7.01405 83.9347 7.22472 84.1056 7.45553 84.2284C8.04961 84.544 8.62065 84.493 9.18701 84.0983C9.64249 83.7811 10.1137 83.4864 10.6001 83.2357C11.1061 82.9748 11.6375 82.9354 12.1528 83.2454C12.5639 83.4927 12.9919 83.7109 13.3806 83.998C14.0996 84.5294 14.787 84.6022 15.5314 84.044C15.9761 83.7106 16.475 83.4679 16.955 83.1977C17.3991 82.9477 17.8704 82.9401 18.313 83.1589C18.8231 83.4112 19.3299 83.691 19.7979 84.0297C20.5312 84.5608 21.2268 84.5767 21.9546 84.0384C22.5562 83.593 23.1535 83.1202 24 83.0483Z" fill="#1A1919"/>
<mask id="mask0" mask-type="alpha" maskUnits="userSpaceOnUse" x="0" y="0" width="130" height="99">
<path fill-rule="evenodd" clip-rule="evenodd" d="M0.0175781 0.0170879H129.74V98.9821H0.0175781V0.0170879Z" fill="white"/>
</mask>
<g mask="url(#mask0)">
<path fill-rule="evenodd" clip-rule="evenodd" d="M103.128 84.0393C103.126 83.5997 103.011 83.1507 103.277 82.6934C103.875 82.7461 104.341 83.0918 104.843 83.3422C105.033 83.4373 105.2 83.579 105.387 83.6837C106.094 84.0785 106.776 84.0833 107.469 83.611C107.88 83.3314 108.331 83.1035 108.783 82.8947C109.326 82.6447 109.89 82.6148 110.437 82.9019C110.879 83.1343 111.329 83.3571 111.75 83.6242C112.444 84.0657 113.105 84.1078 113.815 83.6409C114.27 83.3413 114.774 83.1121 115.268 82.8759C115.815 82.6136 116.366 82.6174 116.91 82.9159C117.41 83.1899 117.927 83.4331 118.419 83.719C119.064 84.0938 119.676 84.0594 120.308 83.6843C120.818 83.3816 121.347 83.1092 121.877 82.8442C122.039 82.7634 122.236 82.7535 122.49 82.694C122.49 83.1872 122.49 83.6242 122.49 84.0268C121.978 84.3226 121.484 84.6031 120.995 84.8912C119.835 85.574 118.644 85.5997 117.573 84.8074C116.582 84.0752 115.721 84.0226 114.722 84.7506C113.994 85.2809 113.139 85.5375 112.218 85.3048C111.901 85.2249 111.588 85.1083 111.292 84.9671C111.058 84.855 110.857 84.6761 110.638 84.5325C109.951 84.0848 109.261 84.0429 108.569 84.5212C108.471 84.5891 108.369 84.6507 108.27 84.7171C107.01 85.5587 105.749 85.6018 104.463 84.7572C104.05 84.4856 103.59 84.2849 103.128 84.0393Z" fill="#1A1919"/>
<path fill-rule="evenodd" clip-rule="evenodd" d="M125.191 23.434C124.882 23.6368 124.479 24.0319 124.026 24.6271C123.961 24.6908 123.913 24.7656 123.884 24.8107C123.743 25.0338 124.745 25.661 124.905 25.4929C124.925 25.463 124.983 25.3736 125.052 25.228C125.191 24.9372 125.506 24.0187 125.534 23.9736C125.555 23.9024 125.567 23.8043 125.57 23.6795C125.568 23.4451 125.33 23.3757 125.191 23.434ZM129.581 20.6485C128.469 23.4516 127.851 24.9229 127.792 25.0539C127.982 25.3772 128.17 25.7011 128.357 26.0256C128.415 26.1312 128.417 26.241 128.357 26.3289C128.286 26.4306 128.193 26.4521 128.074 26.4345C127.807 26.3929 127.54 26.3522 127.274 26.3131C126.119 29.03 125.503 30.4418 125.441 30.571C125.232 31.0531 125.032 31.3031 124.828 31.3121C124.588 31.3357 123.43 30.477 123.294 30.3894C123.135 30.2614 123.054 30.1645 123.025 30.0598C122.952 29.8403 123.082 29.6067 123.326 29.0869C123.438 28.8419 123.538 28.6526 123.582 28.5111C123.662 28.352 124.097 27.6156 123.497 27.2023C123.42 27.1308 123.368 27.097 123.368 27.097C122.462 26.5105 122.301 26.4551 121.716 27.1556C121.623 27.2648 121.282 27.6159 120.712 28.2228C120.52 28.4163 120.318 28.4357 120.078 28.2868C119.538 27.9718 119.091 27.7 118.738 27.4673C118.264 27.1622 118.574 26.9133 118.906 26.512C120.555 24.6845 121.59 23.5476 122.019 23.0811C122.046 23.0356 122.092 23.0006 122.101 22.9859C121.954 22.7509 121.806 22.5161 121.657 22.2819C121.575 22.1703 121.556 22.0767 121.62 21.9699C121.674 21.8781 121.774 21.8344 121.911 21.8545C122.288 21.8877 122.666 21.923 123.046 21.9604C124.59 20.3255 125.715 19.1432 126.399 18.4191C126.821 17.9926 127.031 17.9965 127.641 18.3835C128.218 18.7508 128.793 19.1238 129.365 19.5024C129.544 19.6418 129.675 19.7719 129.721 19.8664C129.784 20.0584 129.682 20.3746 129.581 20.6485ZM122.961 15.8822C122.833 15.9722 122.648 16.0709 122.464 16.1705C121.978 16.4448 120.768 17.0818 118.939 18.1445C118.589 18.3377 118.447 18.4218 118.491 18.3853C118.205 18.5534 118.08 18.7882 118.084 19.0941C118.08 19.4151 118.079 19.8191 118.051 20.3109C117.959 22.0647 117.823 23.9245 117.657 25.88C117.647 26.0591 117.619 26.2278 117.575 26.3866C117.538 26.5299 117.381 26.6023 117.224 26.5526C116.928 26.4228 116.859 26.3822 116.319 26.0753C116.156 25.9832 115.993 25.8913 115.83 25.8001C115.341 25.5674 115.11 25.1989 115.17 24.6648C115.186 24.5924 115.223 24.2284 115.275 23.5297C115.357 22.3432 115.397 21.6412 115.398 21.4612C115.412 21.1675 115.385 20.9521 115.342 20.8091C115.299 20.6662 115.097 20.5606 114.957 20.6073C114.728 20.6883 114.549 20.8561 114.403 21.1405C114.42 21.1088 114.152 21.6302 113.591 22.6797C113.41 23.0326 113.229 23.3855 113.048 23.7382C112.85 24.0361 112.695 24.0755 112.342 23.9347C112.005 23.7621 111.649 23.5832 111.319 23.399C111.015 23.2483 110.963 23.0843 111.085 22.7879C111.114 22.6833 111.207 22.4915 111.347 22.2044C111.997 20.8684 112.648 19.5326 113.299 18.1966C113.108 17.951 112.916 17.706 112.723 17.4617C112.659 17.3519 112.632 17.2607 112.678 17.1644C112.732 17.0522 112.819 17.0154 112.945 16.9972C113.257 16.996 113.57 16.9972 113.882 16.9993C114.546 15.6366 115.21 14.2739 115.873 12.9116C116.115 12.4169 116.254 12.0289 116.74 12.25C117.186 12.4513 117.623 12.6717 118.07 12.9214C118.518 13.1712 118.3 13.4987 118.105 13.8779C117.997 14.0885 117.889 14.2997 117.781 14.5099C117.53 14.9998 117.365 15.2744 117.31 15.6662C117.276 15.8283 117.483 15.9955 117.686 15.9824C117.815 15.9695 118.032 15.8828 118.291 15.7183C118.497 15.6067 118.784 15.4371 119.144 15.2269C119.56 15.0064 119.831 14.8297 120.012 14.7256C120.423 14.524 120.664 14.3116 121.026 14.489C121.776 14.8398 122.42 15.2035 122.938 15.5615C123.065 15.6552 123.081 15.808 122.961 15.8822ZM109.887 11.3351C109.382 11.0805 109.086 11.1116 108.837 11.4885C108.364 12.2362 107.592 13.7733 109.111 13.979C109.393 14.0227 109.617 13.985 109.805 13.8732C110.127 13.665 110.374 13.3668 110.531 13.0088C110.563 12.8284 110.594 12.6487 110.626 12.4683C110.645 11.9919 110.413 11.5983 109.887 11.3351ZM106.489 17.0917C105.985 18.3066 105.792 18.5124 106.427 18.8199C106.996 19.0807 107.454 19.0876 107.833 18.8273C108.441 18.3964 108.773 17.8053 108.774 17.0292C108.788 16.4328 108.203 15.7317 107.576 15.7183C106.963 15.7296 106.952 15.9767 106.489 17.0917ZM111.437 15.7356C111.027 15.919 110.97 16.0491 111.135 16.4965C111.455 17.31 111.393 18.1263 110.998 18.9216C110.881 19.122 110.738 19.4276 110.565 19.7979C110.283 20.4502 109.78 20.8998 109.053 21.189C107.486 21.8311 106.766 21.2778 103.298 19.8383C103.097 19.7584 102.969 19.6511 102.91 19.5323C102.832 19.3493 102.928 19.101 103.14 18.5543C103.675 17.1737 104.21 15.7933 104.744 14.4127C104.536 14.1851 104.326 13.9581 104.115 13.7317C104.023 13.6207 104.009 13.5394 104.047 13.4395C104.091 13.3231 104.155 13.2717 104.297 13.2498C104.606 13.2217 104.915 13.1954 105.225 13.1703C105.79 11.7125 106.355 10.2547 106.92 8.79694C107.073 8.39945 107.211 8.16675 107.318 8.13266C107.587 8.04981 108.029 8.2514 109.573 8.90821C110.103 9.12864 110.53 9.31019 110.862 9.43371C111.824 9.82762 112.501 10.3833 112.945 11.1128C113.844 12.6203 113.207 14.9744 111.437 15.7356ZM99.0155 7.93166C98.9633 8.02678 98.9102 8.19636 98.8252 8.46764C98.2492 10.3104 97.6728 12.1534 97.0968 13.9961C96.9903 14.3353 96.9301 14.5958 96.9644 14.7552C97.0547 15.546 98.1448 15.919 98.7128 15.362C98.8396 15.2361 98.9511 15.0298 99.0414 14.7603C99.675 12.8616 100.309 10.9624 100.942 9.06373C101.021 8.82775 101.042 8.62885 101.037 8.43953C100.988 7.50067 99.4275 7.10736 99.0155 7.93166ZM103.441 10.0122C103.174 10.753 102.908 11.4945 102.641 12.2353C102.858 12.4587 103.073 12.6828 103.287 12.9077C103.386 13.0013 103.395 13.0991 103.351 13.2158C103.314 13.3159 103.251 13.3677 103.11 13.391C102.802 13.4224 102.496 13.455 102.191 13.4894C101.951 14.177 101.71 14.8647 101.47 15.5526C101.404 15.7365 101.19 16.1502 100.793 16.7815C100.721 16.9251 100.598 17.0322 100.45 17.1488C98.2119 18.7272 95.2434 17.6199 94.6086 15.2254C94.4896 14.7827 94.5215 14.3113 94.6793 13.7649C94.9196 12.934 95.1593 12.1034 95.3996 11.2725C95.1733 11.065 94.9464 10.858 94.7183 10.6516C94.6181 10.5493 94.5973 10.4698 94.6259 10.3672C94.6593 10.2475 94.7186 10.1898 94.8576 10.1554C95.1605 10.0998 95.4646 10.0454 95.7693 9.99212C96.1498 8.75178 96.3907 7.84134 96.5291 7.36339C96.778 6.34527 97.6016 5.65377 99.0331 5.3128C99.3303 5.23683 99.5871 5.22397 99.8694 5.27601C101.586 5.59544 102.572 6.14338 103.204 7.11663C103.842 8.07643 103.759 9.12654 103.441 10.0122ZM95.3269 4.95538C95.2333 5.29844 95.1635 5.55567 95.1053 5.68697C95.0633 5.8413 94.9938 5.93282 94.9127 5.98427C94.7144 6.05904 94.4246 5.98038 94.0516 5.88138C93.6366 5.77131 93.2042 5.6415 92.9031 5.78507C92.6058 5.91129 92.5536 6.20978 92.3852 6.88185C92.2152 7.55959 92.045 8.23794 91.8753 8.91568C92.1353 9.13402 92.3935 9.35356 92.6506 9.57339C92.7331 9.6685 92.7752 9.75315 92.7483 9.85633C92.717 9.97687 92.6347 10.0469 92.5214 10.0726C92.1914 10.1393 91.8622 10.2075 91.5339 10.2778C91.1767 11.7026 90.8198 13.1275 90.4626 14.5521C90.3073 15.173 90.264 15.5831 89.8013 15.5041C89.3039 15.3991 88.8296 15.2849 88.3772 15.1611C87.8874 15.0292 88.0576 14.6314 88.1763 14.1112C88.509 12.6502 88.8418 11.1888 89.1742 9.72772C88.902 9.50729 88.628 9.28776 88.3525 9.06942C88.2636 8.99524 88.2419 8.89953 88.2684 8.7781C88.2911 8.67372 88.3465 8.6133 88.4628 8.56604C88.8054 8.48379 89.1492 8.40334 89.4939 8.32438C89.6611 7.5907 89.8281 6.85702 89.9951 6.12364C90.1293 5.53473 90.1808 5.30891 90.0321 5.09327C89.8669 4.85519 89.4489 4.76067 89.0305 4.67005C88.8 4.6195 88.6331 4.58391 88.5526 4.54862C88.1381 4.44244 88.009 4.32519 88.0597 3.97256C88.1146 3.60258 88.1969 3.2027 88.3009 2.80669C88.3292 2.66732 88.4145 2.57609 88.4897 2.53721C88.6855 2.45137 88.9342 2.53931 89.4238 2.64578C91.1269 3.01576 92.8235 3.42462 94.5129 3.87117C95.5049 4.13557 95.546 4.15052 95.3269 4.95538ZM85.8345 2.89971C85.5566 4.39638 85.2793 5.89364 85.0017 7.3906C85.2486 7.57515 85.4946 7.76088 85.7397 7.94692C85.8276 8.03665 85.875 8.1183 85.8512 8.24033C85.8306 8.34501 85.7561 8.40304 85.6422 8.45298C85.3467 8.53434 85.0521 8.61719 84.7587 8.70093C84.4856 10.1746 84.2125 11.6482 83.9391 13.1218C83.8356 13.6814 83.8305 14.1313 83.2241 14.0924C83.0007 14.052 82.7771 14.0122 82.5535 13.9731C81.4795 13.7876 81.4595 13.7891 81.614 12.8404C81.8209 11.5716 82.0272 10.3032 82.2341 9.03442C82.2941 8.66594 82.3141 8.41709 82.2759 8.26665C82.2094 8.03964 81.9539 7.94453 81.7994 8.13595C81.6879 8.3163 81.577 8.49665 81.4664 8.67731C81.5248 8.59745 80.7937 9.84646 79.4022 12.5018C79.358 12.5793 79.3145 12.6567 79.2704 12.7345C79.1946 12.8494 79.1633 12.9346 79.1338 13.0022C78.8646 13.5199 77.9972 13.2765 77.5336 13.2196C76.5112 13.0931 76.4572 13.0554 76.5642 12.1184C76.7387 10.5939 76.9131 9.06942 77.0872 7.54524C76.8388 7.37924 76.589 7.21444 76.3385 7.05024C76.2237 6.96649 76.1698 6.88902 76.1808 6.78314C76.1939 6.65932 76.2625 6.59531 76.3934 6.53759C76.6743 6.43111 76.9563 6.32523 77.239 6.22085C77.4164 4.67304 77.5932 3.12493 77.7703 1.57682C77.8168 1.17095 77.824 0.723807 78.279 0.759698C78.6067 0.762689 78.9519 0.804861 79.3181 0.85152C80.3742 0.988505 80.4118 1.03337 80.294 1.89506C80.3035 1.82477 80.1309 3.09263 79.7934 5.71927C79.7144 6.30041 79.6866 6.35036 79.7638 6.70179C79.7761 6.91863 80.0772 6.9967 80.2096 6.80049C80.2603 6.73589 80.3137 6.65364 80.37 6.55404C80.661 5.94867 81.749 3.90018 82.2368 3.02354C82.3033 2.8722 82.4238 2.65715 82.5738 2.39305C82.7512 2.09695 82.8728 1.8825 82.9351 1.76615C83.0598 1.53435 83.2729 1.44253 83.5303 1.4847C84.2101 1.59656 84.8884 1.71441 85.5664 1.83823C86.0557 1.9459 85.935 2.35805 85.8345 2.89971ZM75.7368 1.34263C75.7025 1.69646 75.6769 1.96205 75.6417 2.10143C75.6265 2.26055 75.5734 2.36254 75.5031 2.42744C75.3212 2.53482 75.0242 2.5064 74.6423 2.47261C74.2174 2.43462 73.7725 2.38049 73.5009 2.5731C73.2313 2.74777 73.2299 3.05105 73.1768 3.74196C73.1234 4.43885 73.07 5.13604 73.0167 5.83322C73.3077 6.00401 73.5975 6.17628 73.8858 6.34946C73.9824 6.42902 74.0379 6.50529 74.0283 6.61146C74.0179 6.73529 73.9493 6.81844 73.8423 6.8627C73.5301 6.98503 73.2191 7.10856 72.9093 7.23298C72.7969 8.69794 72.6848 10.1629 72.5727 11.6282C72.5238 12.2658 72.55 12.6771 72.0831 12.6786C71.5786 12.6591 71.0944 12.6274 70.6305 12.582C70.1277 12.535 70.2285 12.1142 70.2577 11.5815C70.3403 10.0851 70.4226 8.58847 70.5046 7.09181C70.2005 6.92073 69.8955 6.75084 69.5884 6.58245C69.4888 6.52443 69.4518 6.4335 69.4572 6.30938C69.4622 6.2029 69.5061 6.13381 69.6125 6.06741C69.9351 5.92834 70.2589 5.79045 70.5836 5.65407C70.6248 4.90304 70.6659 4.15172 70.7077 3.4007C70.7408 2.79742 70.7536 2.56652 70.572 2.37869C70.3699 2.17172 69.9441 2.15018 69.518 2.13104C69.2839 2.12057 69.114 2.11399 69.0296 2.09276C68.6044 2.05806 68.4586 1.96445 68.4494 1.60853C68.441 1.23466 68.4553 0.826097 68.4911 0.418432C68.4959 0.276064 68.5645 0.171979 68.6316 0.120834C68.809 0.00299108 69.0681 0.0478551 69.566 0.0693899C71.2986 0.145958 73.0301 0.260212 74.7589 0.413048C75.7744 0.50487 75.8173 0.512348 75.7368 1.34263ZM58.5214 4.05122C58.4456 2.57879 58.6624 2.21 57.8964 2.25158C56.5562 2.32904 56.2136 2.62724 56.2759 3.79699C56.2896 4.18821 56.303 4.57912 56.317 4.97004C56.3194 5.00533 56.3454 5.07472 56.3737 5.1797C56.5872 5.82365 57.3308 6.16372 58.0822 5.96183C58.4275 5.85326 58.5834 5.66782 58.5679 5.36604C58.5658 5.33045 58.5613 4.83216 58.5214 4.05122ZM61.9073 6.46999C61.6369 6.60638 61.3677 6.74337 61.0993 6.88185C61.1437 8.39227 61.1879 9.90209 61.232 11.4122C61.2493 11.9987 61.339 12.422 60.8161 12.4567C60.3515 12.4902 59.8864 12.509 59.4397 12.512C58.8962 12.5204 58.9525 12.1094 58.9254 11.5764C58.883 10.7422 58.8407 9.90778 58.7981 9.0736C58.7498 8.52507 58.7665 8.04233 58.1761 8.00375C57.5851 7.96636 57.5127 8.43504 57.4539 8.7769C57.357 9.26383 57.2619 9.75075 57.168 10.2383C57.0162 10.9429 56.9131 11.4311 56.8728 11.7014C56.7905 12.2063 56.7616 12.6176 56.34 12.7031C55.7034 12.7872 55.1241 12.8371 54.5969 12.8326C54.3825 12.8347 54.251 12.687 54.2728 12.5063C54.2776 12.3451 54.2961 12.1291 54.3524 11.8917C54.7037 9.9661 54.9669 8.73084 55.0999 8.14911C55.1843 7.69628 55.0934 7.32869 54.7821 7.05233C54.3581 6.66112 54.1133 6.25554 54.0757 5.84818C53.9064 4.22171 53.8497 3.60228 53.8271 3.12254C53.7334 1.50803 55.5818 0.240471 57.951 0.112758C58.1892 0.0998974 58.4274 0.0876346 58.6657 0.0756708C59.9219 0.0161512 60.5498 -0.0349938 60.7493 0.117843C60.8605 0.203384 60.9115 0.468381 60.9243 0.912535C60.9699 2.46423 61.0152 4.01563 61.0608 5.56733C61.3402 5.69564 61.6184 5.82455 61.8957 5.95466C62.0001 6.0058 62.0633 6.09344 62.0657 6.19991C62.0683 6.32434 62.0081 6.39672 61.9073 6.46999ZM48.9506 6.27618C48.9458 6.24119 48.899 5.74529 48.7928 4.97064C48.5919 3.50986 48.777 3.12373 48.0158 3.23141C46.6845 3.42343 46.3679 3.74974 46.5298 4.91022C46.5766 5.29874 46.6234 5.68727 46.6702 6.07549C46.6759 6.11078 46.7075 6.17748 46.7447 6.27977C47.0125 6.90308 47.7841 7.17765 48.5167 6.91146C48.8519 6.77417 48.992 6.57587 48.9506 6.27618ZM52.3768 7.09002C52.1189 7.24883 51.8619 7.40885 51.606 7.56976C51.7784 9.07061 51.951 10.5712 52.1236 12.072C52.1907 12.6553 52.316 13.0689 51.7972 13.1485C51.3365 13.2217 50.874 13.2804 50.4286 13.3219C49.8868 13.3767 49.908 12.9621 49.8358 12.4336C49.7225 11.606 49.6092 10.7784 49.4959 9.95085C49.4011 9.40829 49.3766 8.92585 48.7842 8.93812C48.1911 8.95157 48.1586 9.42504 48.1291 9.77079C48.0734 10.2643 48.02 10.7575 47.9678 11.2513C47.876 11.9664 47.8143 12.4623 47.7973 12.7345C47.7582 13.2448 47.7642 13.6569 47.3503 13.7783C46.7224 13.9168 46.1475 14.0167 45.6204 14.0577C45.4066 14.078 45.2632 13.9423 45.2697 13.7604C45.2599 13.5995 45.2602 13.3826 45.2966 13.1413C45.4838 11.1921 45.6415 9.93888 45.7253 9.34757C45.7709 8.88906 45.6493 8.53105 45.3147 8.2822C44.858 7.92867 44.5789 7.54583 44.507 7.14355C44.1996 5.53772 44.0902 4.92547 44.027 4.44932C43.7962 2.84857 45.5348 1.42608 47.8885 1.09498C48.1252 1.06178 48.362 1.02918 48.5987 0.997178C49.8475 0.829985 50.4694 0.724704 50.6814 0.860193C50.7998 0.935864 50.8731 1.19578 50.9235 1.63724C51.1009 3.17907 51.2783 4.72119 51.4558 6.26302C51.7453 6.36681 52.0339 6.47149 52.3216 6.57767C52.4296 6.61954 52.5008 6.70119 52.5119 6.80737C52.525 6.9309 52.4713 7.00836 52.3768 7.09002ZM41.9735 14.8009C41.6494 14.8712 41.4019 14.9263 41.2266 14.9478C40.7436 15.0205 40.7132 14.6272 40.607 14.1591C40.3721 13.1553 40.1365 12.1519 39.9013 11.1484C39.8342 10.8541 39.7593 10.616 39.66 10.4563C39.3905 10.0071 38.5479 10.2769 37.9802 10.4542C37.4116 10.631 37.5839 11.0656 37.7041 11.548C37.9644 12.5939 38.225 13.6402 38.4859 14.6861C38.6874 15.4975 38.6281 15.5822 37.7014 15.8227C37.0586 15.9907 36.7428 16.0963 36.5544 16.0003C36.3847 15.8992 36.3239 15.6764 36.1557 15.0591C35.7681 13.636 35.3802 12.2132 34.9926 10.7901C34.6923 10.7315 34.3912 10.6741 34.0888 10.6178C33.9752 10.5942 33.8959 10.5431 33.8622 10.4234C33.8333 10.3205 33.8691 10.2182 33.9544 10.1384C34.1839 9.932 34.415 9.72653 34.647 9.52135C34.2328 8.00135 33.8187 6.48106 33.4045 4.96107C33.2877 4.53247 33.2641 4.28093 33.3461 4.16637C33.5146 3.95222 34.7871 3.63249 35.1983 3.56669C35.7791 3.45603 35.7928 3.87506 35.9216 4.39189C36.159 5.346 36.3966 6.30041 36.6346 7.25422C36.7717 7.80634 36.8176 8.16107 37.0878 8.29506C37.3779 8.42367 38.086 8.2502 38.5983 8.05758C39.1955 7.86347 39.0333 7.33707 38.9188 6.83399C38.8016 6.31985 38.6847 5.80601 38.5676 5.29156C38.4137 4.61591 38.2953 4.09639 38.2375 3.74495C38.1391 3.31186 38.1263 3.05943 38.2127 2.94847C38.3681 2.74688 39.6502 2.48188 40.0629 2.43402C40.6464 2.34789 40.6425 2.76721 40.7355 3.21974C41.0504 4.75738 41.3652 6.29502 41.6804 7.83326C41.9789 7.91073 42.2764 7.98969 42.5731 8.06955C42.6849 8.10155 42.7625 8.17692 42.783 8.2816C42.8069 8.40363 42.7598 8.48529 42.6694 8.55767C42.4267 8.7446 42.1849 8.93273 41.9443 9.12146C42.2511 10.6187 42.5576 12.116 42.8644 13.6132C43.0535 14.5371 43.0028 14.5793 41.9735 14.8009ZM31.2524 12.707C30.9578 11.7565 29.992 11.595 29.2752 11.9461C28.9371 12.1145 28.8164 12.343 28.8873 12.6191C29.2314 13.6467 29.0904 13.2256 29.4038 14.2261C29.8722 15.6256 29.7932 16.0796 30.7771 15.6788C32.1502 15.1195 31.6144 13.8621 31.2524 12.707ZM31.5505 17.669C30.8358 17.9031 30.1232 18.1451 29.4121 18.3952C28.486 18.7227 28.4625 18.7164 28.1676 17.896C27.6347 16.4137 27.1019 14.9311 26.5691 13.4487C26.2632 13.4146 25.957 13.3817 25.6499 13.3506C25.5339 13.3366 25.451 13.2917 25.4077 13.1751C25.3708 13.0749 25.3988 12.9699 25.4781 12.8838C25.6925 12.6588 25.9075 12.4348 26.1242 12.2114C25.5956 10.7402 25.0666 9.26891 24.5377 7.79767C24.3937 7.39659 24.2196 7.04306 24.7044 6.8313C25.3329 6.5669 26.3455 6.20021 26.5837 6.28964C26.6893 6.32882 26.8193 6.51007 26.9206 6.81335C27.1857 7.60505 27.4514 8.39705 27.7164 9.18876C27.8968 9.72832 27.9326 10.1647 28.6366 10.0053C28.7424 9.98853 29.0486 9.90568 29.5111 9.75644C29.8784 9.65654 30.1706 9.6015 30.3931 9.60629C31.79 9.61467 32.9108 10.3286 33.3771 11.7281C33.4877 12.1091 33.5986 12.4902 33.709 12.8712C33.9418 13.6734 34.0653 14.1002 34.0608 14.157C34.4585 16.2758 32.6654 17.2966 31.5505 17.669ZM27.0339 19.1115C26.923 19.3212 25.6001 19.7773 25.4537 19.8383C25.2637 19.8948 25.1406 19.9059 25.0413 19.8691C24.8236 19.8036 24.7062 19.5637 24.4208 19.066C24.2846 18.8336 24.1865 18.6434 24.0961 18.5265C24.0207 18.3647 21.5322 14.3741 21.503 14.3296C21.4568 14.2716 21.384 14.2055 21.2853 14.1313C21.0942 13.9991 20.9072 14.1543 20.8777 14.3015C20.8768 14.6685 20.9541 15.2319 21.9723 19.2799C22.0096 19.4184 22.105 19.8996 22.2818 20.7131C22.3322 20.982 22.2362 21.1591 21.9824 21.2703C21.4275 21.5335 20.9579 21.7453 20.5718 21.902C20.0599 22.1171 20.0303 21.7214 19.889 21.2186C19.3228 18.8199 18.9757 17.3208 18.835 16.7023C18.8132 16.6535 18.8105 16.5961 18.8031 16.5803C18.5309 16.5665 18.2575 16.5539 17.984 16.5426C17.8475 16.5465 17.7607 16.5082 17.7094 16.3951C17.665 16.2982 17.6853 16.1908 17.7783 16.09C18.0156 15.7987 18.2548 15.5083 18.496 15.2188C18.0273 13.0157 17.6909 11.4173 17.4834 10.4423C17.3713 9.85185 17.4912 9.68136 18.1412 9.40321C18.7575 9.14 19.3756 8.88248 19.9955 8.63035C20.2066 8.56365 20.3831 8.53105 20.4847 8.5478C20.6738 8.60522 20.8733 8.87022 21.039 9.11009C22.6912 11.6261 23.5389 12.975 23.6116 13.0988C23.976 13.1287 24.3391 13.1604 24.7014 13.1939C24.8183 13.2065 24.908 13.2675 24.9453 13.3677C24.9888 13.484 24.9554 13.5726 24.8767 13.6593C24.6981 13.8537 24.5201 14.0487 24.3433 14.244C25.9009 16.7469 26.7006 18.0602 26.7713 18.1852C27.0447 18.6326 27.1374 18.9395 27.0339 19.1115ZM14.3858 19.3849C14.3697 19.3532 14.322 19.258 14.2313 19.1249C14.0509 18.8579 13.4191 18.1233 13.3947 18.0763C13.3437 18.0222 13.2662 17.9624 13.1609 17.8966C12.9591 17.7805 12.7834 17.951 12.7647 18.1008C12.7867 18.4693 12.9269 19.0173 13.2137 19.7088C13.2363 19.7973 13.2769 19.8763 13.3013 19.9235C13.4239 20.1583 14.4514 19.6086 14.3858 19.3849ZM19.31 22.3905C19.2152 22.6088 17.9223 23.1738 17.7801 23.2471C17.594 23.3188 17.4712 23.3401 17.3686 23.312C17.145 23.2647 17.009 23.035 16.6846 22.5618C16.5299 22.3411 16.4172 22.1593 16.3176 22.0504C16.2207 21.9008 15.8044 21.1537 15.1577 21.4633C15.0587 21.4938 15.0042 21.5222 15.0042 21.5222C14.0584 22.0091 13.9305 22.1216 14.243 22.98C14.291 23.1149 14.4233 23.5871 14.6625 24.3851C14.7337 24.6492 14.6505 24.8337 14.4043 24.9665C13.8673 25.2761 13.412 25.527 13.036 25.7164C12.538 25.9742 12.4781 25.5812 12.298 25.0913C11.5475 22.7437 11.0845 21.2751 10.8963 20.6695C10.8707 20.6225 10.8638 20.5657 10.8552 20.5501C10.5803 20.5597 10.3051 20.5702 10.0296 20.5818C9.89302 20.5971 9.80298 20.5663 9.74245 20.4574C9.69057 20.3647 9.70339 20.2555 9.78867 20.1469C10.0048 19.8359 10.2231 19.526 10.4431 19.2165C9.80507 17.0558 9.34619 15.488 9.06323 14.5315C8.9061 13.9515 9.01344 13.7712 9.64495 13.4389C10.2437 13.1245 10.8445 12.8156 11.4474 12.5126C11.654 12.4282 11.829 12.3807 11.9319 12.3888C12.1263 12.4309 12.3466 12.6789 12.5312 12.9047C14.381 15.2789 15.3348 16.5548 15.4171 16.6724C15.7851 16.6721 16.1521 16.6733 16.5186 16.6769C16.6363 16.6802 16.7308 16.7334 16.7762 16.8303C16.8286 16.9428 16.8018 17.034 16.7297 17.127C16.5654 17.3358 16.4017 17.5451 16.2389 17.7548C17.993 20.1239 18.8958 21.3684 18.976 21.4875C19.2846 21.9113 19.4009 22.2101 19.31 22.3905ZM7.22594 25.8208C6.05922 24.4348 4.63458 22.9186 4.60507 22.8741C4.51591 22.8256 4.42646 22.7769 4.33672 22.7284C4.12413 22.6321 3.94314 22.831 3.93688 22.9821C3.96371 23.3446 4.4527 24.5275 5.35823 26.7115C5.60899 27.3327 5.77596 27.6656 6.4519 27.2322C6.67761 27.0877 6.90362 26.9447 7.12993 26.8021C7.47818 26.5834 7.56614 26.2162 7.22594 25.8208ZM12.1185 28.9627C11.7798 29.1619 11.5437 29.3031 11.366 29.3889C10.8758 29.642 10.7419 29.2675 10.3948 28.6888C10.2762 28.4908 10.0946 28.227 10.0761 28.1968C9.63422 27.6162 9.48633 27.7996 8.23821 28.5802C7.94213 28.7662 7.64665 28.9541 7.35206 29.1434C6.28254 29.834 6.04997 29.8893 6.38243 30.5402C6.40181 30.5701 6.56103 30.8479 6.68805 31.0405C7.05896 31.6043 7.33924 31.8858 6.89766 32.2238C6.74291 32.3491 6.51243 32.504 6.18445 32.728C5.38208 33.2784 5.3472 33.2637 4.85224 32.5474C4.34059 31.8077 3.82924 31.0681 3.31789 30.3281C2.92341 29.7592 3.13511 29.4817 3.31997 29.3118C3.65541 28.9947 3.57312 28.8365 3.36351 28.3777C2.99617 27.4254 2.56621 26.3657 2.36912 25.8782C2.33931 25.8339 2.32738 25.7777 2.31754 25.7627C2.03041 25.8067 1.74268 25.8519 1.45465 25.8985C1.3008 25.9392 1.20777 25.9171 1.1377 25.8142C1.07777 25.7262 1.08105 25.6165 1.17557 25.4873C1.38488 25.1433 1.59598 24.8002 1.80947 24.4578C1.02261 22.3354 0.449538 20.8002 0.0854781 19.8712C-0.102366 19.2945 -0.00933844 19.1037 0.654974 18.6754C1.20568 18.3213 1.75848 17.9722 2.31337 17.6286C2.53341 17.5128 2.70516 17.4491 2.8286 17.4357C3.02747 17.4596 3.26958 17.6863 3.49261 17.8828C5.58722 20.0584 6.66867 21.2339 6.7614 21.3433C7.14931 21.2979 7.53662 21.2545 7.92335 21.2135C8.04172 21.206 8.15979 21.2401 8.21286 21.3326C8.27518 21.4399 8.23731 21.544 8.17261 21.6439C8.0119 21.8745 7.85268 22.1057 7.69465 22.3378C8.35032 23.1457 9.0027 23.9565 9.65121 24.7697C9.83876 25.0096 10.0248 25.044 10.3611 24.9307C10.7324 24.7967 10.9268 24.8909 11.1814 25.338C11.6275 26.1196 12.0729 26.9008 12.5184 27.6823C12.9498 28.4393 12.9489 28.4764 12.1185 28.9627Z" fill="#1A1919"/>
<path fill-rule="evenodd" clip-rule="evenodd" d="M77.2428 87.9781C77.1336 87.8372 76.989 87.7669 76.8083 87.7669C76.4824 87.7669 76.0886 88.1124 75.627 88.803C75.6175 89.2029 75.6133 89.7891 75.6133 90.5617C75.6133 90.9798 75.6085 91.3022 75.5996 91.5292C75.9255 91.4569 76.2263 91.2771 76.5027 90.9909C76.7785 90.7046 76.998 90.3502 77.1611 89.9276C77.3242 89.5047 77.4059 89.0617 77.4059 88.5984C77.4059 88.3259 77.3513 88.1193 77.2428 87.9781ZM73.0064 94.6781C72.7801 95.5054 72.6668 96.2005 72.6668 96.7643C72.6668 97.0553 72.7008 97.2778 72.7688 97.4322C72.8365 97.5868 72.9158 97.6639 73.0064 97.6639C73.2506 97.6639 73.4543 97.1301 73.6171 96.062C73.7802 94.9939 73.8842 93.6651 73.9296 92.0748C73.5404 92.9831 73.2321 93.8514 73.0064 94.6781ZM81.0986 91.1883C80.7095 91.6704 80.2906 92.0658 79.8428 92.3745C79.3943 92.6837 78.8854 92.8381 78.315 92.8381C77.8352 92.8381 77.4461 92.6655 77.1477 92.3203C76.6318 92.6565 76.093 92.8291 75.5316 92.8381C75.4141 94.592 75.147 96.0575 74.7307 97.2344C74.3142 98.4114 73.7035 99 72.8976 99C72.4089 99 72.0469 98.8226 71.8114 98.4682C71.5761 98.1141 71.4584 97.623 71.4584 96.9961C71.4584 96.1054 71.662 95.0669 72.0693 93.881C72.4766 92.6948 73.106 91.3884 73.9567 89.9617C73.9567 88.6349 73.9474 87.7125 73.9296 87.1945C73.9203 86.9307 74.0247 86.7219 74.242 86.5673C74.4591 86.4129 74.7307 86.3355 75.0566 86.3355C75.2466 86.3355 75.3843 86.3744 75.4705 86.4512C75.5566 86.5287 75.6043 86.6809 75.6133 86.9079C75.6133 87.1353 75.6175 87.3033 75.627 87.4122C75.9162 87.0491 76.2016 86.7877 76.4824 86.6283C76.7627 86.4698 77.0612 86.3899 77.3784 86.3899C77.8853 86.3899 78.2995 86.5945 78.6206 87.0034C78.942 87.4122 79.103 87.9488 79.103 88.6119C79.103 89.0937 79.0258 89.5618 78.8719 90.0161C78.7181 90.4707 78.5055 90.8841 78.2336 91.2568C78.4241 91.3112 78.5821 91.3384 78.7091 91.3384C79.0076 91.3384 79.2929 91.2295 79.5646 91.0115C79.8359 90.7932 80.1845 90.4298 80.6099 89.921C80.7185 89.7936 80.8407 89.7296 80.9764 89.7296C81.0942 89.7296 81.1869 89.7843 81.2549 89.8935C81.3226 90.0027 81.3566 90.1522 81.3566 90.343C81.3566 90.7067 81.2707 90.9885 81.0986 91.1883ZM74.5679 91.1883C74.1785 91.6704 73.7599 92.0658 73.3118 92.3745C72.8639 92.6837 72.3546 92.8381 71.7846 92.8381C71.3227 92.8381 70.9741 92.7041 70.7389 92.4361C70.5033 92.1681 70.3859 91.7796 70.3859 91.2702C70.3859 91.016 70.4491 90.5617 70.5761 89.907C70.6936 89.3348 70.7526 88.9394 70.7526 88.721C70.7526 88.576 70.7025 88.503 70.6032 88.503C70.4855 88.503 70.3182 88.6555 70.1008 88.9597C69.8838 89.2645 69.6661 89.6665 69.449 90.166C69.2317 90.6661 69.0555 91.1934 68.9195 91.7473C68.8199 92.1837 68.7045 92.4747 68.5733 92.6197C68.4418 92.7657 68.2313 92.8381 67.9418 92.8381C67.643 92.8381 67.4188 92.6948 67.2694 92.4086C67.1204 92.1223 67.0455 91.7745 67.0455 91.3659C67.0455 91.0205 67.0908 90.5207 67.1815 89.8663C67.2539 89.2845 67.29 88.9032 67.29 88.721C67.29 88.576 67.2405 88.503 67.1406 88.503C67.0053 88.503 66.8329 88.6666 66.6245 88.9938C66.4167 89.3207 66.2148 89.7392 66.0207 90.2479C65.826 90.7573 65.6698 91.2568 65.5523 91.7473C65.4524 92.1747 65.337 92.4633 65.2058 92.6132C65.0746 92.763 64.8686 92.8381 64.5883 92.8381C64.244 92.8381 64.0019 92.6565 63.8617 92.2928C63.7213 91.9294 63.6512 91.3477 63.6512 90.5479C63.6512 89.3665 63.8188 88.2443 64.1536 87.1807C64.235 86.9172 64.3683 86.7243 64.5541 86.6011C64.7398 86.4787 65.0001 86.4171 65.3346 86.4171C65.5159 86.4171 65.6427 86.4399 65.7151 86.4853C65.7876 86.5311 65.8236 86.6172 65.8236 86.7443C65.8236 86.89 65.7557 87.2169 65.62 87.726C65.5294 88.0897 65.4572 88.4058 65.4029 88.6732C65.3487 88.9418 65.303 89.2759 65.267 89.6755C65.5115 88.9666 65.8031 88.3666 66.1427 87.8761C66.4823 87.3853 66.8308 87.0195 67.188 86.7784C67.5458 86.538 67.8831 86.4171 68.2 86.4171C68.5167 86.4171 68.7406 86.4901 68.8718 86.6355C69.003 86.7808 69.0689 87.0034 69.0689 87.3033C69.0689 87.5947 68.9827 88.1211 68.8107 88.8847C68.7382 89.2119 68.6887 89.4571 68.6613 89.6207C69.1142 88.503 69.6163 87.6898 70.1688 87.1807C70.7207 86.672 71.2365 86.4171 71.7163 86.4171C72.3049 86.4171 72.5988 86.7126 72.5988 87.3033C72.5988 87.6581 72.4993 88.2984 72.3004 89.2253C72.128 90.0161 72.0425 90.5386 72.0425 90.7932C72.0425 91.1569 72.1737 91.3384 72.436 91.3384C72.617 91.3384 72.832 91.2275 73.081 91.0046C73.3302 90.7821 73.6627 90.4208 74.0792 89.921C74.1878 89.7936 74.31 89.7296 74.4457 89.7296C74.5632 89.7296 74.6562 89.7843 74.7239 89.8935C74.7921 90.0027 74.8255 90.1522 74.8255 90.343C74.8255 90.7067 74.7397 90.9885 74.5679 91.1883ZM64.4661 91.1883C64.0496 91.6704 63.622 92.0658 63.1831 92.3745C62.7439 92.6837 62.2436 92.8381 61.6827 92.8381C61.2116 92.8381 60.8815 92.6927 60.6913 92.402C60.5014 92.111 60.4063 91.6749 60.4063 91.0932C60.4063 90.8476 60.4289 90.5524 60.4743 90.2069C59.6776 90.2069 59.1254 90.1983 58.8176 90.1797C58.7995 90.4343 58.7902 90.6116 58.7902 90.7115V90.9977C58.7816 91.5612 58.7676 91.9569 58.7497 92.1837C58.7315 92.4107 58.6772 92.577 58.5866 92.6813C58.4962 92.7854 58.3468 92.8381 58.1387 92.8381C57.7946 92.8381 57.5528 92.6565 57.4124 92.2928C57.272 91.9294 57.2019 91.3477 57.2019 90.5479C57.2019 89.3665 57.3692 88.2443 57.7043 87.1807C57.7857 86.9172 57.9169 86.7243 58.0979 86.6011C58.2789 86.4787 58.5413 86.4171 58.8856 86.4171C59.0666 86.4171 59.193 86.4399 59.2658 86.4853C59.3379 86.5311 59.3743 86.6172 59.3743 86.7443C59.3743 86.89 59.3063 87.2169 59.1707 87.726C59.0982 88.0257 59.0302 88.3894 58.9667 88.8168H60.705C60.7954 88.3894 60.9266 87.8444 61.0989 87.1807C61.1711 86.9079 61.282 86.7126 61.4314 86.5945C61.5807 86.4764 61.8047 86.4171 62.1037 86.4171C62.3116 86.4171 62.4565 86.4426 62.5382 86.4922C62.6193 86.5422 62.6601 86.6355 62.6601 86.7719C62.6601 86.9992 62.5468 87.6219 62.3208 88.6391C62.0674 89.8029 61.9406 90.5207 61.9406 90.7932C61.9406 90.9657 61.9767 91.0997 62.0495 91.1954C62.1216 91.2909 62.2164 91.3384 62.3345 91.3384C62.5155 91.3384 62.7302 91.2275 62.9791 91.0046C63.2281 90.7821 63.5609 90.4208 63.9774 89.921C64.0856 89.7936 64.2082 89.7296 64.3435 89.7296C64.4613 89.7296 64.5541 89.7843 64.6223 89.8935C64.69 90.0027 64.724 90.1522 64.724 90.343C64.724 90.7067 64.6378 90.9885 64.4661 91.1883ZM54.5408 89.2119C54.8482 88.9576 55.0023 88.6621 55.0023 88.3259C55.0023 88.1534 54.9549 88.0146 54.8598 87.9099C54.7647 87.8058 54.6356 87.7532 54.4728 87.7532C54.1379 87.7532 53.8553 87.9488 53.6242 88.3394C53.3934 88.7303 53.278 89.2029 53.278 89.7571V89.7843C53.8118 89.6572 54.2328 89.4667 54.5408 89.2119ZM58.0168 91.1883C57.6816 91.5977 57.2088 91.9746 56.5978 92.3203C55.9869 92.6655 55.3327 92.8381 54.6356 92.8381C53.6853 92.8381 52.9474 92.5794 52.4223 92.061C51.8975 91.5433 51.6352 90.8341 51.6352 89.9345C51.6352 89.3073 51.766 88.7234 52.029 88.183C52.2914 87.6422 52.6558 87.2124 53.1218 86.8945C53.5878 86.5762 54.1153 86.4171 54.7036 86.4171C55.2283 86.4171 55.6493 86.5742 55.9666 86.8873C56.2829 87.2011 56.4416 87.6261 56.4416 88.1623C56.4416 88.7892 56.2177 89.3279 55.7695 89.7777C55.3217 90.2276 54.5631 90.5844 53.4954 90.8476C53.7214 91.2657 54.1514 91.4748 54.7853 91.4748C55.1926 91.4748 55.6562 91.3318 56.1768 91.0453C56.6971 90.7594 57.1479 90.3843 57.5281 89.921C57.6366 89.7936 57.7586 89.7296 57.8945 89.7296C58.012 89.7296 58.1047 89.7843 58.173 89.8935C58.2407 90.0027 58.2747 90.1522 58.2747 90.343C58.2747 90.7067 58.1882 90.9885 58.0168 91.1883ZM47.3717 95.3328C47.3717 95.5326 47.4665 95.6328 47.6567 95.6328C47.892 95.6328 48.1183 95.4602 48.3357 95.1148C48.5527 94.769 48.7021 94.3105 48.7838 93.7377C47.8422 94.3012 47.3717 94.833 47.3717 95.3328ZM52.5043 91.4135C52.45 91.5179 52.3457 91.6249 52.1921 91.7341C51.7845 92.0159 51.1327 92.4247 50.2368 92.9607C50.1187 93.5059 50.0057 93.9785 49.8971 94.3784C49.6708 95.1964 49.3357 95.8233 48.8923 96.2597C48.4487 96.6958 47.9421 96.9141 47.3717 96.9141C46.9915 96.9141 46.6767 96.7867 46.428 96.5325C46.179 96.2776 46.0547 95.9597 46.0547 95.5781C46.0547 95.2509 46.1337 94.9395 46.292 94.6446C46.4504 94.3488 46.7405 94.0192 47.1612 93.6558C47.5822 93.2924 48.1773 92.879 48.9469 92.4155V92.3879C48.6839 92.3431 48.4782 92.1905 48.3288 91.9318C48.1797 91.6725 48.1049 91.3342 48.1049 90.9158C47.96 91.5071 47.736 91.9746 47.4328 92.3203C47.1296 92.6655 46.7924 92.8381 46.4211 92.8381C46.0228 92.8381 45.6927 92.652 45.43 92.2791C45.1674 91.9067 45.0362 91.4338 45.0362 90.8617C45.0362 90.189 45.0815 89.5687 45.1721 89.0007C45.2625 88.4327 45.4118 87.8259 45.6203 87.1807C45.7106 86.8993 45.8394 86.7016 46.007 86.5879C46.1746 86.4743 46.4301 86.4171 46.7742 86.4171C46.9644 86.4171 47.1001 86.447 47.1818 86.506C47.2629 86.5649 47.3037 86.6627 47.3037 86.7991C47.3037 86.8718 47.2539 87.1173 47.1546 87.5351C47.0637 87.8716 46.9915 88.1758 46.937 88.4483C46.756 89.412 46.6656 90.0481 46.6656 90.3571C46.6656 90.5386 46.6883 90.6705 46.7336 90.7522C46.7786 90.8341 46.8511 90.8748 46.951 90.8748C47.1952 90.8748 47.4895 90.5297 47.8332 89.8394C48.1773 89.1485 48.494 88.2622 48.7838 87.1807C48.8563 86.8993 48.969 86.7016 49.1234 86.5879C49.277 86.4743 49.4988 86.4171 49.7883 86.4171C49.9967 86.4171 50.1413 86.4426 50.223 86.4922C50.3044 86.5422 50.3453 86.6355 50.3453 86.7719C50.3453 86.9896 50.232 87.5896 50.0057 88.5712C49.9061 88.9801 49.8157 89.3847 49.734 89.7843C49.6527 90.1845 49.6121 90.4707 49.6121 90.6433C49.6121 90.8159 49.6345 90.9364 49.6798 91.0046C49.7251 91.0728 49.7931 91.1066 49.8834 91.1066C49.9195 91.1066 49.9607 91.1021 50.0057 91.0932C50.051 91.0845 50.096 91.0794 50.1413 91.0794C50.2046 91.0794 50.2523 91.1117 50.2842 91.1748C50.3158 91.2385 50.3268 91.3659 50.3182 91.5568C50.8972 91.1934 51.4223 90.8341 51.8931 90.4797C51.9929 90.407 52.0967 90.3708 52.2052 90.3708C52.323 90.3708 52.4157 90.4253 52.4837 90.5345C52.5517 90.6433 52.5854 90.7884 52.5854 90.9705C52.5854 91.1614 52.5583 91.3094 52.5043 91.4135ZM97.8033 81.1085C97.2106 81.902 96.4884 82.5062 95.6369 82.921C94.7853 83.3359 93.841 83.5437 92.804 83.5437C91.7178 83.5437 90.8785 83.3547 90.286 82.977C89.6935 82.5989 89.3969 81.9884 89.3969 81.1456C89.3969 80.6129 89.5111 80.1574 89.7401 79.7793C89.9679 79.4013 90.2457 79.0914 90.5731 78.8498C90.8999 78.6084 91.3105 78.3572 91.8043 78.0969C92.3102 77.8248 92.6806 77.5858 92.9152 77.3812C93.1496 77.1769 93.2671 76.9323 93.2671 76.6469C93.2671 76.486 93.1988 76.3586 93.0631 76.2662C92.9274 76.1732 92.7301 76.1268 92.471 76.1268C92.2363 76.1268 92.0267 76.1609 91.8412 76.2288C91.6558 76.297 91.4524 76.3933 91.2303 76.5171C91.1068 76.579 90.9801 76.6377 90.8504 76.6933C90.721 76.7495 90.6006 76.7773 90.4893 76.7773C90.2547 76.7773 90.0731 76.6999 89.9434 76.5446C89.814 76.39 89.749 76.1887 89.749 75.9408C89.749 75.6061 89.9035 75.3211 90.2121 75.0854C90.4586 74.8993 90.823 74.745 91.3042 74.6206C91.7855 74.4971 92.2733 74.4351 92.767 74.4351C93.6928 74.4351 94.3932 74.5993 94.8685 74.9277C95.3438 75.2562 95.5814 75.7302 95.5814 76.3496C95.5814 76.8826 95.4702 77.3286 95.2481 77.6881C95.0259 78.0476 94.7603 78.3326 94.452 78.5432C94.1431 78.7541 93.742 78.9835 93.2483 79.2311C92.7175 79.5039 92.3287 79.7393 92.0818 79.9373C91.8347 80.1359 91.7115 80.4021 91.7115 80.7367C91.7115 81.0095 91.8102 81.2018 92.0079 81.3131C92.205 81.4247 92.5506 81.48 93.0449 81.48C93.773 81.48 94.4985 81.2978 95.2203 80.9321C95.9422 80.5666 96.5809 80.0488 97.1366 79.3795C97.2723 79.2066 97.439 79.1195 97.6367 79.1195C97.7968 79.1195 97.9235 79.194 98.0162 79.3424C98.1087 79.4913 98.1549 79.6956 98.1549 79.9558C98.1549 80.4149 98.0377 80.799 97.8033 81.1085ZM91.1191 81.1085C90.5511 81.7656 89.9679 82.3046 89.3694 82.7257C88.7707 83.1474 88.0888 83.358 87.3234 83.358C86.6815 83.358 86.231 83.1597 85.9718 82.7628C85.7127 82.3665 85.583 81.7716 85.583 80.9787C85.583 80.6437 85.6138 80.2414 85.6758 79.7704C84.5893 79.7704 83.8364 79.7581 83.4169 79.7333C83.3921 80.0799 83.3799 80.3216 83.3799 80.4577V80.848C83.3674 81.6167 83.3486 82.1559 83.3241 82.4655C83.2994 82.7751 83.2251 83.0018 83.102 83.1441C82.9783 83.2862 82.7746 83.358 82.4911 83.358C82.0218 83.358 81.6917 83.1103 81.5003 82.6142C81.3088 82.1189 81.2134 81.3257 81.2134 80.2346C81.2134 78.6239 81.4418 77.0932 81.8983 75.6435C82.0095 75.284 82.1884 75.0208 82.4356 74.853C82.6822 74.6861 83.0403 74.602 83.5093 74.602C83.7559 74.602 83.9285 74.6334 84.0275 74.6953C84.1265 74.7573 84.176 74.8748 84.176 75.0483C84.176 75.2469 84.0833 75.6931 83.8981 76.3867C83.7991 76.7959 83.7064 77.2915 83.6202 77.8738H85.9903C86.1138 77.2915 86.2924 76.5482 86.527 75.6435C86.626 75.2717 86.7772 75.0049 86.9808 74.8437C87.1842 74.6831 87.4901 74.602 87.8974 74.602C88.181 74.602 88.3786 74.6367 88.4898 74.7046C88.6008 74.7728 88.6565 74.8993 88.6565 75.0854C88.6565 75.3955 88.5021 76.2444 88.1938 77.6325C87.8479 79.2188 87.6753 80.1975 87.6753 80.5693C87.6753 80.8052 87.7242 80.9877 87.8235 81.1175C87.9218 81.2479 88.0515 81.3131 88.2123 81.3131C88.4588 81.3131 88.7519 81.1615 89.0915 80.8573C89.4312 80.554 89.8847 80.0611 90.4524 79.3795C90.6006 79.2066 90.7672 79.1195 90.9524 79.1195C91.1128 79.1195 91.2392 79.194 91.332 79.3424C91.4244 79.4913 91.4706 79.6956 91.4706 79.9558C91.4706 80.452 91.3534 80.836 91.1191 81.1085ZM82.3247 81.1085C81.7934 81.7656 81.2227 82.3046 80.6114 82.7257C80.0008 83.1474 79.3067 83.358 78.529 83.358C77.9363 83.358 77.5013 83.1289 77.2234 82.6698C76.9458 82.2116 76.8071 81.567 76.8071 80.7367C76.5972 81.5796 76.2821 82.2271 75.8629 82.6794C75.4427 83.1319 74.9925 83.358 74.511 83.358C73.9555 83.358 73.502 83.1008 73.1499 82.5863C72.798 82.0725 72.6224 81.4309 72.6224 80.6626C72.6224 79.7333 72.6844 78.8809 72.8076 78.1062C72.931 77.3319 73.1343 76.5105 73.4185 75.6435C73.5419 75.2717 73.7152 75.0049 73.9373 74.8437C74.1594 74.6831 74.511 74.602 74.9925 74.602C75.2638 74.602 75.4523 74.646 75.5569 74.7324C75.6619 74.8192 75.7144 74.949 75.7144 75.1228C75.7144 75.2224 75.6464 75.5567 75.5107 76.1268C75.3873 76.5853 75.2886 77.0002 75.2146 77.3722C74.9675 78.6733 74.8443 79.541 74.8443 79.9744C74.8443 80.2346 74.875 80.4179 74.9368 80.5229C74.9985 80.6285 75.0972 80.6808 75.2328 80.6808C75.418 80.6808 75.6497 80.4948 75.9273 80.1233C76.2052 79.7515 76.5012 79.1874 76.8161 78.4316C77.131 77.6761 77.4363 76.7462 77.7327 75.6435C77.8313 75.2717 77.9825 75.0049 78.1862 74.8437C78.3901 74.6831 78.6957 74.602 79.103 74.602C79.3866 74.602 79.5843 74.6367 79.6952 74.7046C79.8064 74.7728 79.8618 74.8993 79.8618 75.0854C79.8618 75.3955 79.7074 76.2444 79.3991 77.6325C79.0532 79.2188 78.8809 80.1975 78.8809 80.5693C78.8809 80.8052 78.9298 80.9877 79.0288 81.1175C79.1275 81.2479 79.2569 81.3131 79.4176 81.3131C79.6642 81.3131 79.9573 81.1615 80.2969 80.8573C80.6362 80.554 81.09 80.0611 81.658 79.3795C81.8059 79.2066 81.9726 79.1195 82.1577 79.1195C82.3181 79.1195 82.4449 79.194 82.5373 79.3424C82.63 79.4913 82.6762 79.6956 82.6762 79.9558C82.6762 80.452 82.559 80.836 82.3247 81.1085ZM68.3735 78.4876C68.1696 78.0661 68.0679 77.6202 68.0679 77.1491C68.0679 76.9756 68.0924 76.7403 68.1419 76.443H68.0864C67.5798 76.443 67.1573 76.6933 66.818 77.1955C66.4784 77.6974 66.3088 78.37 66.3088 79.2123C66.3088 79.9187 66.4414 80.4577 66.7068 80.8298C66.9722 81.2018 67.2837 81.3873 67.6418 81.3873C68.0247 81.3873 68.364 81.2267 68.6601 80.9042C68.9565 80.5818 69.1538 80.1173 69.2528 79.5099C68.8703 79.2493 68.5769 78.909 68.3735 78.4876ZM69.1231 68.8579C69.1231 68.4613 69.0769 68.1581 68.9842 67.9472C68.8918 67.7366 68.765 67.6314 68.6046 67.6314C68.3577 67.6314 68.0891 68.0001 67.7996 68.7374C67.5092 69.475 67.2408 70.4754 66.9939 71.7394C66.7468 73.0037 66.5616 74.3855 66.4382 75.8848C67.2533 74.3855 67.9042 73.0626 68.3917 71.9159C68.8795 70.77 69.1231 69.7504 69.1231 68.8579ZM74.0852 79.1288C73.999 79.296 73.8631 79.4106 73.6779 79.4725C72.9373 79.7333 72.123 79.8816 71.2338 79.9187C70.987 80.9476 70.5212 81.7776 69.8363 82.4099C69.1509 83.0419 68.3947 83.358 67.5679 83.358C66.321 83.358 65.414 82.8806 64.8462 81.9265C64.2782 80.9721 63.9944 79.5903 63.9944 77.7808C63.9944 76.1821 64.1918 74.4441 64.5871 72.567C64.9819 70.689 65.5592 69.0906 66.318 67.7707C67.0774 66.4505 67.9812 65.7907 69.0307 65.7907C69.5981 65.7907 70.0549 66.0357 70.4008 66.525C70.7463 67.0146 70.9193 67.6496 70.9193 68.4305C70.9193 69.4469 70.7279 70.4569 70.3453 71.4607C69.9625 72.4644 69.3268 73.5178 68.4379 74.6206C69.2651 74.6831 69.938 75.0267 70.4562 75.6524C70.9747 76.2788 71.283 77.0498 71.3817 77.9668C71.9623 77.9297 72.6531 77.8059 73.4555 77.5951C73.5297 77.5705 73.6162 77.5577 73.7152 77.5577C73.8753 77.5577 73.999 77.6387 74.0852 77.7996C74.1717 77.9609 74.2146 78.1651 74.2146 78.4128C74.2146 78.7232 74.1717 78.9613 74.0852 79.1288ZM62.6428 71.6652C62.3098 72.1483 61.8527 72.5547 61.273 72.8828C60.6925 73.2112 60.0014 73.3754 59.199 73.3754C58.6313 73.3754 58.1313 73.2579 57.6992 73.0219C57.2672 72.7868 56.9338 72.477 56.6995 72.0926C56.4648 71.7086 56.3479 71.2997 56.3479 70.8658C56.3479 70.5562 56.4463 70.305 56.644 70.1129C56.8414 69.9209 57.0943 69.8246 57.4032 69.8246C57.724 69.8246 57.9583 69.8994 58.1068 70.0477C58.255 70.1967 58.3722 70.4506 58.4587 70.8101C58.5815 71.3302 58.9214 71.5908 59.4769 71.5908C60.0568 71.5908 60.5568 71.4266 60.9767 71.0982C61.3962 70.77 61.6988 70.3705 61.8837 69.8994C61.9824 69.6514 62.0936 69.475 62.217 69.3694C62.3405 69.2644 62.5012 69.2112 62.6983 69.2112C62.8834 69.2112 63.0412 69.2827 63.1709 69.425C63.3003 69.5674 63.3653 69.7445 63.3653 69.9547L63.3283 70.1778C63.2046 70.6863 62.9762 71.1819 62.6428 71.6652ZM65.0129 81.1085C64.4819 81.7656 63.9112 82.3046 63.3003 82.7257C62.6893 83.1474 61.9949 83.358 61.2176 83.358C60.6248 83.358 60.1895 83.1289 59.9119 82.6698C59.634 82.2116 59.4954 81.567 59.4954 80.7367C59.2855 81.5796 58.9706 82.2271 58.5511 82.6794C58.1313 83.1319 57.6807 83.358 57.1995 83.358C56.644 83.358 56.1905 83.1008 55.8387 82.5863C55.4865 82.0725 55.3106 81.4309 55.3106 80.6626C55.3106 79.7333 55.3727 78.8809 55.4961 78.1062C55.6192 77.3319 55.8229 76.5105 56.107 75.6435C56.2302 75.2717 56.4034 75.0049 56.6255 74.8437C56.8477 74.6831 57.1995 74.602 57.6807 74.602C57.9521 74.602 58.1405 74.646 58.2458 74.7324C58.3501 74.8192 58.4032 74.949 58.4032 75.1228C58.4032 75.2224 58.3349 75.5567 58.1993 76.1268C58.0758 76.5853 57.9768 77.0002 57.9029 77.3722C57.656 78.6733 57.5326 79.541 57.5326 79.9744C57.5326 80.2346 57.5636 80.4179 57.6253 80.5229C57.687 80.6285 57.7857 80.6808 57.9214 80.6808C58.1068 80.6808 58.3382 80.4948 58.6158 80.1233C58.8937 79.7515 59.1898 79.1874 59.5046 78.4316C59.8195 77.6761 60.1248 76.7462 60.4212 75.6435C60.5199 75.2717 60.6713 75.0049 60.875 74.8437C61.0786 74.6831 61.384 74.602 61.7913 74.602C62.0751 74.602 62.2728 74.6367 62.3837 74.7046C62.4949 74.7728 62.5504 74.8993 62.5504 75.0854C62.5504 75.3955 62.3959 76.2444 62.0876 77.6325C61.7418 79.2188 61.5691 80.1975 61.5691 80.5693C61.5691 80.8052 61.6183 80.9877 61.7173 81.1175C61.8157 81.2479 61.9454 81.3131 62.1061 81.3131C62.353 81.3131 62.6458 81.1615 62.9854 80.8573C63.3247 80.554 63.7785 80.0611 64.3465 79.3795C64.4944 79.2066 64.6611 79.1195 64.8463 79.1195C65.0067 79.1195 65.1331 79.194 65.2258 79.3424C65.3182 79.4913 65.3648 79.6956 65.3648 79.9558C65.3648 80.452 65.2473 80.836 65.0129 81.1085ZM50.1175 76.8796C49.6792 77.2577 49.3306 77.7563 49.0715 78.3757C48.8124 78.9957 48.6827 79.6525 48.6827 80.3464C48.6827 80.7308 48.7596 81.0158 48.9141 81.2018C49.0682 81.3873 49.2811 81.48 49.5528 81.48C49.8244 81.48 50.0835 81.3194 50.3304 80.997C50.5773 80.6748 50.7565 80.2471 50.8674 79.7144L51.5526 76.294C51.0343 76.3066 50.5555 76.5016 50.1175 76.8796ZM56.4592 81.1085C55.9529 81.7402 55.4159 82.2738 54.8482 82.7075C54.2802 83.1412 53.731 83.358 53.2002 83.358C52.7929 83.358 52.4193 83.2183 52.0803 82.9393C51.7407 82.6608 51.4846 82.2795 51.3119 81.7964C50.67 82.8373 49.8614 83.358 48.8864 83.358C48.121 83.358 47.5097 83.0789 47.0532 82.5214C46.5965 81.9636 46.3684 81.2323 46.3684 80.3279C46.3684 79.3364 46.5965 78.3978 47.0532 77.5113C47.5097 76.6257 48.1177 75.9127 48.8771 75.3737C49.6362 74.8347 50.4416 74.5649 51.2935 74.5649C51.5645 74.5649 51.747 74.6179 51.8397 74.7232C51.9321 74.8284 52.009 75.0175 52.0711 75.2899C52.3302 75.2406 52.6015 75.2155 52.8857 75.2155C53.4903 75.2155 53.793 75.4329 53.793 75.8666C53.793 76.1268 53.7005 76.7462 53.5154 77.7255C53.2309 79.1504 53.0893 80.1418 53.0893 80.6997C53.0893 80.8854 53.1355 81.034 53.2282 81.1456C53.3207 81.2572 53.4411 81.3131 53.5893 81.3131C53.8234 81.3131 54.1078 81.1615 54.4409 80.8573C54.7742 80.554 55.2248 80.0611 55.7925 79.3795C55.941 79.2066 56.1073 79.1195 56.2925 79.1195C56.4526 79.1195 56.5796 79.194 56.6721 79.3424C56.7645 79.4913 56.811 79.6956 56.811 79.9558C56.811 80.452 56.6935 80.836 56.4592 81.1085ZM31.4264 80.3835C31.1178 80.3835 30.8799 80.4643 30.7135 80.6252C30.5468 80.7864 30.4633 80.9721 30.4633 81.1827C30.4633 81.6167 30.7412 81.8335 31.2967 81.8335C31.6673 81.8335 31.9664 81.7438 32.1948 81.564C32.4229 81.3843 32.5988 81.084 32.7225 80.6626C32.2285 80.4765 31.7967 80.3835 31.4264 80.3835ZM44.8498 79.0543C44.3068 80.3865 43.554 81.4372 42.5909 82.2053C41.6284 82.974 40.5422 83.358 39.3326 83.358C38.7031 83.358 38.1444 83.2958 37.6566 83.172C37.1691 83.0484 36.7093 82.8717 36.2776 82.642C35.8452 82.4132 35.2838 82.0752 34.5926 81.6289C34.2837 82.2612 33.8395 82.738 33.2592 83.0607C32.679 83.3825 31.9879 83.5437 31.1858 83.5437C30.2719 83.5437 29.6025 83.3421 29.1768 82.9393C28.751 82.537 28.5381 81.9822 28.5381 81.276C28.5381 80.5202 28.7975 79.9035 29.3157 79.4261C29.8342 78.9491 30.5313 78.7107 31.4079 78.7107C31.9017 78.7107 32.4262 78.7911 32.9816 78.9521C33.1418 77.4279 33.3549 76.1795 33.6206 75.2062C33.8857 74.2338 34.2652 73.245 34.759 72.2413C34.9316 71.8821 35.1356 71.6216 35.3702 71.4607C35.6046 71.2997 35.8947 71.219 36.2403 71.219C36.5736 71.219 36.8327 71.2872 37.0179 71.4233C37.2031 71.56 37.2958 71.7394 37.2958 71.9625C37.2958 72.1237 37.2526 72.285 37.1661 72.4456C36.8822 72.9666 36.6073 73.6608 36.3423 74.5279C36.0766 75.3955 35.87 76.2381 35.7218 77.0561L35.6109 77.6881C35.4627 78.568 35.3207 79.293 35.1848 79.8631C35.8393 80.2226 36.4904 80.5043 37.1384 80.7089C37.7863 80.9135 38.3695 81.0158 38.888 81.0158C39.7026 81.0158 40.4155 80.7493 41.0267 80.2163C41.6377 79.6836 42.1097 78.9338 42.443 77.9668C42.7761 77.0002 42.9427 75.8726 42.9427 74.5835C42.9427 72.8362 42.5539 71.5348 41.7763 70.6797C40.999 69.8246 39.8198 69.3972 38.2401 69.3972C37.2526 69.3972 36.2618 69.5459 35.2683 69.8432C34.2745 70.1405 33.3642 70.5562 32.5374 71.0889C32.3519 71.2001 32.1855 71.2561 32.0374 71.2561C31.8274 71.2561 31.6578 71.1723 31.5284 71.0051C31.3987 70.8379 31.334 70.6115 31.334 70.3265C31.334 70.0292 31.3829 69.7875 31.4822 69.6018C31.5806 69.4157 31.7472 69.2363 31.9819 69.0628C32.7717 68.5176 33.7375 68.0836 34.8795 67.7612C36.0211 67.439 37.1598 67.2781 38.2955 67.2781C40.6776 67.2781 42.5015 67.9071 43.7669 69.1648C45.0317 70.4228 45.6644 72.2413 45.6644 74.6206C45.6644 76.2444 45.3931 77.7222 44.8498 79.0543Z" fill="#1C1B1B"/>
</g>
<path fill-rule="evenodd" clip-rule="evenodd" d="M16.9245 76.8733L16.5959 76.6772V74.4349C16.5959 74.2388 16.6125 74.0255 16.4358 74.0172C16.3097 74 16.1748 74 16.0317 74C15.6191 74 15.6021 74.0172 15.6021 74.4349C15.6021 74.4008 15.6021 75.015 15.5939 76.285C15.5939 76.5667 15.6021 76.5922 15.5515 76.7542C15.5351 76.8564 15.4087 76.8733 15.3662 76.7711C15.3496 76.7371 15.3329 76.6947 15.3156 76.6431C15.2316 76.3365 14.9203 75.2875 14.7854 74.8357C14.7684 74.759 14.7347 74.6482 14.6926 74.5116C14.642 74.3582 14.6083 74.2474 14.5916 74.1875C14.558 74.0685 14.4819 74.0086 14.3809 74.0086H13.5809C13.3875 74.0172 13.4044 74.2216 13.4044 74.4858V76.6772L13.0673 76.8733C13.0252 76.9077 13 76.9418 13 77.0013C13 77.0526 13.0252 77.0866 13.0673 77.1207L13.4044 77.3171V79.4741C13.4044 79.747 13.3705 79.9599 13.6315 79.9943H13.9262C14.3979 79.9943 14.4064 79.9943 14.4064 79.534V77.6836C14.4064 77.5047 14.4146 77.3853 14.4401 77.3171C14.4819 77.2143 14.5916 77.1888 14.642 77.2917L14.7432 77.5725C14.7266 77.5304 14.9369 78.178 15.3662 79.534L15.4087 79.653C15.4338 79.7129 15.442 79.7552 15.4505 79.7893C15.5351 80.0535 15.9222 79.9943 16.1241 79.9943C16.5707 79.9943 16.5959 79.9771 16.5959 79.525V77.3171L16.9245 77.1207C16.9748 77.0866 17 77.0526 17 77.0013C17 76.9418 16.9748 76.9077 16.9245 76.8733Z" fill="#1A1919"/>
<path fill-rule="evenodd" clip-rule="evenodd" d="M114.924 74.8462C114.968 74.4961 114.997 74.3 114.997 74.2486C115.012 74.0863 114.968 74.0091 114.829 74.0091C114.698 74.0009 114.552 74.0009 114.391 74.0009C114.157 74.0091 114.127 74.0353 114.091 74.3C114.069 74.4192 114.047 74.5646 114.025 74.7525C113.966 75.2732 113.937 75.5124 113.886 75.8625C113.864 75.999 113.733 76.0165 113.696 75.8797C113.667 75.7943 113.652 75.726 113.652 75.6833C113.616 75.4272 113.543 74.8207 113.513 74.6157C113.513 74.5726 113.477 74.0178 113.257 74.0091C113.046 74.0009 112.863 74.0009 112.717 74.0091C112.614 74.0091 112.556 74.0777 112.541 74.1887C112.512 74.3593 112.475 74.667 112.417 75.1195C112.409 75.205 112.358 75.6661 112.329 75.8542C112.322 75.9566 112.256 76.0331 112.212 76.0165C112.161 75.999 112.132 75.948 112.117 75.8542C112.088 75.6578 112.029 75.1881 112.015 75.0599L111.89 74.1973C111.861 73.9581 111.781 74.0091 111.43 74.0091V74.0009H111.313C111.02 73.9922 110.962 74.0433 111.02 74.4106C111.116 75.0682 111.218 75.7429 111.349 76.7168L111.101 76.8788C111.057 76.9129 111.042 76.9473 111.042 76.9984C111.042 77.058 111.057 77.0921 111.101 77.1262L111.444 77.3571C111.554 78.1342 111.642 78.8173 111.693 79.1333L111.795 79.7911C111.832 80.0469 112.073 79.9958 112.285 79.9958C112.636 79.9958 112.658 79.9789 112.709 79.5778C112.738 79.3552 112.797 78.8858 112.877 78.1852C112.899 78.0574 112.921 77.9633 112.951 77.9292C112.994 77.8695 113.06 77.8781 113.089 77.9378C113.119 78.0491 113.148 78.2025 113.17 78.3989C113.184 78.5357 113.221 78.7573 113.272 79.0995C113.316 79.3897 113.346 79.6288 113.36 79.7997C113.375 79.919 113.426 79.9789 113.535 79.9876C113.703 79.9958 113.871 79.9958 114.025 79.9958C114.193 79.9876 114.237 79.9365 114.266 79.7312V79.6798C114.274 79.6629 114.274 79.6457 114.274 79.6288C114.413 78.5612 114.522 77.7755 114.559 77.5108L114.581 77.3571L114.924 77.1262C114.961 77.0921 114.983 77.058 114.983 76.9984C114.983 76.9473 114.961 76.9129 114.924 76.8788L114.676 76.7168L114.683 76.6482C114.713 76.469 114.778 75.948 114.924 74.8462Z" fill="#1A1919"/>
</svg>
