<?xml version="1.0" encoding="UTF-8"?>
<svg width="154px" height="154px" viewBox="0 0 154 154" version="1.1" xmlns="http://www.w3.org/2000/svg" xmlns:xlink="http://www.w3.org/1999/xlink">
    <title>Цифровой детокс</title>
    <g id="Page-1" stroke="none" stroke-width="1" fill="none" fill-rule="evenodd">
        <g id="Главная-мобилка" transform="translate(-82.000000, -5532.000000)" fill="#FFFFFF" fill-rule="nonzero">
            <g id="Цифровой-детокс" transform="translate(158.639484, 5608.982570) rotate(-10.000000) translate(-158.639484, -5608.982570) translate(92.639484, 5542.982570)">
                <g id="Group" transform="translate(15.000000, 12.000000)">
                    <path d="M72.1474827,105.78394 C72.8193778,105.503689 73.3792385,105.131479 73.8270647,104.667311 C74.2748909,104.203144 74.5894601,103.668872 74.7707722,103.064496 L74.7707722,103.064496 L73.1754769,102.481709 C72.9068652,103.313194 72.3849276,103.89062 71.609664,104.213988 C71.1297389,104.414168 70.6576125,104.487575 70.1932848,104.434211 C69.7289571,104.380846 69.3130469,104.209771 68.9455541,103.920985 C68.5780613,103.6322 68.294225,103.247845 68.0940453,102.76792 C67.8938655,102.287995 67.820458,101.815868 67.8738225,101.35154 C67.9271871,100.887213 68.0982621,100.471302 68.3870476,100.10381 C68.6758331,99.7363169 69.0601884,99.4524806 69.5401134,99.2523009 C70.315377,98.9289336 71.0913889,98.960643 71.8681492,99.3474291 L71.8681492,99.3474291 L72.5764943,97.8037791 C72.0225398,97.5147558 71.4249454,97.3652872 70.7837108,97.3553735 C70.1424763,97.3454598 69.4859115,97.4806288 68.8140164,97.7608804 C68.0166024,98.0934868 67.3701635,98.5646519 66.8746995,99.174376 C66.3792354,99.7841 66.0757999,100.469752 65.9643928,101.231332 C65.8529857,101.992913 65.9574259,102.757643 66.2777135,103.525523 C66.5980011,104.293403 67.0679227,104.905689 67.6874784,105.36238 C68.3070341,105.819071 69.0077494,106.085885 69.7896245,106.162823 C70.5714995,106.239761 71.3574522,106.113467 72.1474827,105.78394 Z M86.9126775,100.514627 L85.7375784,99.2313728 L90.1094937,95.2279317 L91.2845928,96.5111862 L92.6120975,95.2955665 L90.367253,92.8441079 L89.4999499,93.6383128 L84.8968031,88.6114952 L80.1354864,92.9715181 L81.839491,94.9745079 C82.7063509,95.9922279 83.3062045,96.8368246 83.6390519,97.5082981 C83.9718993,98.1797716 83.9578751,98.6915951 83.5969793,99.0437687 L83.5969793,99.0437687 L83.3491784,99.2706844 L85.5851729,101.730247 L86.9126775,100.514627 Z M88.083945,94.9349739 L85.3138853,97.4715671 C85.2924758,97.0572754 85.1007048,96.5576316 84.7385724,95.9726358 C84.37644,95.38764 83.8724516,94.7128839 83.2266074,93.9483675 L83.2266074,93.9483675 L82.4265361,93.021352 L84.5505435,91.0763604 L88.083945,94.9349739 Z M102.329822,80.6215775 L100.95231,79.8894149 L98.8065108,83.9265833 L97.0899195,83.0141962 L98.9203258,79.5704174 L97.5851993,78.8607829 L95.7547929,82.3045617 L94.1441641,81.4484947 L96.2167473,77.5490775 L94.8392357,76.8169149 L91.8598974,82.4223272 L99.2772672,86.3647409 L102.329822,80.6215775 Z M107.42698,70.4838919 C107.521159,69.8508594 107.398598,69.3291441 107.059297,68.9187462 C106.719995,68.5083482 106.195557,68.1735291 105.48598,67.9142888 C104.776404,67.6550484 103.835047,67.4179413 102.661911,67.2029674 L102.661911,67.2029674 L100.937813,66.8858041 L101.361621,64.0371576 L108.103418,65.0401697 L108.385957,63.1410721 L100.077404,61.9049655 L99.1273682,68.2906814 L102.480608,68.9108811 C103.628829,69.1302362 104.460418,69.3712328 104.975376,69.6338709 C105.490333,69.896509 105.713672,70.2573023 105.645392,70.7162509 C105.626556,70.8428575 105.59366,70.9552401 105.546704,71.0533989 L105.546704,71.0533989 L107.155148,71.4140162 C107.29752,71.0550593 107.388131,70.7450179 107.42698,70.4838919 Z M109.559532,50.4467088 L107.646633,50.0801661 L106.861788,46.2599543 L108.475239,45.1689393 L108.064704,43.1706746 L100.592422,48.5402679 L100.978807,50.4209875 L109.960407,52.3979555 L109.559532,50.4467088 Z M105.539145,47.1564673 L106.075255,49.7659659 L102.656995,49.1084119 L105.539145,47.1564673 Z M104.507989,31.0654946 L101.587868,32.8914259 L99.5647102,29.6558903 L102.484832,27.829959 L101.454167,26.1816673 L94.3319188,30.6351583 L95.3625838,32.28345 L98.1707845,30.5275021 L100.193942,33.7630377 L97.3857412,35.5189856 L98.4164062,37.1672773 L105.538654,32.7137863 L104.507989,31.0654946 Z M91.8331371,13.8754519 C91.1413184,13.3446309 90.4048732,13.0165326 89.6238016,12.891157 C88.8427299,12.7657814 88.092636,12.8431577 87.3735198,13.1232861 C86.6544036,13.4034145 86.0440448,13.8703472 85.5424433,14.5240841 C85.0408419,15.1778211 84.7478311,15.8882496 84.6634109,16.6553697 C84.5789908,17.4224898 84.6984305,18.1670448 85.02173,18.8890347 C85.3450294,19.6110246 85.8525885,20.2374301 86.5444072,20.768251 C87.2362259,21.299072 87.9742578,21.6283878 88.758503,21.7561984 C89.5427481,21.884009 90.292842,21.8066326 91.0087847,21.5240692 C91.7247274,21.2415059 92.3334995,20.7733557 92.835101,20.1196188 C93.3367024,19.4658819 93.6313,18.7566708 93.7188936,17.9919857 C93.8064872,17.2273006 93.6870475,16.4827455 93.3605746,15.7583207 C93.0341016,15.0338958 92.5249558,14.4062728 91.8331371,13.8754519 Z M90.8250643,15.1892727 C91.2185758,15.4912076 91.5046093,15.8543671 91.6831647,16.2787513 C91.8617201,16.7031356 91.9172591,17.1465715 91.8497817,17.6090591 C91.7823043,18.0715467 91.5902933,18.5090668 91.2737487,18.9216192 C90.9572041,19.3341716 90.5843047,19.632899 90.1550506,19.8178014 C89.7257964,20.0027037 89.283099,20.0638512 88.8269584,20.0012437 C88.3708177,19.9386362 87.9459916,19.7563651 87.55248,19.4544302 C87.1589685,19.1524953 86.872935,18.7893358 86.6943796,18.3649516 C86.5158242,17.9405673 86.4602852,17.4971314 86.5277626,17.0346438 C86.59524,16.5721562 86.787251,16.1346361 87.1037956,15.7220837 C87.4203402,15.3095313 87.7932396,15.0108039 88.2224937,14.8259015 C88.6517479,14.6409992 89.0944453,14.5798517 89.550586,14.6424592 C90.0067266,14.7050667 90.4315527,14.8873379 90.8250643,15.1892727 Z M62.5169252,0.151698844 C61.4709204,0.0870607906 60.653626,0.244952695 60.0650419,0.625374556 C59.4764579,1.00579642 59.1592218,1.56729911 59.1133337,2.30988263 C59.0822482,2.81292308 59.191838,3.24450398 59.4421031,3.60462534 C59.6923682,3.96474669 60.0683258,4.23645213 60.5699761,4.41974163 C60.1833433,4.58020057 59.8764798,4.81171476 59.6493857,5.11428421 C59.4222916,5.41685366 59.2959156,5.77574238 59.2702578,6.19095037 C59.2273302,6.88562528 59.4657532,7.43738109 59.9855268,7.84621781 C60.5053003,8.25505453 61.252258,8.48957153 62.2263998,8.5497688 L62.2263998,8.5497688 L66.1309519,8.79105131 L66.6490431,0.407043826 L62.5169252,0.151698844 Z M62.6087178,5.0867561 L64.4172679,5.19851579 L64.2914458,7.23463189 L62.4828956,7.1228722 C62.0676876,7.09721435 61.7557207,6.98976843 61.5469948,6.80053446 C61.3382689,6.61130048 61.244021,6.35299573 61.2642513,6.0256202 C61.2849749,5.6902599 61.4084354,5.44340466 61.6346327,5.28505447 C61.86083,5.12670428 62.185525,5.06060483 62.6087178,5.0867561 L62.6087178,5.0867561 Z M62.4999724,1.59339805 L64.6319058,1.72514126 L64.5009027,3.84509744 L62.3689694,3.71335423 C61.4587057,3.65710432 61.0250376,3.28164191 61.0679652,2.58696701 C61.112373,1.86833779 61.5897088,1.53714814 62.4999724,1.59339805 L62.4999724,1.59339805 Z M34.4402806,3.32608098 L34.6984071,5.2566008 L31.3233845,7.21088403 L29.7775572,6.02599843 L28.0121608,7.04823889 L35.4717925,12.4353931 L37.1333421,11.4732844 L36.1641383,2.32789324 L34.4402806,3.32608098 Z M32.5926245,8.18152811 L34.8980245,6.84660233 L35.3568565,10.2971607 L32.5926245,8.18152811 Z M17.621062,14.2200533 L19.3862389,15.7193887 L18.2908695,17.0089739 C17.8092177,17.5760255 17.4839936,18.1473654 17.3151971,18.7229935 C17.1464006,19.2986216 17.1414881,19.848134 17.3004597,20.3715307 C17.4594312,20.8949273 17.7736641,21.3560191 18.2431585,21.7548061 C18.7187502,22.1587721 19.2261324,22.3955575 19.765305,22.4651623 C20.3044777,22.534767 20.8459552,22.4410111 21.3897374,22.1838947 C21.9335197,21.9267782 22.4462367,21.5146942 22.9278885,20.9476425 L22.9278885,20.9476425 L25.2817674,18.1764063 L18.8795716,12.7384023 L17.621062,14.2200533 Z M19.5680579,17.9521121 L20.5935101,16.7448409 L22.8159867,18.6326052 L21.7905345,19.8398764 C21.4124637,20.2849814 21.0289934,20.5418132 20.6401236,20.6103715 C20.2512537,20.6789299 19.8769476,20.5604271 19.5172052,20.2548631 C19.1635601,19.9544781 18.9891066,19.6068663 18.9938446,19.2120276 C18.9985827,18.817189 19.1899871,18.3972172 19.5680579,17.9521121 L19.5680579,17.9521121 Z M6.65703586,28.6225296 L9.81081531,29.8493675 L9.32356055,31.1019324 L5.37799211,31.9105125 L4.57750215,33.9682976 L9.65268619,32.9038415 L12.4364861,36.9353546 L13.1804197,35.0229564 L10.8159466,31.7339829 L11.3206033,30.4366835 L14.4855664,31.6678719 L15.1859951,29.8673099 L7.35746458,26.8219676 L6.65703586,28.6225296 Z M0.921708077,47.5817802 L7.73065211,47.8918401 L7.60837497,50.5770575 L9.19073521,50.6491136 L9.52208442,43.3726541 L7.93972418,43.3005979 L7.81799293,45.9738277 L1.00904889,45.6637678 L0.921708077,47.5817802 Z M1.16704365,62.9235029 L7.54673269,65.1984164 L2.31580638,66.7633477 L2.86611187,68.6027943 L10.9136908,66.1952078 L10.3909006,64.4477335 L3.99971502,62.1762593 L9.24213788,60.6078887 L8.68839297,58.7569455 L0.640814016,61.1645321 L1.16704365,62.9235029 Z M7.6976943,81.2630849 L10.4175106,79.2496164 L11.217186,80.3298271 L9.79684235,84.0986381 L11.1105949,85.8732699 L12.9169598,81.0124464 L17.8119321,80.8077852 L16.590999,79.1585349 L12.5477855,79.4045116 L11.7195502,78.2857219 L14.4490112,76.2651134 L13.2994778,74.7123105 L6.54816084,79.710282 L7.6976943,81.2630849 Z M23.0200454,97.8823051 L23.9083229,96.5998999 L20.1498892,93.9965636 L21.2568196,92.3984894 L24.4628326,94.6191831 L25.3237785,93.3762365 L22.1177654,91.1555428 L23.1563668,89.6561152 L26.78656,92.1706237 L27.6748375,90.8882185 L22.4564347,87.2736125 L17.6734022,94.1788713 L23.0200454,97.8823051 Z M46.2137074,106.213741 C46.6285821,106.24432 46.9923563,106.124736 47.30503,105.854989 C47.6177037,105.585243 47.7899178,105.234954 47.8216723,104.804123 C47.8534267,104.373291 47.7342837,104.003533 47.4642433,103.694849 C47.1942028,103.386164 46.8517453,103.216533 46.4368706,103.185954 C46.021996,103.155376 45.6583688,103.272965 45.3459891,103.538723 C45.0336094,103.80448 44.8615423,104.152774 44.8297879,104.583606 C44.7980334,105.014437 44.9170294,105.386189 45.1867758,105.698863 C45.4565223,106.011537 45.7988328,106.183163 46.2137074,106.213741 Z" id="СДЕЛАНОВАРКТИКЕ•"></path>
                    <g id="001-polar-bear-1" transform="translate(23.277797, 31.514529)">
                        <path d="M54.3740731,2.69112577 L52.2895947,2.12468028 C51.2882266,1.23896938 49.9661695,0.735971746 48.6166124,0.735971746 L44.0219471,0.735971746 C43.3282758,0.735971746 42.6394766,0.824052314 41.9677837,0.995308238 C39.9469668,0.189040466 37.8933447,1.41704994 37.5126754,3.30886274 L35.4501754,4.59296227 C34.2363861,5.34793857 32.8365927,5.74782009 31.3998801,5.74782009 L29.911199,5.74782009 C27.0950475,5.74782009 24.4197522,6.94639829 22.5684825,9.03537933 L20.8112975,11.0197514 L17.4539156,12.3068367 C13.0932168,13.9345144 9.4469766,17.0097632 7.12734078,20.3919078 L3.54367936,25.5658414 C1.85459471,28.0323106 0.963659674,30.9136969 0.963659674,33.8994789 C0.963659674,34.9924883 1.04475219,36.0908296 1.20498841,37.1634717 C1.27438802,37.6281874 1.72499826,38.1545381 2.43393526,38.0634717 C3.02551007,37.9875476 3.4342207,37.4343248 3.34760652,36.8531637 C3.20263605,35.8828912 3.129014,34.8889457 3.129014,33.8994789 C3.129014,31.3402371 3.89338408,28.8705689 5.3387581,26.7580215 C5.33984078,26.7569552 8.91592345,21.593685 8.91592345,21.593685 C11.2143388,18.2763746 14.437577,15.7522158 18.2387483,14.2945144 L21.8440632,12.9125239 C22.0087384,12.8496092 22.1516518,12.7504386 22.26739,12.6192774 L24.200077,10.4375239 C25.6400376,8.81251203 27.7219175,7.88052151 29.911199,7.88052151 L31.3998801,7.88052151 C33.2458447,7.88052151 35.0463368,7.36654047 36.6075573,6.39498833 L37.9142404,5.58125611 C38.4829707,6.51090066 39.5179018,7.13407601 40.6979116,7.13407601 C41.295766,7.13407601 41.7805888,6.65656416 41.7805888,6.0677253 C41.7805888,5.47888644 41.295766,5.00137459 40.6979116,5.00137459 C40.1009235,5.00137459 39.6152345,4.52300966 39.6152345,3.93502388 C39.6152345,3.3470381 40.1009235,2.86867317 40.6979116,2.86867317 C41.1458152,2.86867317 41.5530101,3.14571108 41.7112975,3.5580689 C41.9228526,4.10883904 42.5475573,4.3866234 43.1069766,4.17825848 C43.6444175,3.97799781 43.9243979,3.40216843 43.7578821,2.86867317 L48.6165042,2.86867317 C49.4949884,2.86867317 50.3540927,3.22046227 50.9734924,3.83393383 C51.1064451,3.96541487 51.2717699,4.06063999 51.4533349,4.10990539 L53.7983053,4.74704994 L53.7983053,5.8548817 C53.7983053,7.01720397 53.0434628,8.03716843 51.920077,8.39279639 L49.3352935,9.2113272 C49.194329,9.25600729 49.0641912,9.32862577 48.9530002,9.42470397 L32.4125081,23.7068722 C32.2803132,23.8208651 32.1784333,23.9649291 32.1155298,24.1263746 L29.2998112,31.3466353 C28.4941912,33.4124765 27.9516616,35.5745026 27.6874884,37.7728912 L26.9869963,43.6032703 L25.2627246,43.6032703 C24.0214353,43.6032703 22.869575,42.8863627 22.3280199,41.7769315 C18.8278329,34.6048698 20.3164057,26.003685 26.0322916,20.3740997 C26.455077,19.9576898 26.455077,19.2824765 26.0322916,18.8659599 C25.6093979,18.4496566 24.9240632,18.4496566 24.5010612,18.8659599 C21.8981971,21.4295736 20.0830888,24.54673 19.112577,27.8820618 C18.5939746,26.8967537 17.9346242,26.0235191 17.1489254,25.3045855 C15.4836597,23.780877 13.3945258,23.0643959 11.1043388,23.2321329 C10.5081085,23.2758533 10.060638,23.7874883 10.1051361,24.3748343 C10.1496341,24.9621803 10.6676951,25.4013035 11.2653329,25.3589694 C12.9386105,25.236339 14.4628034,25.7576779 15.6751853,26.8671092 C17.3367699,28.3872988 18.2890927,30.8375594 18.2870357,33.589704 C18.2873605,33.5898106 18.287577,33.5900239 18.2879018,33.5900239 C18.2821636,35.1542537 18.4545258,36.7247751 18.8098605,38.2714101 L15.363266,38.2714101 C14.7654116,38.2714101 14.2805888,38.748922 14.2805888,39.3377608 C14.2805888,39.9265997 14.7654116,40.4041116 15.363266,40.4041116 L19.4217896,40.4041116 C19.6355101,41.0203556 19.8804116,41.6302016 20.1556282,42.2318367 C19.6562975,43.0767063 18.7434924,43.6031637 17.7289156,43.6031637 L7.98373841,43.6031637 C7.50465377,43.6031637 7.30035259,43.520948 7.09594314,43.520948 C6.57734078,43.520948 6.13019511,43.88564 6.03383684,44.3890642 C5.92232109,44.9670262 6.30991952,45.5256874 6.89564786,45.6355215 C7.254014,45.7016353 7.61985062,45.7359717 7.98373841,45.7359717 L17.7255593,45.7359717 C18.7455494,45.7346921 20.1968782,45.4192656 21.4052542,44.1362324 C22.4108447,45.1386021 23.7988368,45.7359717 25.2627246,45.7359717 L27.9491715,45.7359717 C28.4978723,45.7359717 28.9598506,45.3313983 29.0243782,44.794704 L29.4381774,41.3502845 C29.5981971,41.7737324 29.7717502,42.1929149 29.9602443,42.6071921 C30.8245455,44.5078556 32.7597227,45.7359717 34.8902148,45.7359717 L37.4968683,45.7359717 C38.2391518,45.7359717 38.6320553,45.0995736 38.5723998,44.547204 L38.1137778,40.6411613 C37.8380199,38.2931637 37.9081774,35.9219196 38.3221931,33.5933296 L40.8747128,19.2363035 L50.211829,11.1740523 L52.582892,10.4232348 C54.6050081,9.78289118 55.9636597,7.94706179 55.9636597,5.8548817 L55.9636597,4.74704994 C55.9636597,3.79074663 55.3100475,2.94534378 54.3740731,2.69112577 Z M4.70613561,41.0741589 C4.70613561,41.6954108 4.19317335,42.1991589 3.56030228,42.1991589 C2.92743122,42.1991589 2.41446895,41.6955232 2.41446895,41.0741589 C2.41446895,40.4529071 2.92743122,39.9491589 3.56030228,39.9491589 C4.19317335,39.9491589 4.70613561,40.4527946 4.70613561,41.0741589 Z M35.9538204,32.7211338 C35.5220011,35.2092712 35.448836,37.7431144 35.7365077,40.2521129 L36.0426785,42.9231784 L34.7068967,42.9231784 C33.4796152,42.9231784 32.3666542,42.2024729 31.8713351,41.0870829 C30.9870149,39.0957344 30.4659217,36.9791142 30.3194877,34.7936207 C30.6398966,32.8493408 33.8915844,24.7694725 33.8915844,24.7694725 L37.9583766,21.1731784 L35.9538204,32.7211338 Z" id="Shape"></path>
                    </g>
                </g>
                <path d="M66,-4.91127139e-11 C29.5492065,-4.91127139e-11 -4.54747351e-11,29.5492065 -4.54747351e-11,66 C-4.54747351e-11,102.450793 29.5492065,132 66,132 C102.450793,132 132,102.450793 132,66 C132,29.5492065 102.450793,-4.91127139e-11 66,-4.91127139e-11 Z M66,2 C101.346224,2 130,30.653776 130,66 C130,101.346224 101.346224,130 66,130 C30.653776,130 2,101.346224 2,66 C2,30.653776 30.653776,2 66,2 Z" id="Oval-Copy-7"></path>
            </g>
        </g>
    </g>
</svg>