<?xml version="1.0" encoding="UTF-8"?>
<svg width="195px" height="196px" viewBox="0 0 195 196" version="1.1" xmlns="http://www.w3.org/2000/svg" xmlns:xlink="http://www.w3.org/1999/xlink">
    <title>made in arctic</title>
    <g id="Page-1" stroke="none" stroke-width="1" fill="none" fill-rule="evenodd">
        <g id="Главная" transform="translate(-622.000000, -4958.000000)" fill="#FFFFFF" fill-rule="nonzero">
            <g id="made-in-arctic" transform="translate(719.639484, 5055.889654) rotate(-10.000000) translate(-719.639484, -5055.889654) translate(635.639484, 4971.889654)">
                <g transform="translate(-0.000000, -0.000000)">
                    <g id="001-polar-bear-1" transform="translate(47.777797, 54.014529)">
                        <path d="M70.4373601,3.57780162 L67.7085884,2.82254095 C66.3977065,1.64159309 64.6670136,0.970929579 62.9003207,0.970929579 L56.885486,0.970929579 C55.9774073,0.970929579 55.0757065,1.08837034 54.1963994,1.31671157 C51.5509664,0.241687873 48.8625884,1.87903384 48.3642577,4.40145091 L45.6642577,6.11358361 C44.0752971,7.12021868 42.2428404,7.65339403 40.362053,7.65339403 L38.4132341,7.65339403 C34.7266356,7.65339403 31.2244309,9.2514983 28.8009506,12.0368064 L26.5006356,14.6826357 L22.1055175,16.3987495 C16.3969664,18.5689865 11.6237065,22.6693182 8.58709234,27.1788443 L3.89575376,34.0774225 C1.6845884,37.3660481 0.518273442,41.2078964 0.518273442,45.1889391 C0.518273442,46.646285 0.624430923,48.11074 0.834194702,49.5409296 C0.925045096,50.1605504 1.51493486,50.8623514 2.44299785,50.7409296 C3.21742305,50.6396974 3.75246242,49.902067 3.63907659,49.1271855 C3.44929706,47.8334888 3.35291911,46.5082282 3.35291911,45.1889391 C3.35291911,41.7766168 4.35354903,38.4837258 6.24567502,35.6669959 C6.24709234,35.6655741 10.9285097,28.7812139 10.9285097,28.7812139 C13.9373443,24.3581334 18.1568561,20.9925883 23.1329349,19.0489865 L27.8526199,17.2063324 C28.0681947,17.1224462 28.2552813,16.9902187 28.4067931,16.8153372 L30.9368561,13.9063324 C32.8218955,11.73965 35.5472656,10.4969959 38.4132341,10.4969959 L40.362053,10.4969959 C42.7785884,10.4969959 45.1355963,9.81168787 47.1793758,8.51628503 L48.8899427,7.43130873 C49.6344624,8.67083479 50.9892813,9.50173527 52.5340215,9.50173527 C53.3166671,9.50173527 53.9513443,8.8650528 53.9513443,8.07993432 C53.9513443,7.29481584 53.3166671,6.65813337 52.5340215,6.65813337 C51.7525097,6.65813337 51.1166986,6.02031347 51.1166986,5.23633242 C51.1166986,4.45235138 51.7525097,3.81453147 52.5340215,3.81453147 C53.1203679,3.81453147 53.653423,4.18391536 53.8606356,4.73372579 C54.1375805,5.46808598 54.9553758,5.83846512 55.6877065,5.56064522 C56.3912656,5.293631 56.7577853,4.52585849 56.539801,3.81453147 L62.900179,3.81453147 C64.0501947,3.81453147 65.1748404,4.28358361 65.9856908,5.10154569 C66.159738,5.27685375 66.3761632,5.40382057 66.6138482,5.46950778 L69.6836278,6.31903384 L69.6836278,7.79614285 C69.6836278,9.34590588 68.6954703,10.7058585 67.2248561,11.1800291 L63.8411396,12.2714035 C63.6566042,12.330977 63.4862419,12.4278016 63.3406829,12.5559059 L41.687675,31.5987969 C41.5146199,31.7507874 41.3812498,31.9428727 41.2989034,32.1581334 L37.6128719,41.7851476 C36.5582419,44.5396026 35.8480215,47.422304 35.5021947,50.3534888 L34.5851868,58.1273277 L32.3279585,58.1273277 C30.7029979,58.1273277 29.1951081,57.1714509 28.4861632,55.6922092 C23.9041002,46.1294604 25.8527774,34.6612139 33.3353916,27.1551002 C33.8888561,26.5998869 33.8888561,25.6996026 33.3353916,25.1442471 C32.7817853,24.589176 31.8846199,24.589176 31.3308719,25.1442471 C27.923486,28.5623988 25.5473443,32.7186073 24.2768561,37.1657163 C23.5979585,35.8519722 22.7348089,34.6876594 21.7062577,33.7290812 C19.5262734,31.6974699 16.7914073,30.7421618 13.7933443,30.9658111 C13.0128246,31.0241049 12.4270451,31.706285 12.4852971,32.489413 C12.543549,33.272541 13.221738,33.8580386 14.0041002,33.8015931 C16.1945727,33.638086 18.1898797,34.3332045 19.7769979,35.8124462 C21.9521632,37.8393656 23.1988404,41.1063798 23.1961475,44.7759059 C23.1965727,44.7760481 23.1968561,44.7763324 23.1972813,44.7763324 C23.1897695,46.8619722 23.4154073,48.9560007 23.8805727,51.0181808 L19.3686671,51.0181808 C18.5860215,51.0181808 17.9513443,51.6548632 17.9513443,52.4399817 C17.9513443,53.2251002 18.5860215,53.8617827 19.3686671,53.8617827 L24.6816435,53.8617827 C24.961423,54.6834414 25.2820215,55.4965694 25.6423049,56.2987495 C24.9886356,57.4252424 23.7936908,58.1271855 22.4655175,58.1271855 L9.7081947,58.1271855 C9.08102935,58.1271855 8.81358053,58.0175647 8.54598998,58.0175647 C7.86709234,58.0175647 7.28173801,58.5038206 7.15559628,59.1750528 C7.00961203,59.9456689 7.5170136,60.6905504 8.28378525,60.8369959 C8.75291911,60.9251476 9.2318325,60.9709296 9.7081947,60.9709296 L22.4611238,60.9709296 C23.7963837,60.9692234 25.6963049,60.5486547 27.278179,58.8379438 C28.5945884,60.1744367 30.4115963,60.9709296 32.3279585,60.9709296 L35.8447616,60.9709296 C36.5630608,60.9709296 37.1678325,60.4314983 37.2523049,59.7159059 L37.7940057,55.1233466 C38.003486,55.6879438 38.2306829,56.2468537 38.4774388,56.7992234 C39.6088876,59.3334414 42.1422105,60.9709296 44.9312183,60.9709296 L48.3435648,60.9709296 C49.3152813,60.9709296 49.8296278,60.1223988 49.7515333,59.3859059 L49.1511553,54.177849 C48.7901632,51.0471855 48.8820057,47.8855267 49.42399,44.78074 L52.7654703,25.6380386 L64.9886042,14.8883703 L68.0925412,13.8872803 C70.739675,13.0334888 72.5182734,10.5857163 72.5182734,7.79614285 L72.5182734,6.31903384 C72.5182734,5.04396275 71.6626356,3.91675896 70.4373601,3.57780162 Z M5.41751467,54.7551792 C5.41751467,55.583515 4.74600043,56.2551792 3.91751467,56.2551792 C3.08902892,56.2551792 2.41751467,55.5836649 2.41751467,54.7551792 C2.41751467,53.9268433 3.08902892,53.2551792 3.91751467,53.2551792 C4.74600043,53.2551792 5.41751467,53.9266934 5.41751467,54.7551792 Z M46.3235748,43.6178124 C45.758284,46.9353288 45.6625043,50.3137864 46.0390927,53.6591178 L46.4398981,57.2205384 L44.6912382,57.2205384 C43.0846153,57.2205384 41.6276481,56.2595978 40.9792304,54.7724112 C39.8215748,52.1172798 39.1394165,49.2951195 38.9477211,46.3811282 C39.3671654,43.788755 43.6239203,33.0155972 43.6239203,33.0155972 L48.9477211,28.2205384 L46.3235748,43.6178124 Z" id="Shape"></path>
                    </g>
                    <path d="M89.0108171,153.730363 C89.7363434,153.6704 90.383558,153.488474 90.9524608,153.184583 C91.5213636,152.880692 91.9850381,152.469103 92.3434843,151.949814 L92.3434843,151.949814 L91.0048392,150.904521 C90.4934602,151.613049 89.8191978,152.001907 88.982052,152.071094 C88.4638189,152.113925 87.9920058,152.03853 87.5666127,151.84491 C87.1412195,151.65129 86.7981077,151.360563 86.5372771,150.972728 C86.2764464,150.584894 86.124616,150.131861 86.0817857,149.613627 C86.0389553,149.095394 86.1143502,148.623581 86.3079701,148.198188 C86.5015901,147.772795 86.7923172,147.429683 87.1801514,147.168852 C87.5679857,146.908022 88.0210193,146.756191 88.5392524,146.713361 C89.3763982,146.644174 90.1050222,146.913073 90.7251243,147.520061 L90.7251243,147.520061 L91.8739982,146.269182 C91.4358216,145.82376 90.9131895,145.497699 90.3061017,145.291 C89.699014,145.084301 89.0327069,145.010933 88.3071805,145.070895 C87.4461163,145.142059 86.6860799,145.391508 86.0270714,145.819241 C85.3680628,146.246975 84.8684121,146.806028 84.5281192,147.496403 C84.1878263,148.186777 84.0519441,148.946551 84.1204726,149.775724 C84.1890011,150.604897 84.4477734,151.332053 84.8967894,151.957194 C85.3458054,152.582334 85.9304578,153.051774 86.6507467,153.365513 C87.3710355,153.679251 88.1577256,153.800868 89.0108171,153.730363 Z M98.0243904,154.203472 L97.5757574,152.522303 L103.303326,150.993857 L103.751958,152.675026 L105.491099,152.210923 L104.634055,148.99931 L103.497817,149.302524 L101.740413,142.716981 L95.5026972,144.381564 L96.0875336,146.94546 C96.3856241,148.248665 96.5270064,149.27491 96.5116803,150.024196 C96.4963542,150.773481 96.2472742,151.220828 95.7644404,151.366236 L95.7644404,151.366236 L95.4398009,151.452869 L96.2852503,154.667575 L98.0243904,154.203472 Z M101.642734,149.797568 L98.0137282,150.765996 C98.1862949,150.388747 98.2472661,149.857049 98.1966418,149.170903 C98.1460175,148.484756 98.0111168,147.653432 97.7919241,146.676929 L97.7919241,146.676929 L97.5111168,145.485032 L100.293741,144.742467 L101.642734,149.797568 Z M115.210004,146.450633 L114.550558,145.036869 L110.40714,146.969555 L109.585368,145.207786 L113.119779,143.55917 L112.480623,142.188906 L108.946212,143.837522 L108.175167,142.184505 L112.177208,140.317764 L111.517761,138.904 L105.764827,141.58744 L109.315694,149.200018 L115.210004,146.450633 Z M119.568694,144.346633 C120.093781,143.980733 120.389165,143.533568 120.454844,143.005138 C120.520524,142.476708 120.404181,141.865476 120.105818,141.171442 C119.807454,140.477408 119.333937,139.629969 118.685266,138.629124 L118.685266,138.629124 L117.732841,137.157393 L120.095736,135.510843 L123.992572,141.103027 L125.567835,140.005327 L120.765397,133.11355 L115.468574,136.804567 L117.318538,139.669266 C117.946924,140.654994 118.342287,141.425259 118.504626,141.980061 C118.666965,142.534864 118.557791,142.944904 118.177102,143.210182 C118.072085,143.283362 117.967765,143.336554 117.864143,143.369758 L117.864143,143.369758 L118.705595,144.787184 C119.064395,144.644417 119.352095,144.497567 119.568694,144.346633 Z M130.520013,136.094391 L129.764271,134.299289 L132.508083,131.527738 L134.310695,132.265386 L135.74592,130.815652 L127.133923,127.57512 L125.783123,128.939576 L129.118559,137.510014 L130.520013,136.094391 Z M131.02859,130.924231 L129.154355,132.817414 L127.806009,129.608233 L131.02859,130.924231 Z M139.712248,126.035349 L136.864273,124.098812 L139.009982,120.943216 L141.857957,122.879753 L142.951054,121.272185 L136.004773,116.548925 L134.911676,118.156493 L137.650495,120.018807 L135.504786,123.174403 L132.765967,121.312089 L131.67287,122.919657 L138.61915,127.642917 L139.712248,126.035349 Z M147.475616,113.182021 C147.822209,112.38186 147.961313,111.587726 147.892928,110.799617 C147.824543,110.011508 147.567031,109.302766 147.120392,108.67339 C146.673753,108.044014 146.072376,107.565569 145.316261,107.238055 C144.560145,106.910541 143.799781,106.799142 143.035167,106.903859 C142.270553,107.008576 141.577415,107.30554 140.955753,107.794752 C140.334091,108.283965 139.849964,108.928651 139.503371,109.728812 C139.156779,110.528973 139.01688,111.324943 139.083675,112.116722 C139.15047,112.908502 139.407982,113.617244 139.856211,114.242949 C140.30444,114.868654 140.906612,115.345264 141.662727,115.672778 C142.418842,116.000293 143.178412,116.113527 143.941436,116.01248 C144.70446,115.911434 145.397598,115.614469 146.02085,115.121587 C146.644101,114.628704 147.129024,113.982182 147.475616,113.182021 Z M145.956045,112.523813 C145.7589,112.97895 145.476226,113.344731 145.108022,113.621154 C144.739818,113.897577 144.323211,114.059314 143.858201,114.106363 C143.393191,114.153412 142.922106,114.073594 142.444946,113.866911 C141.967786,113.660227 141.587323,113.371193 141.303559,112.999809 C141.019795,112.628426 140.852798,112.213899 140.802569,111.75623 C140.752341,111.298561 140.825798,110.842158 141.022943,110.38702 C141.220087,109.931883 141.502762,109.566103 141.870966,109.289679 C142.239169,109.013256 142.655776,108.85152 143.120787,108.804471 C143.585797,108.757422 144.056882,108.837239 144.534042,109.043923 C145.011202,109.250606 145.391664,109.53964 145.675429,109.911024 C145.959193,110.282407 146.126189,110.696934 146.176418,111.154603 C146.226647,111.612272 146.153189,112.068675 145.956045,112.523813 Z M153.020411,94.0728241 C153.157477,93.033826 153.056679,92.2075454 152.718017,91.5939821 C152.379355,90.9804188 151.841219,90.6249839 151.10361,90.5276776 C150.603939,90.4617604 150.165794,90.541138 149.789174,90.7658105 C149.412554,90.990483 149.115416,91.3466804 148.897758,91.8344027 C148.764515,91.4375674 148.554852,91.1153785 148.268771,90.8678361 C147.982689,90.6202937 147.633435,90.4693186 147.221008,90.4149108 C146.530986,90.3238822 145.964016,90.5234434 145.520097,91.0135943 C145.076178,91.5037452 144.790394,92.2326289 144.662745,93.2002454 L144.662745,93.2002454 L144.151101,97.0786426 L152.478948,98.1772629 L153.020411,94.0728241 Z M148.09088,93.821945 L147.853892,95.6183805 L145.831415,95.3515727 L146.068403,93.5551372 C146.122811,93.1427105 146.251646,92.8389514 146.454907,92.6438598 C146.658169,92.4487682 146.922391,92.3726717 147.247574,92.4155702 C147.580687,92.459515 147.818381,92.5998075 147.960653,92.8364477 C148.102925,93.0730879 148.146334,93.401587 148.09088,93.821945 L148.09088,93.821945 Z M151.583363,93.9558707 L151.304,96.0735232 L149.198244,95.7957292 L149.477608,93.6780767 C149.596887,92.7739105 150.001537,92.3673416 150.691558,92.4583702 C151.405374,92.5525376 151.702642,93.0517045 151.583363,93.9558707 L151.583363,93.9558707 Z M153.63001,78.5256574 L151.744461,78.0375557 L151.205483,74.1749786 L152.88539,73.1893584 L152.603463,71.1689335 L144.803144,76.0497689 L145.068487,77.9513453 L153.905303,80.4985429 L153.63001,78.5256574 Z M149.828224,74.9850886 L150.196388,77.623526 L146.827166,76.7487572 L149.828224,74.9850886 Z M151.226136,65.1125251 L149.024159,65.830268 L148.499798,64.22157 C148.269227,63.5141993 147.953034,62.9378123 147.551219,62.4924091 C147.149403,62.0470058 146.683952,61.7548691 146.154867,61.6159989 C145.625782,61.4771287 145.068403,61.5031448 144.482731,61.694047 C143.889452,61.8874286 143.421904,62.1954915 143.080086,62.6182358 C142.738269,63.0409801 142.534379,63.5512908 142.468418,64.149168 C142.402456,64.7470451 142.48476,65.399669 142.715331,66.1070398 L142.715331,66.1070398 L143.84215,69.564029 L151.828593,66.9608164 L151.226136,65.1125251 Z M147.027252,64.8151444 L147.518144,66.3211595 L144.745707,67.2248462 L144.254816,65.7188311 C144.07383,65.1635831 144.056029,64.7023943 144.20141,64.3352647 C144.346792,63.9681352 144.643864,63.7114325 145.092626,63.5651567 C145.533782,63.4213602 145.921262,63.4549304 146.255067,63.6658672 C146.588872,63.876804 146.846267,64.2598964 147.027252,64.8151444 L147.027252,64.8151444 Z M147.137313,54.1636436 L144.14108,55.7365535 L143.516379,54.5465603 L145.497471,51.0399116 L144.471175,49.0849229 L141.941283,53.6115339 L137.072762,53.0636836 L138.026548,54.8805482 L142.059701,55.2570493 L142.706714,56.4895422 L139.699856,58.0680298 L140.597865,59.7786449 L148.035322,55.8742588 L147.137313,54.1636436 Z M140.232323,42.6512734 L134.781555,46.7435807 L133.167687,44.5939819 L131.900959,45.545011 L136.274252,51.37004 L137.54098,50.4190109 L135.934317,48.2790084 L141.385086,44.1867011 L140.232323,42.6512734 Z M134.500419,35.826483 L127.837283,37.042332 L131.587234,33.0737719 L130.191696,31.7551079 L124.422541,37.860585 L125.748302,39.1133158 L132.419679,37.8887446 L128.661487,41.8660269 L130.065747,43.1929325 L135.834902,37.0874554 L134.500419,35.826483 Z M124.645491,27.2296192 L122.789197,30.0590412 L121.665455,29.3217897 L121.695668,25.294334 L119.84952,24.0831351 L119.834503,29.2687242 L115.311932,31.1526011 L117.027646,32.2782262 L120.73667,30.6499698 L121.900546,31.4135517 L120.037669,34.2530071 L121.653048,35.3128061 L126.26087,28.2894183 L124.645491,27.2296192 Z M110.391044,19.3630789 L109.761154,20.7902576 L113.943886,22.6363187 L113.158946,24.4148029 L109.590999,22.8400789 L108.980491,24.2233445 L112.548438,25.7980685 L111.811952,27.4667697 L107.771938,25.6836976 L107.142048,27.1108764 L112.949568,29.6740425 L116.341281,21.989234 L110.391044,19.3630789 Z M98.2294998,17.4071227 C97.8206583,17.3302814 97.4457815,17.4083802 97.1048695,17.6414189 C96.7639576,17.8744576 96.5536033,18.20326 96.4738066,18.6278263 C96.3940099,19.0523925 96.4710004,19.433166 96.704778,19.7701468 C96.9385555,20.1071276 97.2598651,20.3140386 97.6687066,20.3908799 C98.0775482,20.4677211 98.4520555,20.3915879 98.7922286,20.1624804 C99.1324017,19.9333729 99.3423866,19.606536 99.4221833,19.1819698 C99.5019799,18.7574035 99.4253589,18.3746644 99.1923202,18.0337525 C98.9592815,17.6928405 98.6383414,17.4839639 98.2294998,17.4071227 Z M81.7164574,14.1278064 C80.9891532,14.1596287 80.3353792,14.3163563 79.7551353,14.5979891 C79.1748914,14.8796219 78.6956264,15.2729475 78.3173402,15.7779658 L78.3173402,15.7779658 L79.6145035,16.8743122 C80.1529358,16.1861184 80.8417506,15.8236625 81.6809477,15.7869444 C82.2004506,15.7642142 82.6689903,15.8578229 83.0865667,16.0677704 C83.504143,16.277718 83.8357395,16.5815137 84.081356,16.9791574 C84.3269726,17.376801 84.461146,17.8353744 84.4838762,18.3548773 C84.5066065,18.8743803 84.4129978,19.34292 84.2030502,19.7604963 C83.9931026,20.1780727 83.689307,20.5096692 83.2916633,20.7552857 C82.8940196,21.0009023 82.4354463,21.1350757 81.9159433,21.1578059 C81.0767462,21.194524 80.3590816,20.8976107 79.7629494,20.2670662 L79.7629494,20.2670662 L78.5664985,21.4725176 C78.9870979,21.934574 79.4967118,22.2806286 80.09534,22.5106812 C80.6939683,22.7407339 81.3569345,22.839849 82.0842386,22.8080267 C82.9474128,22.7702596 83.7165387,22.5504294 84.3916164,22.1485363 C85.0666941,21.7466431 85.5876188,21.207357 85.9543904,20.5306779 C86.3211619,19.8539988 86.4863635,19.1000569 86.4499952,18.2688521 C86.4136268,17.4376474 86.1832069,16.7010154 85.7587355,16.0589562 C85.3342641,15.416897 84.7682287,14.9251695 84.0606292,14.5837738 C83.3530298,14.2423781 82.5716392,14.0903889 81.7164574,14.1278064 Z M72.7434304,13.3031504 L73.125523,15.0006796 L67.3422168,16.3024296 L66.9601242,14.6049005 L65.2040595,15.0001687 L65.9339882,18.2430347 L67.0812838,17.9847928 L68.5780328,24.6344243 L74.8764513,23.2167289 L74.3930165,20.6317935 C74.146468,19.3178628 74.0456016,18.2868469 74.0904174,17.5387456 C74.1352331,16.7906443 74.4017333,16.3534513 74.8899179,16.2271668 L74.8899179,16.2271668 L75.2177166,16.1533834 L74.499495,12.9078822 L72.7434304,13.3031504 Z M68.9544194,17.5631734 L72.6187409,16.7383803 C72.4314547,17.1085423 72.3495963,17.6374271 72.3731658,18.3250349 C72.3967352,19.0126427 72.4988049,19.8486342 72.6793747,20.8330094 L72.6793747,20.8330094 L72.9130358,22.0350388 L70.1033324,22.6674679 L68.9544194,17.5631734 Z M55.263174,20.3724151 L55.8664701,21.8110373 L60.0827398,20.0429156 L60.8345395,21.8356602 L57.237984,23.3439005 L57.8227171,24.7382574 L61.4192726,23.2300171 L62.124665,24.9120985 L58.0522575,26.6198905 L58.6555536,28.0585127 L64.5096393,25.6035617 L61.2611219,17.8571344 L55.263174,20.3724151 Z M50.8168984,22.3067173 C50.2779218,22.6518321 49.9653005,23.0871204 49.8790345,23.6125823 C49.7927685,24.1380441 49.8851516,24.7533533 50.1561836,25.4585098 C50.4272156,26.1636663 50.8672767,27.0289513 51.476367,28.0543649 L51.476367,28.0543649 L52.3705896,29.5621679 L49.9451949,31.1151844 L46.2697225,25.3750835 L44.6527926,26.4104278 L49.1824241,33.4844959 L54.6193507,30.0031505 L52.8826726,27.068391 C52.2932614,26.0588751 51.9282814,25.2737575 51.7877326,24.7130383 C51.6471839,24.1523191 51.7722885,23.7468554 52.1630466,23.4966471 C52.2708419,23.4276242 52.3771593,23.3785466 52.4819987,23.3494142 L52.4819987,23.3494142 L51.6965432,21.900209 C51.3324412,22.0288547 51.0392262,22.1643574 50.8168984,22.3067173 Z M39.5575045,30.1209392 L40.2428016,31.9440969 L37.3931888,34.6067472 L35.6206548,33.799493 L34.1300881,35.192264 L42.6094236,38.7655546 L44.0123099,37.4547113 L41.0129991,28.7609394 L39.5575045,30.1209392 Z M38.8480695,35.2673848 L40.7945743,33.4485898 L42.0169843,36.7078219 L38.8480695,35.2673848 Z M29.9704819,39.8247766 L32.7408213,41.8708351 L30.4737599,44.9404098 L27.7034205,42.8943512 L26.5485024,44.4580968 L33.3054278,49.4484836 L34.4603458,47.884738 L31.7961867,45.9170998 L34.0632481,42.8475251 L36.7274073,44.8151634 L37.8823253,43.2514178 L31.1254,38.261031 L29.9704819,39.8247766 Z M21.7199759,52.3513518 C21.3422022,53.1372723 21.171994,53.9253264 21.2093513,54.7155139 C21.2467086,55.5057015 21.476166,56.2240172 21.8977234,56.8704608 C22.3192807,57.5169044 22.9013888,58.0186157 23.6440476,58.3755945 C24.3867064,58.7325733 25.1421052,58.8737706 25.910244,58.7991863 C26.6783828,58.7246019 27.3826567,58.4551092 28.0230656,57.9907082 C28.6634746,57.5263071 29.1725659,56.9011463 29.5503396,56.1152258 C29.9281134,55.3293053 30.099188,54.5394487 30.0635636,53.745656 C30.0279392,52.9518632 29.7984818,52.2335476 29.3751915,51.5907091 C28.9519013,50.9478706 28.3689267,50.447962 27.6262679,50.0909831 C26.8836091,49.7340043 26.1290767,49.5910045 25.3626709,49.6619837 C24.596265,49.7329628 23.8919911,50.0024555 23.2498493,50.4704618 C22.6077074,50.938468 22.0977496,51.5654313 21.7199759,52.3513518 Z M23.2125038,53.0687753 C23.4273842,52.621738 23.7242163,52.2673502 24.103,52.0056119 C24.4817837,51.7438736 24.9044255,51.5986362 25.3709254,51.5698998 C25.8374254,51.5411633 26.3050095,51.639434 26.7736777,51.8647119 C27.2423458,52.0899898 27.6111542,52.3937535 27.8801028,52.776003 C28.1490513,53.1582525 28.2996268,53.5790221 28.331829,54.0383118 C28.3640313,54.4976015 28.2726922,54.950765 28.0578117,55.3978023 C27.8429313,55.8448397 27.5460992,56.1992275 27.1673155,56.4609658 C26.7885319,56.722704 26.3658901,56.8679414 25.8993901,56.8966779 C25.4328901,56.9254143 24.9653061,56.8271436 24.4966379,56.6018657 C24.0279697,56.3765878 23.6591613,56.0728241 23.3902128,55.6905746 C23.1212642,55.3083251 22.9706888,54.8875555 22.9384865,54.4282659 C22.9062842,53.9689762 22.9976233,53.5158127 23.2125038,53.0687753 Z M15.4241053,71.2352957 C15.2465075,72.2681379 15.3149115,73.0977287 15.6293172,73.7240681 C15.9437229,74.3504075 16.4675453,74.7266177 17.2007844,74.8526986 C17.6974948,74.9381082 18.1384093,74.8759278 18.5235279,74.6661573 C18.9086466,74.4563869 19.2194893,74.1120836 19.4560562,73.6332474 C19.5736766,74.0349904 19.7705774,74.3651329 20.0467585,74.623675 C20.3229396,74.882217 20.6660217,75.0467365 21.0760049,75.1172333 C21.7619382,75.23518 22.3362799,75.0579465 22.7990298,74.585533 C23.2617796,74.1131195 23.5758528,73.3959709 23.7412492,72.4340873 L23.7412492,72.4340873 L24.4041907,68.5786687 L16.1256845,67.1551748 L15.4241053,71.2352957 Z M20.3400522,71.678784 L20.6471202,69.892992 L22.6576146,70.2386976 L22.3505466,72.0244897 C22.2800498,72.4344728 22.1394331,72.7329606 21.9286968,72.9199531 C21.7179604,73.1069455 21.4509642,73.1726497 21.1277082,73.1170656 C20.796568,73.0601259 20.5645438,72.9106442 20.4316356,72.6686206 C20.2987275,72.426597 20.2681997,72.0966515 20.3400522,71.678784 L20.3400522,71.678784 Z M16.8554792,71.4083646 L17.2174534,69.3032588 L19.3107328,69.6631994 L18.9487586,71.7683052 C18.7942079,72.6671145 18.3739658,73.0575458 17.6880324,72.9395991 C16.9784462,72.8175854 16.7009284,72.3071739 16.8554792,71.4083646 L16.8554792,71.4083646 Z M14.2107746,86.7423297 L16.0758509,87.303602 L16.463767,91.1842618 L14.7466956,92.1036105 L14.9496056,94.1334942 L22.9343569,89.5606086 L22.7433828,87.6501299 L14.012639,84.760208 L14.2107746,86.7423297 Z M17.8715745,90.4284854 L17.6065979,87.7776962 L20.939138,88.7832092 L17.8715745,90.4284854 Z M16.0887202,100.247073 L18.3173472,99.616932 L18.7777093,101.2451 C18.9801381,101.961032 19.2733003,102.549467 19.6571959,103.010405 C20.0410916,103.471344 20.4946306,103.781651 21.0178128,103.941326 C21.5409951,104.101002 22.0989667,104.097038 22.6917276,103.929436 C23.2921867,103.759657 23.7715466,103.470316 24.1298075,103.061414 C24.4880683,102.652512 24.7119704,102.150659 24.8015136,101.555857 C24.8910569,100.961054 24.8346141,100.305687 24.6321853,99.589755 L24.6321853,99.589755 L23.6428964,96.0909261 L15.5597934,98.3764121 L16.0887202,100.247073 Z M20.2725668,100.710197 L19.8415894,99.1859546 L22.6475809,98.3925645 L23.0785583,99.9168068 C23.2374539,100.478775 23.2370117,100.940307 23.0772314,101.301403 C22.9174511,101.662499 22.6104643,101.907258 22.1562709,102.035681 C21.7097757,102.161926 21.3239251,102.113066 20.9987192,101.889099 C20.6735133,101.665132 20.4314625,101.272165 20.2725668,100.710197 L20.2725668,100.710197 Z M19.7393114,111.335806 L22.7950989,109.881977 L23.3725062,111.095623 L21.2550056,114.521627 L22.2036033,116.515475 L24.9096011,112.091886 L29.7528033,112.830826 L28.8712261,110.977849 L24.8560048,110.442986 L24.2579759,109.185995 L27.3245994,107.727011 L26.4945765,105.982395 L18.9092884,109.59119 L19.7393114,111.335806 Z M26.1958801,123.125498 L31.8019146,119.248614 L33.3308268,121.459444 L34.6336376,120.558478 L30.4905587,114.567522 L29.1877478,115.468488 L30.7098345,117.669449 L25.1037999,121.546334 L26.1958801,123.125498 Z M31.6502897,130.157302 L38.3555223,129.200474 L34.4546566,133.020795 L35.7980659,134.392528 L41.7993978,128.515112 L40.5231589,127.211966 L33.809353,128.177189 L37.718792,124.348473 L36.3669864,122.968167 L30.3656545,128.845582 L31.6502897,130.157302 Z M41.1615673,139.131649 L43.1268501,136.376814 L44.2209692,137.157351 L44.03363,141.180561 L45.8311114,142.462873 L46.0484559,137.281819 L50.6410905,135.575845 L48.9706051,134.384131 L45.2008718,135.866423 L44.067677,135.058009 L46.0399289,132.293405 L44.4671327,131.171382 L39.588771,138.009626 L41.1615673,139.131649 Z M55.0930472,147.55063 L55.7787659,146.14942 L51.6721423,144.139737 L52.5266533,142.393613 L56.0296787,144.10791 L56.6942983,142.749814 L53.191273,141.035517 L53.9930364,139.397179 L57.959539,141.338291 L58.6452577,139.937081 L52.9434103,137.146733 L49.2510787,144.691711 L55.0930472,147.55063 Z M67.1846213,149.98989 C67.5901256,150.082747 67.9677831,150.019448 68.3175939,149.799993 C68.6674048,149.580538 68.8905241,149.26026 68.9869519,148.83916 C69.0833797,148.418059 69.0214198,148.034553 68.8010722,147.688641 C68.5807246,147.34273 68.2677987,147.123346 67.8622945,147.030489 C67.4567902,146.937633 67.0795791,146.998982 66.7306611,147.214538 C66.3817431,147.430094 66.1590702,147.748422 66.0626425,148.169522 C65.9662147,148.590623 66.0277281,148.976079 66.2471829,149.325889 C66.4666376,149.6757 66.7791171,149.897034 67.1846213,149.98989 Z" id="СДЕЛАНОВАРКТИКЕ•СДЕЛАНОВАРКТИКЕ•"></path>
                    <path d="M84,9.09494702e-13 C37.608081,9.09494702e-13 1.8189894e-12,37.608081 1.8189894e-12,84 C1.8189894e-12,130.391919 37.608081,168 84,168 C130.391919,168 168,130.391919 168,84 C168,37.608081 130.391919,9.09494702e-13 84,9.09494702e-13 Z M84,2 C129.287349,2 166,38.7126505 166,84 C166,129.287349 129.287349,166 84,166 C38.7126505,166 2,129.287349 2,84 C2,38.7126505 38.7126505,2 84,2 Z" id="Oval-Copy-7"></path>
                </g>
            </g>
        </g>
    </g>
</svg>