<svg width="128" height="125" viewBox="0 0 128 125" fill="none" xmlns="http://www.w3.org/2000/svg">
<path fill-rule="evenodd" clip-rule="evenodd" d="M44.4027 19.0816C44.7624 20.0698 44.253 21.1626 43.2645 21.5223C42.2763 21.882 41.1835 21.3724 40.8238 20.3842L35.6609 6.19939C35.3759 5.41633 35.6334 4.53877 36.2961 4.03359C36.9598 3.52831 37.8736 3.51266 38.5529 3.99523L48.7032 11.2015L45.483 2.61391C45.1138 1.62913 45.6127 0.531557 46.5977 0.162234L46.6154 0.155807C47.5955 -0.200933 48.6823 0.29789 49.0493 1.2767L54.1804 14.9608C54.5373 15.9414 54.2782 16.9346 53.5264 17.5082C52.7898 18.07 51.7962 18.0669 50.9944 17.4987L41.3291 10.6371L44.4027 19.0816ZM86.4966 11.871C77.283 7.8153 67.1619 6.31744 57.2286 7.53945C56.1848 7.66781 55.2343 6.92566 55.106 5.88209C54.9776 4.83804 55.7202 3.88739 56.7636 3.75944C67.3777 2.45369 78.1896 4.05324 88.0311 8.38509C97.846 12.7053 106.314 19.5724 112.519 28.244C113.13 29.0992 112.933 30.2888 112.078 30.9008C111.934 31.0042 111.78 31.0846 111.62 31.1425C110.837 31.4276 109.93 31.1712 109.421 30.4604C103.613 22.3442 95.6866 15.9161 86.4966 11.871ZM8.35813 91.4501C8.40575 91.529 8.45946 91.6046 8.51803 91.6757C9.12288 92.4088 10.126 92.6816 11.0181 92.3569L11.0319 92.3519C11.9279 92.0193 12.5157 91.1539 12.4953 90.1989C12.4949 90.1815 12.4944 90.1638 12.4935 90.1465L12.0337 80.7505L17.71 88.2498C17.7263 88.2714 17.7432 88.2926 17.7604 88.3133C18.3655 89.0455 19.3682 89.318 20.2598 88.9935L20.2737 88.9884C21.1689 88.6561 21.757 87.7914 21.7372 86.8367C21.7353 86.7528 21.728 86.6696 21.7154 86.5866L19.4111 71.6072C19.2513 70.5676 18.2791 69.8547 17.2394 70.0145C16.2002 70.1747 15.487 71.1468 15.6469 72.1862L17.0037 81.0058L11.34 73.5233C10.7051 72.6846 9.51095 72.5194 8.67231 73.1543C8.10351 73.5848 7.84574 74.2722 7.9359 74.932L8.3867 84.1435L3.75254 76.4884C3.20764 75.5889 2.03759 75.3006 1.13729 75.8455C0.237706 76.3902 -0.0502199 77.5612 0.494441 78.4608L8.35813 91.4501ZM122.517 33.7275C122.877 34.7158 122.367 35.8085 121.379 36.1683L117.235 37.6765L118.495 41.1385L122.201 39.7895C123.19 39.4297 124.282 39.9394 124.642 40.9276C125.002 41.9159 124.492 43.0086 123.504 43.3684L119.797 44.7174L121.058 48.1793L125.201 46.6711C126.19 46.3113 127.282 46.821 127.642 47.8092C128.002 48.7975 127.493 49.8902 126.504 50.25L120.571 52.4095C119.582 52.7693 118.49 52.2596 118.13 51.2714L113.005 37.1897C112.645 36.2014 113.154 35.1087 114.143 34.7489L120.076 32.5894C121.065 32.2296 122.157 32.7393 122.517 33.7275ZM6.53765 69.3138C6.71479 69.3001 6.88437 69.2627 7.04351 69.2048C7.82657 68.9198 8.35716 68.1401 8.28989 67.2686C7.51647 57.2522 9.48635 47.1742 13.9859 38.1238C18.4992 29.0458 25.3738 21.3784 33.8669 15.9505C34.7532 15.3842 35.0125 14.2066 34.4462 13.3203C33.8796 12.4341 32.7013 12.1743 31.8161 12.7413C22.7413 18.5411 15.3963 26.732 10.5754 36.4281C5.76974 46.094 3.66629 56.86 4.49242 67.5616C4.57312 68.6103 5.48878 69.3948 6.53765 69.3138ZM119.71 58.7301C119.629 57.6818 120.413 56.7657 121.462 56.685C122.511 56.6038 123.427 57.3882 123.508 58.4374C124.328 69.0685 122.256 79.7718 117.515 89.3901C112.76 99.0342 105.506 107.209 96.536 113.032C96.412 113.112 96.2824 113.176 96.149 113.224C95.3345 113.521 94.3941 113.229 93.9018 112.471C93.3291 111.589 93.5802 110.409 94.4623 109.837C102.857 104.388 109.647 96.7349 114.098 87.7057C118.538 78.7 120.478 68.6805 119.71 58.7301ZM96.2648 80.4449C97.0042 80.1758 97.6252 79.6191 97.9853 78.8471C98.5966 77.5362 98.2488 76.0484 97.1198 75.1445L83.7961 64.475L85.7105 63.1989C86.5855 62.6156 86.8223 61.4333 86.2389 60.558C85.6557 59.683 84.4722 59.4464 83.5981 60.0299L74.4679 66.1161C73.5071 66.7568 72.9892 67.8675 73.1163 69.0149L76.1404 96.3549L60.8833 73.4677C60.2431 72.5067 59.1323 71.9885 57.9843 72.1156L30.6444 75.14L53.5322 59.8829C54.493 59.2422 55.0109 58.1315 54.8838 56.984L51.8594 29.6441L67.1166 52.5314C67.7568 53.4924 68.8676 54.0105 70.0156 53.8834L97.3555 50.8591L89.3253 56.212C88.4503 56.7953 88.2137 57.9779 88.7969 58.8529C89.3799 59.7277 90.5618 59.9641 91.4377 59.381L101.966 52.3627C103.169 51.5606 103.646 50.1084 103.151 48.7495C102.656 47.3907 101.358 46.5845 99.9208 46.7435L78.216 49.1443L81.5643 32.407C81.8482 30.9888 81.1583 29.6255 79.8477 29.0142C78.5365 28.4028 77.0485 28.7509 76.145 29.8795L65.4755 43.2031L53.3631 25.0333C52.5611 23.8299 51.1092 23.3537 49.7504 23.848L49.7501 23.8481C48.3913 24.3427 47.585 25.6408 47.7439 27.0782L50.1449 48.7828L33.4076 45.4347C31.9898 45.1509 30.6261 45.8405 30.0149 47.1515C29.4037 48.4624 29.7515 49.9502 30.8805 50.8541L41.3625 59.2485C41.9007 59.6797 42.6019 59.7712 43.2058 59.5514C43.5227 59.436 43.8129 59.235 44.0393 58.9527C44.6967 58.1317 44.5642 56.9332 43.7432 56.276L35.605 49.7587L50.5845 52.7552L51.0498 56.9607L26.0339 73.6364C24.8308 74.4385 24.3545 75.8908 24.8494 77.2497C25.3439 78.6085 26.6419 79.4146 28.0794 79.2557L49.7842 76.8549L46.4359 93.5922C46.152 95.0103 46.8419 96.3737 48.1525 96.985C48.9248 97.3451 49.7586 97.3724 50.498 97.1033C51.0138 96.9155 51.4839 96.5836 51.8552 96.1197L62.5247 82.796L74.6371 100.966C75.4391 102.169 76.891 102.645 78.2498 102.151L78.2501 102.151C79.6089 101.657 80.4152 100.358 80.2563 98.921L77.8552 77.2162L94.5925 80.5643C95.1753 80.6807 95.7485 80.6329 96.2648 80.4449ZM74.2442 49.5837L77.2407 34.604L67.692 46.5283L70.0388 50.0489L74.2442 49.5837ZM50.7589 91.3949L53.7553 76.4152L57.9608 75.9499L60.3076 79.4706L50.7589 91.3949ZM76.9504 69.0385L77.4157 73.244L92.3952 76.2405L80.4711 66.6917L76.9504 69.0385ZM84.6146 112.82C82.6372 112.811 80.7594 112.702 80.1789 112.665C79.6869 112.496 79.5444 112.065 79.5051 111.877C79.4502 111.616 79.4099 110.943 80.2156 110.341C81.9917 109.015 84.3712 109.8 84.4426 109.824C85.4274 110.176 86.5131 109.668 86.8723 108.684C87.2328 107.696 86.7243 106.602 85.7363 106.242C85.5608 106.178 81.3988 104.702 77.9363 107.29C76.1852 108.598 75.3579 110.655 75.7773 112.658C76.1709 114.537 77.5705 115.974 79.4301 116.407C79.5278 116.43 79.6273 116.445 79.7275 116.452C79.8232 116.459 82.0976 116.617 84.5979 116.628C85.3012 116.631 86.958 116.758 87.1519 117.873C87.2981 118.713 86.6329 119.88 85.2662 120.377C83.8573 120.89 82.295 120.816 81.087 120.178C80.1564 119.688 79.0047 120.044 78.5141 120.974C78.0235 121.904 78.3795 123.056 79.3098 123.547C81.453 124.677 84.1666 124.83 86.5688 123.956C89.57 122.864 91.3933 120.031 90.9036 117.22C90.5358 115.104 88.6902 112.837 84.6146 112.82ZM18.1012 94.8603C30.4161 112.628 52.1307 121.737 73.4214 118.068C74.4577 117.89 75.4428 118.585 75.6212 119.622C75.78 120.544 75.2475 121.425 74.3981 121.734C74.2924 121.772 74.1823 121.802 74.0679 121.821C51.3231 125.741 28.1264 116.01 14.9708 97.0299C14.3719 96.1655 14.5867 94.9792 15.4513 94.38C16.3158 93.7811 17.5018 93.996 18.1012 94.8603Z" fill="#83BFC4"/>
</svg>
