<svg width="36" height="31" viewBox="0 0 36 31" fill="none" xmlns="http://www.w3.org/2000/svg">
<g filter="url(#filter0_d)">
<path fill-rule="evenodd" clip-rule="evenodd" d="M32 15.0831C32 11.1717 28.1939 8 23.5 8C18.8061 8 15 11.1717 15 15.0831C15 18.9957 18.8061 22.1674 23.5 22.1674C24.4701 22.1674 25.406 22.0298 26.2749 21.7793L26.5242 21.7417C26.6876 21.7417 26.8358 21.7922 26.9757 21.8722L28.837 22.9471L29.0005 23C29.1569 23 29.2839 22.873 29.2839 22.7166L29.238 22.5096L28.8547 21.0808L28.8253 20.8996C28.8253 20.7091 28.9194 20.541 29.0628 20.4387C30.8548 19.1392 32 17.2187 32 15.0831ZM4 8.50082C4 11.062 5.42257 13.368 7.65021 14.9261C7.82925 15.0484 7.94618 15.2507 7.94618 15.48L7.90964 15.6963L7.43342 17.4109L7.37617 17.659C7.37617 17.8471 7.53451 18 7.72816 18L7.93278 17.9365L10.2457 16.6465C10.4186 16.5501 10.6025 16.4901 10.8059 16.4901L11.1165 16.5348C12.1956 16.8347 13.36 17.0016 14.5658 17.0016L15.1455 16.9875C14.9165 16.3243 14.7911 15.6258 14.7911 14.9049C14.7911 10.6234 19.1051 7.15202 24.4263 7.15202L25 7.16613C24.2047 3.10564 19.8359 0 14.5658 0C8.73054 0 4 3.80532 4 8.50082ZM20.9995 14C20.4473 14 20 13.5519 20 13C20 12.4471 20.4473 12 20.9995 12C21.5527 12 22 12.4471 22 13C22 13.5519 21.5527 14 20.9995 14ZM26.0005 14C25.4473 14 25 13.5519 25 13C25 12.4471 25.4473 12 26.0005 12C26.5527 12 27 12.4471 27 13C27 13.5519 26.5527 14 26.0005 14ZM11.4994 7C10.6706 7 10 6.32815 10 5.50065C10 4.67185 10.6706 4 11.4994 4C12.3281 4 13 4.67185 13 5.50065C13 6.32815 12.3281 7 11.4994 7ZM17.4994 7C16.6706 7 16 6.32815 16 5.50065C16 4.67185 16.6706 4 17.4994 4C18.3281 4 19 4.67185 19 5.50065C19 6.32815 18.3281 7 17.4994 7Z" fill="#75BD4B"/>
</g>
<defs>
<filter id="filter0_d" x="0" y="0" width="36" height="31" filterUnits="userSpaceOnUse" color-interpolation-filters="sRGB">
<feFlood flood-opacity="0" result="BackgroundImageFix"/>
<feColorMatrix in="SourceAlpha" type="matrix" values="0 0 0 0 0 0 0 0 0 0 0 0 0 0 0 0 0 0 127 0"/>
<feOffset dy="4"/>
<feGaussianBlur stdDeviation="2"/>
<feColorMatrix type="matrix" values="0 0 0 0 0 0 0 0 0 0 0 0 0 0 0 0 0 0 0.25 0"/>
<feBlend mode="normal" in2="BackgroundImageFix" result="effect1_dropShadow"/>
<feBlend mode="normal" in="SourceGraphic" in2="effect1_dropShadow" result="shape"/>
</filter>
</defs>
</svg>
