<svg width="57" height="80" viewBox="0 0 57 80" fill="none" xmlns="http://www.w3.org/2000/svg">
<path fill-rule="evenodd" clip-rule="evenodd" d="M47.2408 5.70209C47.6595 2.4434 51.5057 1.75413 53.2865 3.8221C55.3252 6.18984 56.3098 9.30667 55.9457 12.4104L52.9913 37.5705C52.5012 41.8424 49.4922 45.4976 45.3231 46.8845L32.4338 51.1718C32.4338 51.1718 30.5259 67.4117 30.5195 67.4464C30.2477 69.5081 28.8163 71.2754 26.8211 71.939L2.8279 79.9198C1.97663 80.2339 0.605328 79.6091 0.76749 78.241L3.51009 55.0289C4.24643 48.7817 13.6221 49.8869 12.8858 56.1341L12.216 61.8389C11.9729 63.9094 15.0761 64.2737 15.3192 62.2032L18.3655 36.2562C19.1172 29.5937 28.5636 30.2032 27.8419 36.3932L27.4988 39.314C27.2627 41.3352 30.3716 41.6985 30.6078 39.6772L31.9368 28.3589L24.1193 28.3583C22.0377 28.3573 22.0393 25.2085 24.1208 25.2095L41.9682 25.2111C47.304 25.2111 50.2597 28.8423 50.7632 29.5451L52.8181 12.0431C53.0829 9.78749 52.3776 7.53217 50.9139 5.89243C50.7681 5.72901 50.4172 5.7394 50.3681 6.06924L49.3116 15.0666C48.5825 21.2814 39.2191 20.1828 39.9482 13.968L41.0116 4.91159C41.2523 2.85653 38.1435 2.49221 37.9028 4.54743L36.9635 12.5476C36.2369 18.7409 26.8735 17.6425 27.6001 11.449L28.3676 4.91159C28.6064 2.87227 25.4978 2.50796 25.2588 4.54743L23.7464 17.4282C23.018 23.6376 13.6546 22.539 14.383 16.3296L15.7238 4.91159C15.9689 2.81984 12.8601 2.45569 12.615 4.54743L11.9973 9.80812C11.6935 12.3961 9.49941 14.3477 6.89362 14.3477C5.90112 14.3477 5.03284 15.12 4.91713 16.1057L3.84827 25.2095H9.94953C12.0321 25.2085 12.0337 28.3573 9.9511 28.3583L2.08825 28.3566C1.03703 28.3566 0.413251 27.4632 0.514642 26.5997L1.7899 15.7386C2.09376 13.1506 4.28784 11.1989 6.89362 11.1989C7.88612 11.1989 8.7544 10.4269 8.87012 9.44097L9.48776 4.18059C10.2217 -2.07826 19.5851 -0.980277 18.8513 5.27858L17.5106 16.6967C17.2741 18.7126 20.3831 19.0771 20.6194 17.0612L22.1316 4.18059C22.8564 -2.00206 32.22 -0.904076 31.495 5.27858L30.7275 11.8161C30.4844 13.8902 33.593 14.2547 33.8363 12.1806L34.7756 4.18059C35.5056 -2.0452 44.869 -0.947215 44.139 5.27858L43.0756 14.3351C42.8357 16.3815 45.9445 16.746 46.1844 14.6996L47.2408 5.70209ZM41.4368 28.3599L41.2816 29.7488C41.0275 31.8734 44.1353 32.245 44.3894 30.1202L44.5378 28.7856C43.7213 28.5075 42.7407 28.3282 41.4368 28.3599ZM25.8272 68.9509L4.18519 76.1499L6.63715 55.3981C6.88308 53.3139 10.0046 53.6821 9.75855 55.7665L9.08865 61.4719C8.35624 67.7095 17.714 68.8083 18.4464 62.5707L18.5201 61.9431C18.8776 62.1651 19.266 62.3489 19.6809 62.4869L25.741 64.5028C26.7622 64.8424 27.4522 65.7911 27.4192 66.8096C27.3875 67.7843 26.7479 68.6449 25.8272 68.9509ZM26.735 61.5148C27.1797 61.6627 27.5969 61.8633 27.9805 62.1075L29.1348 52.2693L20.7464 55.0594C19.9158 55.3356 19.297 56.0086 19.1311 56.8161C18.8934 57.9738 19.557 59.1272 20.6748 59.4989L26.735 61.5148ZM44.3291 43.8966C44.3291 43.8966 19.7015 52.0887 19.6761 52.0977L21.4928 36.6239C21.7989 34.3276 24.8461 33.9213 24.7147 36.0265L24.3716 38.948C23.6465 45.1424 33.01 46.2387 33.7353 40.0442L35.1073 28.3595L38.2687 28.3599L38.1534 29.3911C37.3484 35.5955 46.6947 36.8082 47.4997 30.6038C49.0259 31.9966 50.0771 34.4394 49.9035 36.7355C49.632 40.3221 47.3427 42.8942 44.3291 43.8966ZM17.0345 28.3584C17.9035 28.3584 18.6089 27.6531 18.6089 26.784C18.6089 25.9164 17.9035 25.2096 17.0345 25.2096C16.167 25.2096 15.4601 25.9164 15.4601 26.784C15.4601 27.6515 16.167 28.3584 17.0345 28.3584Z" fill="#83BFC4"/>
</svg>
