<svg width="62" height="62" viewBox="0 0 62 62" fill="none" xmlns="http://www.w3.org/2000/svg">
<path fill-rule="evenodd" clip-rule="evenodd" d="M31 47.3477C21.9859 47.3477 14.6523 40.0141 14.6523 31C14.6523 21.9859 21.9859 14.6523 31 14.6523C40.0141 14.6523 47.3477 21.9859 47.3477 31C47.3477 40.0141 40.0141 47.3477 31 47.3477ZM43.7148 31C43.7148 23.989 38.011 18.2852 31 18.2852C23.989 18.2852 18.2852 23.989 18.2852 31C18.2852 38.011 23.989 43.7148 31 43.7148C38.011 43.7148 43.7148 38.011 43.7148 31Z" fill="#83BFC4"/>
<path d="M45.1287 45.1283C44.4193 45.8377 44.4193 46.9877 45.1287 47.6971L53.899 56.4674C54.6083 57.1768 55.7584 57.1769 56.4678 56.4674C57.1772 55.758 57.1772 54.608 56.4678 53.8986L47.6975 45.1283C46.9881 44.4188 45.838 44.4188 45.1287 45.1283Z" fill="#83BFC4"/>
<path d="M8.10176 5.53251C7.39252 4.82315 6.24237 4.82315 5.533 5.53251C4.82363 6.24188 4.82363 7.39191 5.533 8.10128L14.3033 16.8716C15.0126 17.581 16.1627 17.5811 16.8721 16.8716C17.5815 16.1622 17.5815 15.0122 16.8721 14.3028L8.10176 5.53251Z" fill="#83BFC4"/>
<path d="M5.533 56.4676C6.24225 57.1769 7.3924 57.177 8.10176 56.4676L16.8721 47.6972C17.5815 46.9879 17.5815 45.8378 16.8721 45.1285C16.1629 44.4191 15.0127 44.4191 14.3033 45.1285L5.533 53.8988C4.82363 54.6082 4.82363 55.7582 5.533 56.4676Z" fill="#83BFC4"/>
<path d="M56.4678 5.53251C55.7586 4.82315 54.6084 4.82315 53.899 5.53251L45.1287 14.3028C44.4193 15.0122 44.4193 16.1622 45.1287 16.8716C45.838 17.581 46.9881 17.5811 47.6975 16.8716L56.4678 8.10128C57.1772 7.39191 57.1772 6.24188 56.4678 5.53251Z" fill="#83BFC4"/>
<path d="M38.6462 49.4595C37.7193 49.8433 37.2793 50.9059 37.6631 51.8328L39.0533 55.189C39.4367 56.1144 40.4984 56.5565 41.4266 56.1721C42.3535 55.7882 42.7935 54.7256 42.4097 53.7988L41.0195 50.4425C40.6355 49.5157 39.573 49.0757 38.6462 49.4595Z" fill="#83BFC4"/>
<path d="M23.3534 12.5405C24.2802 12.1566 24.7203 11.094 24.3364 10.1672L22.9463 6.81093C22.5623 5.88408 21.4998 5.44414 20.5729 5.82789C19.6461 6.21176 19.206 7.27436 19.5899 8.20121L20.9801 11.5574C21.3636 12.4828 22.4252 12.925 23.3534 12.5405Z" fill="#83BFC4"/>
<path d="M10.1675 37.663L6.81122 39.0532C5.88437 39.4371 5.44432 40.4996 5.82819 41.4265C6.21157 42.3519 7.27332 42.794 8.2015 42.4095L11.5577 41.0194C12.4846 40.6355 12.9246 39.5729 12.5408 38.6461C12.1569 37.7193 11.0944 37.2794 10.1675 37.663Z" fill="#83BFC4"/>
<path d="M51.8324 24.3369L55.1886 22.9467C56.1154 22.5628 56.5555 21.5002 56.1716 20.5734C55.7878 19.6465 54.7253 19.2066 53.7983 19.5903L50.4421 20.9805C49.5152 21.3644 49.0752 22.427 49.459 23.3538C49.8424 24.2792 50.9042 24.7212 51.8324 24.3369Z" fill="#83BFC4"/>
<path d="M20.981 50.4425L19.5909 53.7988C19.207 54.7256 19.6471 55.7881 20.5739 56.1721C21.5045 56.5574 22.5648 56.1121 22.9472 55.189L24.3374 51.8328C24.7213 50.9059 24.2812 49.8435 23.3544 49.4595C22.4274 49.0757 21.3649 49.5157 20.981 50.4425Z" fill="#83BFC4"/>
<path d="M41.0195 11.5574L42.4097 8.20121C42.7935 7.27436 42.3535 6.21188 41.4266 5.82789C40.4998 5.44414 39.4373 5.88408 39.0533 6.81093L37.6631 10.1672C37.2793 11.094 37.7193 12.1565 38.6462 12.5405C39.5768 12.9258 40.6372 12.4805 41.0195 11.5574Z" fill="#83BFC4"/>
<path d="M11.5577 20.9805L8.2015 19.5904C7.27465 19.2065 6.21217 19.6466 5.82819 20.5734C5.44432 21.5003 5.88437 22.5628 6.81122 22.9467L10.1675 24.3369C11.0981 24.7222 12.1584 24.277 12.5408 23.3539C12.9246 22.427 12.4846 21.3644 11.5577 20.9805Z" fill="#83BFC4"/>
<path d="M55.1886 39.0533L51.8324 37.6631C50.9055 37.2793 49.843 37.7193 49.459 38.6461C49.0752 39.573 49.5152 40.6355 50.4421 41.0195L53.7983 42.4096C54.7289 42.7949 55.7892 42.3497 56.1716 41.4266C56.5555 40.4997 56.1154 39.4371 55.1886 39.0533Z" fill="#83BFC4"/>
<path d="M29.1836 52.7969V60.1836C29.1836 61.1867 29.9969 62 31 62C32.0031 62 32.8164 61.1867 32.8164 60.1836V52.7969C32.8164 51.7937 32.0031 50.9805 31 50.9805C29.9969 50.9805 29.1836 51.7937 29.1836 52.7969Z" fill="#83BFC4"/>
<path d="M32.8164 9.20312V1.81641C32.8164 0.813266 32.0031 0 31 0C29.9969 0 29.1836 0.813266 29.1836 1.81641V9.20312C29.1836 10.2063 29.9969 11.0195 31 11.0195C32.0031 11.0195 32.8164 10.2063 32.8164 9.20312Z" fill="#83BFC4"/>
<path d="M0 31C0 32.0031 0.813266 32.8164 1.81641 32.8164H9.20312C10.2063 32.8164 11.0195 32.0031 11.0195 31C11.0195 29.9969 10.2063 29.1836 9.20312 29.1836H1.81641C0.813266 29.1836 0 29.9969 0 31Z" fill="#83BFC4"/>
<path d="M60.1836 29.1836H52.7969C51.7937 29.1836 50.9805 29.9969 50.9805 31C50.9805 32.0031 51.7937 32.8164 52.7969 32.8164H60.1836C61.1867 32.8164 62 32.0031 62 31C62 29.9969 61.1867 29.1836 60.1836 29.1836Z" fill="#83BFC4"/>
</svg>
