<svg width="16" height="19" viewBox="0 0 16 19" fill="none" xmlns="http://www.w3.org/2000/svg">
<path fill-rule="evenodd" clip-rule="evenodd" d="M9.13636 0V1.66053C8.04152 1.47552 7.16291 1.47933 6.09091 1.66053V0H9.13636ZM15.2273 10.6591C15.2273 14.8641 11.8179 18.2727 7.61364 18.2727C3.40939 18.2727 0 14.8641 0 10.6591C0 6.45408 3.40939 3.04545 7.61364 3.04545C11.8179 3.04545 15.2273 6.45408 15.2273 10.6591ZM13.7045 10.6591C13.7045 7.30072 10.972 4.56818 7.61364 4.56818C4.25526 4.56818 1.52273 7.30072 1.52273 10.6591C1.52273 14.0175 4.25526 16.75 7.61364 16.75C10.972 16.75 13.7045 14.0175 13.7045 10.6591ZM14.2215 4.36642L15.2273 3.36066L14.1507 2.28409L13.0795 3.35533C13.4876 3.6614 13.8698 3.99792 14.2215 4.36642ZM7.61364 10.6591V6.09091C10.133 6.09091 12.1818 8.13974 12.1818 10.6591H7.61364Z" fill="#83BFC4"/>
</svg>
