<?xml version="1.0" encoding="UTF-8"?>
<svg width="156px" height="156px" viewBox="0 0 156 156" version="1.1" xmlns="http://www.w3.org/2000/svg" xmlns:xlink="http://www.w3.org/1999/xlink">
    <title>Цифровой детокс</title>
    <g id="Page-1" stroke="none" stroke-width="1" fill="none" fill-rule="evenodd">
        <g id="Главная-мобилка" transform="translate(-147.000000, -8082.000000)" fill="#83BFC4" fill-rule="nonzero">
            <g id="Цифровой-детокс" transform="translate(224.742229, 8159.628103) rotate(-20.000000) translate(-224.742229, -8159.628103) translate(164.242229, 8099.128103)">
                <g id="Group" transform="translate(12.000000, 12.000000)">
                    <path d="M55.3026011,101.875713 L54.9085836,100.180912 L60.682595,98.8385354 L61.0766125,100.533336 L62.8298549,100.125732 L62.0771456,96.8880778 L60.9316939,97.1543793 L59.3882322,90.5154349 L53.0999363,91.9773758 L53.6015324,94.5588485 C53.8573122,95.8710134 53.9654246,96.9012947 53.9258694,97.6496926 C53.8863142,98.3980905 53.6228943,98.8371462 53.1356096,98.9668598 L53.1356096,98.9668598 L52.8083377,99.042946 L53.5493587,102.283318 L55.3026011,101.875713 Z M59.0615687,97.5891572 L55.4031364,98.4396916 C55.5878156,98.0682221 55.6659537,97.5387748 55.6375506,96.8513497 C55.6091476,96.1639246 55.5012031,95.3286713 55.3137172,94.3455899 L55.3137172,94.3455899 L55.0716111,93.1452331 L57.8767988,92.4930661 L59.0615687,97.5891572 Z M74.8381235,93.8189871 C75.5603162,93.3302931 76.1042664,92.7352148 76.4699741,92.0337522 C76.8356819,91.3322896 76.9992348,90.5961656 76.9606328,89.8253804 C76.9220308,89.0545951 76.6718331,88.3279831 76.2100397,87.6455441 C75.7482464,86.9631052 75.1667677,86.4606646 74.4656036,86.1382225 C73.7644395,85.8157803 73.0202824,85.6938864 72.2331322,85.7725406 C71.4459819,85.8511949 70.6913105,86.1348691 69.9691178,86.623563 C69.2469252,87.1122569 68.7013185,87.7084561 68.332298,88.4121604 C67.9632774,89.1158648 67.7997245,89.8519887 67.8416393,90.6205323 C67.8835541,91.3890758 68.1354082,92.114567 68.5972016,92.7970059 C69.0589949,93.4794449 69.6388172,93.9830063 70.3366685,94.3076902 C71.0345197,94.6323741 71.7786769,94.754268 72.5691399,94.673372 C73.359603,94.592476 74.1159308,94.307681 74.8381235,93.8189871 Z M73.9100534,92.4474836 C73.4992649,92.7254563 73.0643412,92.8821133 72.6052824,92.9174547 C72.1462236,92.952796 71.7079516,92.8654022 71.2904665,92.6552733 C70.8729813,92.4451445 70.5185273,92.1247474 70.2271043,91.694082 C69.9356813,91.2634167 69.7700574,90.8152418 69.7302326,90.3495573 C69.6904078,89.8838729 69.7722471,89.4445298 69.9757503,89.0315281 C70.1792536,88.6185264 70.4863995,88.2730392 70.897188,87.9950665 C71.3079764,87.7170938 71.7429001,87.5604368 72.2019589,87.5250954 C72.6610177,87.4897541 73.0992897,87.5771478 73.5167748,87.7872767 C73.93426,87.9974056 74.2887141,88.3178027 74.5801371,88.7484681 C74.87156,89.1791334 75.0371839,89.6273083 75.0770087,90.0929927 C75.1168335,90.5586772 75.0349942,90.9980202 74.831491,91.411022 C74.6279877,91.8240237 74.3208418,92.1695109 73.9100534,92.4474836 Z M88.5863172,82.250168 C89.2171535,81.3735577 89.5171587,80.5594835 89.4863327,79.8079452 C89.4555068,79.0564069 89.0991898,78.4353126 88.4173818,77.9446621 C87.7680409,77.4773759 87.1159224,77.3358078 86.4610264,77.5199579 C85.8061304,77.7041079 85.1819557,78.2085144 84.5885023,79.0331774 L84.5885023,79.0331774 L83.2286995,80.9227595 L81.8261231,79.9134213 L84.6578773,75.9784154 L83.4014027,75.0742166 L79.4411524,80.5773809 L86.259232,85.4838857 L88.5863172,82.250168 Z M87.3544199,81.4967139 L86.2189145,83.0746123 L84.3877731,81.7568653 L85.5232785,80.1789669 C86.1214048,79.3478105 86.7191648,79.1471839 87.3165584,79.5770872 C87.6217486,79.7967117 87.7767858,80.0709078 87.7816699,80.3996754 C87.786554,80.728443 87.6441373,81.0941225 87.3544199,81.4967139 L87.3544199,81.4967139 Z M96.4007189,69.6813656 L94.1770531,69.0339348 L94.6500466,67.4093914 C94.8580296,66.6950532 94.9214808,66.0407032 94.8404003,65.4463414 C94.7593199,64.8519796 94.5393222,64.3484033 94.1804074,63.9356126 C93.8214926,63.5228219 93.3463145,63.2303261 92.7548732,63.0581252 C92.1557508,62.8836879 91.5959066,62.874832 91.0753405,63.0315577 C90.5547744,63.1882834 90.0988391,63.4950585 89.7075346,63.9518832 C89.3162301,64.4087079 89.0165864,64.9942894 88.8086034,65.7086276 L88.8086034,65.7086276 L87.7921706,69.1996676 L95.8572795,71.5478622 L96.4007189,69.6813656 Z M93.0990064,67.0702832 L92.656204,68.5911324 L89.8564591,67.7759734 L90.2992615,66.2551243 C90.4625169,65.6944072 90.7076124,65.3033315 91.0345479,65.0818972 C91.3614835,64.8604629 91.7515424,64.8157188 92.2047247,64.947665 C92.650226,65.0773748 92.9514621,65.3233927 93.1084331,65.6857186 C93.2654041,66.0480446 93.2622619,66.5095662 93.0990064,67.0702832 L93.0990064,67.0702832 Z M100.065003,51.3766519 C100.006405,50.506623 99.7661455,49.7370286 99.3442248,49.0678688 C98.922304,48.3987089 98.3686497,47.8867569 97.6832619,47.5320125 C96.9978741,47.1772682 96.2441115,47.0275821 95.4219741,47.0829543 C94.5998367,47.1383265 93.8729537,47.3877362 93.2413253,47.8311835 C92.6096969,48.2746309 92.129693,48.8562014 91.8013136,49.575895 C91.4729342,50.2955887 91.3380433,51.09045 91.3966411,51.9604789 C91.4552388,52.8305078 91.6956324,53.6020976 92.117822,54.2752484 C92.5400115,54.9483992 93.0936658,55.4603513 93.7787848,55.8111047 C94.4639039,56.161858 95.2175321,56.3095486 96.0396695,56.2541765 C96.8618069,56.1988043 97.5888242,55.95139 98.2207214,55.5119337 C98.8526187,55.0724773 99.3326226,54.4909068 99.6607332,53.7672222 C99.9888438,53.0435376 100.1236,52.2466808 100.065003,51.3766519 Z M98.4127458,51.4879338 C98.4460766,51.9828127 98.3624395,52.4374607 98.1618346,52.851878 C97.9612297,53.2662952 97.6650491,53.6009548 97.2732927,53.8558567 C96.8815364,54.1107586 96.426246,54.2556814 95.9074214,54.290625 C95.3885968,54.3255686 94.9179849,54.2430067 94.4955858,54.0429394 C94.0731866,53.8428721 93.7348048,53.5509512 93.4804405,53.1671768 C93.2260762,52.7834024 93.0822286,52.3440758 93.0488978,51.8491969 C93.015567,51.3543181 93.099204,50.8996701 93.299809,50.4852528 C93.5004139,50.0708356 93.7965945,49.736176 94.1883508,49.4812741 C94.5801072,49.2263721 95.0353976,49.0814494 95.5542222,49.0465058 C96.0730468,49.0115622 96.5436586,49.094124 96.9660578,49.2941914 C97.388457,49.4942587 97.7268387,49.7861796 97.9812031,50.169954 C98.2355674,50.5537284 98.3794149,50.993055 98.4127458,51.4879338 Z M93.0410668,25.1073781 L87.6693324,29.3028906 L85.3352092,26.3143905 L90.7069436,22.1188779 L89.5177226,20.5962561 L82.8976274,25.7667821 L87.6101926,31.800526 L94.2302878,26.6299999 L93.0410668,25.1073781 Z M79.6530613,10.6235649 C78.9095546,10.1679533 78.1428526,9.91861827 77.3529551,9.87555965 C76.5630577,9.83250103 75.8251581,9.9878466 75.1392565,10.3415964 C74.4533548,10.6953461 73.8951379,11.2235108 73.464606,11.9260905 C73.034074,12.6286702 72.8169152,13.365831 72.8130761,14.137573 C72.8093443,14.909315 73.0059439,15.6373099 73.4029286,16.3215577 C73.7999134,17.0058055 74.3701591,17.5757352 75.1136658,18.0313467 C75.8571724,18.4869583 76.6255797,18.7373383 77.4188878,18.7824869 C78.2121958,18.8276355 78.9500953,18.6722899 79.6325864,18.3164502 C80.3150775,17.9606105 80.8715891,17.4314008 81.302121,16.7288211 C81.732653,16.0262414 81.9515171,15.2901256 81.9587131,14.5204736 C81.9659092,13.7508216 81.7693096,13.0228266 81.3689142,12.3364888 C80.9685189,11.650151 80.3965679,11.0791764 79.6530613,10.6235649 Z M78.7878174,12.0355454 C79.2107294,12.2947006 79.5331506,12.6259778 79.7550809,13.029377 C79.9770112,13.4327762 80.0785899,13.8679793 80.059817,14.3349864 C80.0410441,14.8019934 79.8958101,15.2571847 79.6241152,15.7005602 C79.3524203,16.1439358 79.0127832,16.4799993 78.6052041,16.7087507 C78.1976249,16.9375022 77.7637424,17.0445815 77.3035565,17.0299885 C76.8433706,17.0153955 76.4018217,16.8785214 75.9789096,16.6193662 C75.5559976,16.360211 75.2335764,16.0289338 75.0116461,15.6255346 C74.7897158,15.2221354 74.6881371,14.7869323 74.70691,14.3199252 C74.7256829,13.8529182 74.8709169,13.3977269 75.1426118,12.9543514 C75.4143067,12.5109758 75.7539438,12.1749123 76.1615229,11.9461609 C76.5691021,11.7174094 77.0029846,11.6103301 77.4631705,11.6249231 C77.9233564,11.6395161 78.3649053,11.7763902 78.7878174,12.0355454 Z M66.2494645,3.65180297 L63.8483782,6.6908319 L62.6164508,6.49118523 L63.1578004,3.1507666 L61.2743729,2.84553756 L60.7330233,6.18595618 L59.5247867,5.99014887 L58.2063998,2.34834056 L55.9912995,1.98936048 L57.7643971,6.72601044 L54.8015147,10.3061356 L56.8270877,10.6344008 L59.2419391,7.58544608 L60.4738665,7.78509276 L59.9305972,11.1373568 L61.8140247,11.4425859 L62.357294,8.0903218 L63.6247578,8.29572751 L64.9412251,11.9493813 L66.9667981,12.2776465 L65.2744163,7.94308727 L68.4645647,4.01078304 L66.2494645,3.65180297 Z M46.2773965,1.19798773 L45.9498247,3.11794417 L42.146361,3.98030359 L41.0227651,2.38937044 L39.033261,2.84045076 L44.5536787,10.202008 L46.4261531,9.77746181 L48.2200887,0.757521072 L46.2773965,1.19798773 Z M43.0695821,5.28444423 L45.6676404,4.6953864 L45.0797261,8.12631001 L43.0695821,5.28444423 Z M29.986854,5.17599544 C29.4520028,5.52746973 29.144559,5.96643026 29.0645228,6.49287702 C28.9844865,7.01932378 29.0841508,7.6334956 29.3635158,8.33539246 C29.6428808,9.03728933 30.0931596,9.89730152 30.7143523,10.9154291 L30.7143523,10.9154291 L31.6263709,12.412535 L29.2195404,13.9941693 L25.4763392,8.29800381 L23.8717856,9.35242668 L28.4848856,16.3723489 L33.8801972,12.826852 L32.1088813,9.91286786 C31.5075545,8.91040382 31.1333011,8.12966419 30.986121,7.57064898 C30.8389408,7.01163377 30.9592343,6.60471673 31.3470015,6.34989787 C31.4539717,6.27960301 31.5597003,6.22926958 31.6641874,6.19889757 L31.6641874,6.19889757 L30.8616224,4.75909708 C30.4990696,4.89204618 30.2074801,5.0310123 29.986854,5.17599544 Z M13.1052346,18.3856504 C12.5913962,19.0901744 12.2813058,19.8343813 12.1749635,20.6182712 C12.0686212,21.4021611 12.1642175,22.1501513 12.4617525,22.8622418 C12.7592874,23.5743324 13.2409263,24.1731545 13.9066692,24.6587082 C14.5724121,25.1442619 15.2897567,25.4199079 16.0587031,25.4856462 C16.8276494,25.5513844 17.5690793,25.4138719 18.2829928,25.0731088 C18.9969063,24.7323456 19.6107822,24.209702 20.1246207,23.505178 C20.6384591,22.800654 20.949728,22.0548312 21.0584273,21.2677096 C21.1671267,20.4805879 21.0715304,19.7325977 20.7716384,19.023739 C20.4717463,18.3148802 19.9889289,17.7176739 19.323186,17.2321202 C18.6574431,16.7465665 17.9412771,16.4693046 17.1746878,16.4003346 C16.4080985,16.3313646 15.6666686,16.4688771 14.950398,16.812872 C14.2341275,17.1568669 13.619073,17.6811264 13.1052346,18.3856504 Z M14.4431839,19.361472 C14.7354589,18.9607335 15.0915545,18.6659524 15.5114706,18.4771284 C15.9313867,18.2883045 16.3733407,18.2219973 16.8373326,18.2782067 C17.3013246,18.3344161 17.743385,18.5157295 18.163514,18.8221469 C18.583643,19.1285643 18.8913512,19.4940881 19.0866387,19.9187183 C19.2819261,20.3433485 19.3538222,20.7844278 19.3023269,21.2419562 C19.2508316,21.6994846 19.0789464,22.128618 18.7866714,22.5293565 C18.4943963,22.9300949 18.1383007,23.2248761 17.7183846,23.4137 C17.2984685,23.6025239 16.8565145,23.6688311 16.3925226,23.6126217 C15.9285307,23.5564123 15.4864702,23.3750989 15.0663412,23.0686815 C14.6462122,22.7622641 14.338504,22.3967403 14.1432166,21.9721101 C13.9479291,21.5474799 13.8760331,21.1064006 13.9275283,20.6488722 C13.9790236,20.1913438 14.1509088,19.7622104 14.4431839,19.361472 Z M4.06975326,34.0834281 C3.78539536,35.0921126 3.7668972,35.9243132 4.01425878,36.5800298 C4.26162036,37.2357464 4.74334568,37.6645409 5.45943473,37.8664133 C5.94452732,38.0031656 6.38952249,37.9873131 6.79442024,37.818856 C7.19931799,37.6503988 7.54437722,37.3403954 7.82959792,36.8888457 C7.90467368,37.3006656 8.06606551,37.6495448 8.31377342,37.9354832 C8.56148133,38.2214216 8.88553222,38.4208283 9.2859261,38.5337032 C9.95581586,38.7225516 10.5455108,38.6061905 11.0550109,38.1846201 C11.564511,37.7630496 11.9516719,37.0825716 12.2164938,36.1431859 L12.2164938,36.1431859 L13.2779519,32.3779435 L5.19307548,30.098739 L4.06975326,34.0834281 Z M8.91262909,35.0372465 L9.40428606,33.2932232 L11.3677561,33.8467443 L10.8760991,35.5907676 C10.7632242,35.9911615 10.5922413,36.2733544 10.3631505,36.4373464 C10.1340596,36.6013384 9.86166657,36.6388357 9.5459714,36.5498382 C9.22257634,36.45867 9.00740913,36.2858028 8.90046978,36.0312365 C8.79353043,35.7766703 8.79758353,35.4453403 8.91262909,35.0372465 L8.91262909,35.0372465 Z M5.47526811,34.4048499 L6.05483726,32.3489813 L8.09915601,32.9252944 L7.51958687,34.981163 C7.27213038,35.8589496 6.81345725,36.2034187 6.14356749,36.0145703 C5.45057808,35.81921 5.22781162,35.2826365 5.47526811,34.4048499 L5.47526811,34.4048499 Z M0.994654528,47.5973051 L2.84156187,48.2157461 L3.10978932,52.1065113 L1.36522107,52.9725469 L1.50552466,55.0077164 L9.62731071,50.6828895 L9.49526027,48.7674359 L0.857652198,45.6100219 L0.994654528,47.5973051 Z M4.54020324,51.3944467 L4.35698325,48.7367548 L7.65697811,49.8444162 L4.54020324,51.3944467 Z M3.9226812,67.1444059 L10.1941313,64.4748049 L11.2469317,66.9480529 L12.7043814,66.3276527 L9.85148036,59.6255924 L8.39403068,60.2459926 L9.44213106,62.7081993 L3.17068093,65.3778002 L3.9226812,67.1444059 Z M11.4536004,80.8758771 C12.1837792,81.6932234 12.936506,82.1605588 13.7117807,82.2778834 C14.4870555,82.395208 15.2296717,82.1367489 15.9396294,81.502506 C16.6078249,80.9055715 16.9294098,80.2508692 16.9043842,79.538399 C16.8793586,78.8259289 16.5257404,78.0878678 15.8435296,77.3242158 L15.8435296,77.3242158 L14.4204804,75.7312855 L16.4787612,73.8925141 L15.1916212,72.4517175 L8.92728839,78.0479783 L11.4536004,80.8758771 Z M12.4555341,79.8359767 L11.288314,78.5294158 L13.3465948,76.6906444 L14.5138149,77.9972053 C15.2280043,78.7966535 15.2599504,79.4868501 14.609653,80.0677953 C14.2576571,80.3822519 13.8945823,80.5161946 13.5204284,80.4696234 C13.1462745,80.4230522 12.7913097,80.2118367 12.4555341,79.8359767 L12.4555341,79.8359767 Z M31.8302594,94.8251954 C32.2256287,94.9545752 32.6074801,94.9259131 32.9758136,94.7392089 C33.344147,94.5525048 33.5954918,94.2538648 33.7298477,93.843289 C33.8642037,93.4327132 33.8374076,93.0451594 33.6494594,92.6806275 C33.4615112,92.3160957 33.1698525,92.0691398 32.7744832,91.93976 C32.3791139,91.8103802 31.9978845,91.8371416 31.6307951,92.0200441 C31.2637056,92.2029466 31.0129829,92.4996858 30.878627,92.9102616 C30.744271,93.3208374 30.7704451,93.710292 30.9571493,94.0786255 C31.1438534,94.446959 31.4348901,94.6958156 31.8302594,94.8251954 Z" id="ДОБРОПОЖАЛОВАТЬ•"></path>
                </g>
                <path d="M60.3159597,0.879385242 C27.1788747,0.879385242 0.315959713,27.7423003 0.315959713,60.8793852 C0.315959713,94.0164702 27.1788747,120.879385 60.3159597,120.879385 C93.4530447,120.879385 120.31596,94.0164702 120.31596,60.8793852 C120.31596,27.7423003 93.4530447,0.879385242 60.3159597,0.879385242 Z M60.3159597,2.87938524 C92.3484752,2.87938524 118.31596,28.8468698 118.31596,60.8793852 C118.31596,92.9119007 92.3484752,118.879385 60.3159597,118.879385 C28.2834442,118.879385 2.31595971,92.9119007 2.31595971,60.8793852 C2.31595971,28.8468698 28.2834442,2.87938524 60.3159597,2.87938524 Z" id="Oval-Copy-7"></path>
                <g id="004-road-sign-2" transform="translate(36.978961, 28.873672)">
                    <path d="M35.6527688,56.8162595 L31.652772,56.8162595 L31.652772,56.5429575 C31.652772,54.6296085 30.7194891,52.7162595 28.9860692,51.622934 C28.186047,51.0762125 27.6527752,49.982887 27.6527752,49.0262712 L27.6527752,37.682887 L34.3194747,37.682887 C35.119497,37.682887 35.6527688,37.1361655 35.6527688,36.3162595 L35.6527688,25.382887 C35.6527688,24.5628635 35.1193824,24.0162595 34.3194747,24.0162595 L27.6527752,24.0162595 L27.6527752,19.9162595 C27.6527752,19.096236 27.1193888,18.549632 26.3194811,18.549632 C25.5194588,18.549632 24.9861775,19.0963535 24.9861775,19.9162595 L24.9861775,25.382887 C24.9861775,25.7928988 25.1195623,26.0662008 25.3861982,26.3395028 C25.6528341,26.6128048 25.9195845,26.7495145 26.3195957,26.7495145 L32.9862952,26.7495145 L32.9862952,34.9495145 L26.3195957,34.9495145 C25.5195734,34.9495145 24.9863016,35.496236 24.9863016,36.3161421 L24.9863016,48.8895615 C24.9863016,50.8029105 25.9196991,52.7162595 27.6530043,53.809585 C28.4530266,54.3563065 28.9862984,55.449632 28.9862984,56.4062478 L28.9862984,56.8162595 L18.319602,56.8162595 L18.319602,56.5429575 C18.319602,55.449632 18.8529884,54.4928988 19.7862714,53.809585 C21.3863159,52.7162595 22.3195989,50.8029105 22.3195989,48.8895615 L22.3195989,36.3162595 C22.3195989,35.496236 21.7862125,34.949632 20.9863048,34.949632 L8.18606288,34.949632 L4.18606607,30.849632 L8.18606288,26.749632 L15.6527847,26.749632 C16.452807,26.749632 16.9860788,26.2029105 16.9860788,25.3830045 C16.9860788,24.562981 16.4526924,24.016377 15.6527847,24.016377 L7.65279109,24.016377 C7.25277995,24.016377 6.98614405,24.1530867 6.71950815,24.4263887 L1.38621725,29.8930162 C0.852830872,30.4397377 0.852830872,31.2596437 1.38621725,31.8063652 L6.71950815,37.2729927 C6.98614405,37.5462947 7.25289453,37.6830045 7.65279109,37.6830045 L19.6527815,37.6830045 L19.6527815,48.889679 C19.6527815,49.9830045 19.1193952,50.9397377 18.1861122,51.6230514 C16.5860677,52.716377 15.6527847,54.4930162 15.6527847,56.5430749 L15.6527847,56.816377 L11.6527879,56.816377 C10.8527656,56.816377 10.3194938,57.3630984 10.3194938,58.1830045 C10.3194938,59.0029105 10.8527656,59.549632 11.6527879,59.549632 L35.6528834,59.549632 C36.4529057,59.549632 36.9861775,59.0029105 36.9861775,58.1830045 C36.9861775,57.3630984 36.4527911,56.8162595 35.6527688,56.8162595 Z" id="Path"></path>
                    <path d="M46.7263744,14.5960902 L41.341808,9.19611342 C41.0726086,8.92614359 40.8032935,8.79110066 40.3994365,8.79110066 L28.2840753,8.79110066 L28.2840753,4.74097304 C28.2840753,2.4459394 26.5341056,0.690961441 24.2456215,0.690961441 C21.9571374,0.690961441 20.2071678,2.4459394 20.2071678,4.74097304 L20.2071678,8.79098464 L13.476373,8.79098464 C12.6686591,8.79098464 12.1302603,9.33104033 12.1302603,10.1409498 L12.1302603,20.9410194 C12.1302603,21.751045 12.6687748,22.2909846 13.476373,22.2909846 L20.2071678,22.2909846 L20.2071678,26.3409962 C20.2071678,27.1510218 20.7456823,27.6909614 21.5532805,27.6909614 C22.3608787,27.6909614 22.8993931,27.1509058 22.8993931,26.3409962 L22.8993931,20.9410194 C22.8993931,20.1309939 22.3608787,19.5910543 21.5532805,19.5910543 L14.8224856,19.5910543 L14.8224856,11.4910311 L21.5532805,11.4910311 C22.3609943,11.4910311 22.8993931,10.9509754 22.8993931,10.1410659 L22.8993931,4.74097304 C22.8993931,3.93094752 23.4379076,3.39100785 24.2455058,3.39100785 C25.053104,3.39100785 25.5916185,3.93106354 25.5916185,4.74097304 L25.5916185,10.1409498 C25.5916185,10.9509754 26.130133,11.490915 26.9377312,11.490915 L39.8608064,11.490915 L43.8994915,15.5410427 L39.8610377,19.5910543 L32.322529,19.5910543 C31.5148151,19.5910543 30.9764163,20.1311099 30.9764163,20.9410194 C30.9764163,21.750929 31.5149308,22.2909846 32.322529,22.2909846 L40.3994365,22.2909846 C40.8032935,22.2909846 41.0724929,22.1559417 41.341808,21.8859719 L46.7263744,16.4859951 C47.2648889,15.9460554 47.2648889,15.1360299 46.7263744,14.5960902 Z" id="Path"></path>
                </g>
            </g>
        </g>
    </g>
</svg>