<?xml version="1.0" encoding="UTF-8"?>
<svg width="216px" height="216px" viewBox="0 0 216 216" version="1.1" xmlns="http://www.w3.org/2000/svg" xmlns:xlink="http://www.w3.org/1999/xlink">
    <title>welcome</title>
    <g id="Page-1" stroke="none" stroke-width="1" fill="none" fill-rule="evenodd">
        <g id="Главная" transform="translate(-937.000000, -7747.000000)" fill="#83BFC4" fill-rule="nonzero">
            <g id="welcome" transform="translate(1045.062977, 7855.111513) rotate(-20.000000) translate(-1045.062977, -7855.111513) translate(961.062977, 7771.111513)">
                <path d="M86.1329094,155.548773 L85.971458,153.81628 L91.8738839,153.266232 L92.0353352,154.998725 L93.8275698,154.831706 L93.5191421,151.522047 L92.3482155,151.631165 L91.7157717,144.84457 L85.2876237,145.443611 L85.435885,148.069181 C85.512057,149.403871 85.4799954,150.439313 85.3397002,151.175507 C85.199405,151.9117 84.8790868,152.311145 84.3787458,152.373841 L84.3787458,152.373841 L84.0441953,152.405018 L84.3406748,155.715792 L86.1329094,155.548773 Z M90.4364986,151.809319 L86.6967025,152.157831 C86.9298714,151.814715 87.0788173,151.300677 87.1435403,150.615717 C87.2082634,149.930756 87.2141445,149.088577 87.1611839,148.08918 L87.1611839,148.08918 L87.0834559,146.86712 L89.9510312,146.59989 L90.4364986,151.809319 Z M101.981771,151.506967 C102.819148,151.26369 103.519569,150.864428 104.083035,150.309181 C104.646501,149.753935 105.028226,149.103617 105.228212,148.358227 C105.428198,147.612838 105.413248,146.844502 105.183362,146.053219 C104.953476,145.261936 104.554408,144.605195 103.986158,144.082996 C103.417908,143.560796 102.747151,143.216249 101.973887,143.049354 C101.200622,142.882459 100.395301,142.92065 99.5579244,143.163927 C98.7205475,143.407205 98.0182057,143.807025 97.4508989,144.363387 C96.8835921,144.919749 96.5018663,145.570067 96.3057217,146.314341 C96.109577,147.058614 96.1264477,147.826393 96.3563337,148.617675 C96.5862197,149.408958 96.983367,150.066257 97.5477757,150.589572 C98.1121844,151.112888 98.7829416,151.457435 99.5600472,151.623214 C100.337153,151.788993 101.144394,151.750244 101.981771,151.506967 Z M101.519767,149.916719 C101.043461,150.055097 100.581444,150.07061 100.133717,149.963258 C99.6859903,149.855906 99.2957396,149.638134 98.9629654,149.309944 C98.6301912,148.981753 98.3912672,148.56798 98.2461935,148.068627 C98.1011198,147.569274 98.081143,147.091893 98.1862631,146.636483 C98.2913833,146.181074 98.5041976,145.788098 98.8247062,145.457556 C99.1452148,145.127013 99.5436222,144.892553 100.019928,144.754175 C100.496234,144.615797 100.958251,144.600284 101.405978,144.707636 C101.853705,144.814988 102.243956,145.03276 102.57673,145.360951 C102.909504,145.689142 103.148428,146.102914 103.293502,146.602267 C103.438576,147.10162 103.458553,147.579001 103.353432,148.034411 C103.248312,148.48982 103.035498,148.882796 102.714989,149.213339 C102.394481,149.543881 101.996073,149.778341 101.519767,149.916719 Z M114.34751,146.816185 C115.312837,146.331888 115.956037,145.749639 116.277111,145.06944 C116.598185,144.38924 116.570384,143.673735 116.193708,142.922925 C115.834969,142.207868 115.322778,141.78013 114.657133,141.639711 C113.991489,141.499292 113.204605,141.656882 112.296483,142.11248 L112.296483,142.11248 L110.215667,143.15641 L109.440791,141.611887 L113.774037,139.43793 L113.079877,138.054295 L107.019769,141.094605 L110.786526,148.602704 L114.34751,146.816185 Z M113.605248,145.577512 L111.867659,146.449247 L110.856016,144.432787 L112.593604,143.561051 C113.508877,143.101866 114.131534,143.201199 114.461573,143.859052 C114.63018,144.195129 114.640445,144.509953 114.492367,144.803526 C114.344289,145.097099 114.048583,145.355094 113.605248,145.577512 L113.605248,145.577512 Z M123.016244,141.898075 L121.640323,140.035094 L123.001361,139.029888 C123.599831,138.587882 124.046992,138.105962 124.342842,137.584126 C124.638692,137.06229 124.769026,136.528435 124.733844,135.982561 C124.698662,135.436687 124.49809,134.915996 124.132129,134.420488 C123.761414,133.918545 123.321553,133.572098 122.812545,133.381145 C122.303537,133.190192 121.754961,133.157752 121.166817,133.283825 C120.578673,133.409898 119.985365,133.693938 119.386895,134.135944 L119.386895,134.135944 L116.462112,136.296068 L121.452498,143.052993 L123.016244,141.898075 Z M121.973442,137.819887 L120.699279,138.760931 L118.966901,136.415313 L120.241064,135.474269 C120.710832,135.127318 121.142839,134.964894 121.537087,134.986998 C121.931335,135.009101 122.268665,135.20999 122.549077,135.589665 C122.824737,135.962904 122.915154,136.34118 122.82033,136.724493 C122.725505,137.107805 122.443209,137.472936 121.973442,137.819887 L121.973442,137.819887 Z M133.735675,133.041948 C134.333741,132.407361 134.734637,131.707874 134.938363,130.943487 C135.14209,130.1791 135.14097,129.425026 134.935006,128.681267 C134.729041,127.937507 134.326231,127.283054 133.726575,126.717909 C133.12692,126.152764 132.449767,125.789407 131.695118,125.627837 C130.940469,125.466268 130.187652,125.509794 129.436667,125.758418 C128.685682,126.007042 128.011157,126.448647 127.413091,127.083234 C126.815025,127.717822 126.412757,128.418764 126.206287,129.186062 C125.999817,129.95336 126.000937,130.707434 126.209645,131.448282 C126.418353,132.189131 126.822534,132.842128 127.42219,133.407273 C128.021846,133.972418 128.697627,134.337231 129.449532,134.501712 C130.201438,134.666193 130.954255,134.622666 131.707983,134.371131 C132.461712,134.119596 133.137609,133.676536 133.735675,133.041948 Z M132.530541,131.906171 C132.190357,132.267129 131.800132,132.514968 131.359865,132.649688 C130.919599,132.784408 130.47282,132.794816 130.019527,132.680911 C129.566235,132.567006 129.150378,132.331731 128.771954,131.975086 C128.393531,131.618441 128.134048,131.217242 127.993506,130.771488 C127.852964,130.325735 127.836902,129.879123 127.94532,129.431653 C128.053738,128.984183 128.27804,128.579969 128.618224,128.219011 C128.958409,127.858053 129.348634,127.610215 129.7889,127.475495 C130.229167,127.340775 130.675946,127.330367 131.129238,127.444272 C131.58253,127.558177 131.998388,127.793452 132.376811,128.150097 C132.755235,128.506742 133.014718,128.907941 133.15526,129.353694 C133.295801,129.799448 133.311863,130.246059 133.203445,130.693529 C133.095027,131.141 132.870726,131.545214 132.530541,131.906171 Z M144.438796,118.915746 L138.376406,115.800416 L140.109582,112.427678 L146.171973,115.543008 L147.055015,113.824619 L139.583759,109.985304 L136.084498,116.79482 L143.555754,120.634135 L144.438796,118.915746 Z M150.560543,105.261264 C150.808366,104.425221 150.850932,103.620119 150.68824,102.84596 C150.525549,102.0718 150.184651,101.399181 149.665547,100.828102 C149.146442,100.257023 148.491879,99.8543934 147.701857,99.6202118 C146.911835,99.3860301 146.143591,99.366906 145.397126,99.5628392 C144.650661,99.7587724 143.998279,100.136959 143.439979,100.6974 C142.88168,101.257841 142.478618,101.956082 142.230795,102.792125 C141.982972,103.628168 141.939838,104.435187 142.101392,105.213182 C142.262947,105.991177 142.603845,106.663796 143.124086,107.231039 C143.644328,107.798283 144.299459,108.198995 145.089481,108.433177 C145.879503,108.667359 146.647179,108.6884 147.392507,108.496302 C148.137835,108.304204 148.790218,107.926017 149.349654,107.361741 C149.90909,106.797466 150.31272,106.097306 150.560543,105.261264 Z M148.972829,104.790627 C148.831865,105.266174 148.595244,105.663302 148.262965,105.98201 C147.930686,106.300718 147.53656,106.511394 147.080586,106.614038 C146.624612,106.716683 146.147347,106.694113 145.648789,106.546328 C145.150231,106.398544 144.737763,106.157375 144.411385,105.822823 C144.085007,105.48827 143.869359,105.096842 143.764441,104.648539 C143.659523,104.200235 143.677546,103.738309 143.81851,103.262762 C143.959473,102.787215 144.196094,102.390087 144.528373,102.071379 C144.860652,101.752671 145.254778,101.541995 145.710752,101.43935 C146.166726,101.336706 146.643992,101.359276 147.142549,101.507061 C147.641107,101.654845 148.053575,101.896014 148.379953,102.230566 C148.706331,102.565118 148.921979,102.956546 149.026897,103.40485 C149.131815,103.853154 149.113792,104.315079 148.972829,104.790627 Z M152.871757,95.2343581 L149.654007,93.0786685 L149.756554,91.8348887 L153.129111,92.1129493 L153.28589,90.2114014 L149.913333,89.9333408 L150.013908,88.7134799 L153.541271,87.1139114 L153.725659,84.8774998 L149.142431,87.0161315 L145.341246,84.3427509 L145.172635,86.3878118 L148.401358,88.5564469 L148.298811,89.8002267 L144.914295,89.5211801 L144.757516,91.422728 L148.142032,91.7017746 L148.036527,92.9814326 L144.497204,94.580015 L144.328593,96.625076 L148.517287,94.5984043 L152.687369,97.4707698 L152.871757,95.2343581 Z M153.723271,79.9231839 L151.847492,79.39879 L151.383146,75.5265319 L153.081759,74.5735105 L152.83887,72.5480216 L144.945823,77.277435 L145.174424,79.1837774 L153.960445,81.9010141 L153.723271,79.9231839 Z M149.990512,76.3099159 L150.307696,78.954966 L146.95598,78.0153482 L149.990512,76.3099159 Z M152.229822,68.1236176 C152.03856,67.5128648 151.700783,67.0967945 151.21649,66.8754065 C150.732197,66.6540185 150.114247,66.5813709 149.36264,66.6574636 C148.611032,66.7335563 147.660488,66.9306292 146.511007,67.2486823 L146.511007,67.2486823 L144.821141,67.7150035 L143.960463,64.9666162 L150.464979,62.9296777 L149.891194,61.0974195 L141.875064,63.6077309 L143.804418,69.7686992 L147.092538,68.8647462 C148.221506,68.5614998 149.074963,68.4157884 149.652907,68.4276118 C150.230852,68.4394353 150.589157,68.6667449 150.727822,69.1095407 C150.766074,69.2316912 150.785472,69.3471717 150.786014,69.4559821 L150.786014,69.4559821 L152.390747,69.0791944 C152.362359,68.6940787 152.308717,68.3755531 152.229822,68.1236176 Z M146.367853,52.5245467 C145.956696,51.7555639 145.421243,51.1528286 144.761493,50.7163409 C144.101743,50.2798532 143.386551,50.0408352 142.615919,49.999287 C141.845287,49.9577388 141.096645,50.1312266 140.369991,50.5197504 C139.643338,50.9082741 139.083299,51.4345063 138.689874,52.0984469 C138.29645,52.7623876 138.098033,53.4898893 138.094581,54.2809521 C138.091214,55.0720149 138.295088,55.8520377 138.706244,56.6210205 C139.1174,57.3900034 139.653797,57.9945024 140.315433,58.4345175 C140.977069,58.8745327 141.69226,59.1135507 142.461006,59.1515714 C143.229752,59.1895922 143.977452,59.0143407 144.704106,58.6258169 C145.430759,58.2372931 145.991741,57.7128247 146.387052,57.0524115 C146.782362,56.3919983 146.980779,55.6644966 146.982311,54.8699063 C146.983825,54.0753161 146.779009,53.2935295 146.367853,52.5245467 Z M144.907491,53.3053663 C145.141359,53.7427694 145.252064,54.1915952 145.239603,54.6518438 C145.227142,55.1120923 145.094765,55.5389367 144.842469,55.9323768 C144.590174,56.325817 144.234743,56.6451295 143.776175,56.8903144 C143.317607,57.1354993 142.854672,57.2537475 142.387368,57.245059 C141.920065,57.2363706 141.491579,57.1094062 141.101911,56.8641659 C140.712243,56.6189257 140.400475,56.277604 140.166606,55.8402009 C139.932737,55.4027979 139.822033,54.9539721 139.834494,54.4937235 C139.846954,54.0334749 139.979332,53.6066306 140.231627,53.2131904 C140.483922,52.8197503 140.839354,52.5004378 141.297922,52.2552529 C141.756489,52.010068 142.219425,51.8918197 142.686728,51.9005082 C143.154032,51.9091967 143.582518,52.0361611 143.972186,52.2814013 C144.361854,52.5266416 144.673622,52.8679632 144.907491,53.3053663 Z M139.138498,41.2882363 C138.485726,40.4683628 137.820967,39.9673691 137.14422,39.7852552 C136.467473,39.6031412 135.838075,39.7437934 135.256028,40.2072118 C134.861738,40.5211404 134.614744,40.8916348 134.515047,41.3186952 C134.41535,41.7457555 134.465501,42.2068985 134.665499,42.7021242 C134.287351,42.52258 133.909892,42.4498605 133.53312,42.4839658 C133.156348,42.5180711 132.80524,42.6646815 132.479794,42.9237972 C131.935298,43.3573176 131.685395,43.9039698 131.730085,44.5637536 C131.774776,45.2235375 132.101084,45.9352026 132.709009,46.6987489 L132.709009,46.6987489 L135.145693,49.7591927 L141.717198,44.5270495 L139.138498,41.2882363 Z M135.536132,44.6625768 L136.66478,46.0801443 L135.068843,47.3508077 L133.940195,45.9332402 C133.68108,45.6077942 133.55185,45.3042029 133.552504,45.0224662 C133.553163,44.7407295 133.681792,44.4977098 133.938393,44.293407 C134.201254,44.0841213 134.467234,44.010402 134.736334,44.0722492 C135.005434,44.1340964 135.272034,44.3308723 135.536132,44.6625768 L135.536132,44.6625768 Z M138.056802,42.2415023 L139.387261,43.9125422 L137.725609,45.2355269 L136.39515,43.5644871 C135.827088,42.8510094 135.815306,42.2775104 136.359802,41.8439899 C136.923074,41.3955205 137.48874,41.5280246 138.056802,42.2415023 L138.056802,42.2415023 Z M133.251594,34.4728323 L131.501679,35.328012 L128.58068,32.7438751 L129.216121,30.9027478 L127.688214,29.5510454 L124.935528,38.331151 L126.373558,39.6033415 L134.743551,35.7927299 L133.251594,34.4728323 Z M128.061055,34.2548717 L130.056322,36.020036 L126.92777,37.5461547 L128.061055,34.2548717 Z M121.517039,25.1375369 L117.901174,30.9153713 L115.622591,29.4893961 L114.782284,30.8321323 L120.956836,34.6962705 L121.797143,33.3535343 L119.528733,31.9339251 L123.144599,26.1560906 L121.517039,25.1375369 Z M111.912614,20.0519897 C110.901646,19.6287164 110.021043,19.5310518 109.270805,19.7589959 C108.520566,19.98694 107.961617,20.539982 107.593956,21.4181218 C107.247922,22.2446064 107.239594,22.9739778 107.568972,23.606236 C107.898349,24.2384943 108.535315,24.7523569 109.479868,25.147824 L109.479868,25.147824 L111.450149,25.9727435 L110.384241,28.5186111 L112.166349,29.2647462 L115.410414,21.5164536 L111.912614,20.0519897 Z M111.456109,21.4219778 L113.072181,22.0985972 L112.006274,24.6444648 L110.390202,23.9678454 C109.401372,23.5538408 109.07534,22.9446653 109.412104,22.1403187 C109.59439,21.7049385 109.864404,21.4277089 110.222148,21.3086301 C110.579891,21.1895513 110.991211,21.2273339 111.456109,21.4219778 L111.456109,21.4219778 Z M96.6761634,17.0956876 C96.2656393,17.0284129 95.8926881,17.1152429 95.55731,17.3561776 C95.2219319,17.5971123 95.0193118,17.9307365 94.9494496,18.3570501 C94.8795873,18.7833636 94.965447,19.1622358 95.2070286,19.4936665 C95.4486102,19.8250973 95.7746631,20.02445 96.1851873,20.0917248 C96.5957115,20.1589995 96.9683392,20.0741432 97.3030704,19.8371558 C97.6378016,19.6001684 97.8400983,19.268518 97.9099605,18.8422044 C97.9798228,18.4158908 97.8942865,18.035045 97.6533518,17.6996669 C97.4124171,17.3642888 97.0866876,17.1629624 96.6761634,17.0956876 Z M83.0082113,12.4264558 L83.14228,14.1612831 L77.231903,14.6180413 L77.0978343,12.883214 L75.3031855,13.0219058 L75.5593029,16.3360241 L76.7318068,16.2454121 L77.2569863,23.0411492 L83.6937936,22.5437081 L83.5870182,19.9161238 C83.5319354,18.5803971 83.5803465,17.5455907 83.7322515,16.8117045 C83.8841564,16.0778184 84.2107433,15.6834822 84.7120122,15.6286961 L84.7120122,15.6286961 L85.0470133,15.602807 L84.8028602,12.2877641 L83.0082113,12.4264558 Z M78.646099,16.0974742 L82.390933,15.8080708 C82.1523741,16.1474609 81.9953282,16.6590824 81.9197952,17.3429353 C81.8442621,18.0267882 81.8250806,18.8687692 81.8622505,19.8688784 L81.8622505,19.8688784 L81.9206679,21.0920135 L79.0492297,21.3139203 L78.646099,16.0974742 Z M67.0882856,16.2167788 C66.2470951,16.4465232 65.5403274,16.83444 64.9679825,17.3805292 C64.3956376,17.9266183 64.0034762,18.570697 63.7914981,19.3127653 C63.5795199,20.0548335 63.5820799,20.8233109 63.7991778,21.6181973 C64.0162757,22.4130838 64.4047028,23.0761738 64.9644591,23.6074674 C65.5242155,24.1387609 66.1893302,24.4940783 66.9598032,24.6734195 C67.7302763,24.8527608 68.5361081,24.8275592 69.3772986,24.5978148 C70.2184891,24.3680704 70.9271862,23.9796267 71.5033897,23.4324836 C72.0795932,22.8853406 72.4717547,22.2412619 72.6798741,21.5002475 C72.8879936,20.7592332 72.8835043,19.9912827 72.6664064,19.1963963 C72.4493085,18.4015098 72.0628107,17.7378928 71.506913,17.2055454 C70.9510154,16.673198 70.2859007,16.3178806 69.511569,16.1395932 C68.7372372,15.9613059 67.9294761,15.9870344 67.0882856,16.2167788 Z M67.5245892,17.8142691 C68.0030645,17.6835888 68.4652712,17.6755271 68.9112092,17.7900841 C69.3571472,17.9046411 69.7438359,18.1286765 70.0712753,18.4621902 C70.3987147,18.795704 70.6309362,19.2132746 70.7679397,19.714902 C70.9049432,20.2165294 70.9172204,20.6941707 70.8047712,21.1478261 C70.6923219,21.6014814 70.4731991,21.9909749 70.1474027,22.3163066 C69.8216062,22.6416382 69.4194704,22.8696442 68.940995,23.0003245 C68.4625197,23.1310048 68.000313,23.1390665 67.554375,23.0245095 C67.108437,22.9099525 66.7217483,22.6859171 66.3943089,22.3524033 C66.0668695,22.0188896 65.834648,21.601319 65.6976445,21.0996916 C65.5606409,20.5980642 65.5483638,20.1204229 65.660813,19.6667675 C65.7732622,19.2131122 65.9923851,18.8236187 66.3181815,18.498287 C66.6439779,18.1729554 67.0461138,17.9449494 67.5245892,17.8142691 Z M54.6502607,20.7103651 C53.6773188,21.1791765 53.0248973,21.7510735 52.6929963,22.4260562 C52.3610952,23.101039 52.3774602,23.8168966 52.7420913,24.5736292 C53.089359,25.2943269 53.5946507,25.7301941 54.2579665,25.8812309 C54.9212824,26.0322677 55.7105833,25.8872711 56.6258694,25.4462412 L56.6258694,25.4462412 L58.7230997,24.4356922 L59.4731978,25.9923993 L55.1057698,28.0968414 L55.7777328,29.4913914 L61.8856457,26.5482979 L58.2393352,18.9809721 L54.6502607,20.7103651 Z M55.3726366,21.9607398 L57.123932,21.1168794 L58.1032269,23.1492469 L56.3519315,23.9931073 C55.4294384,24.4376099 54.8084488,24.3283403 54.4889625,23.6652984 C54.3257467,23.3265705 54.3205136,23.0116219 54.4732633,22.7204527 C54.626013,22.4292834 54.9258041,22.1760458 55.3726366,21.9607398 L55.3726366,21.9607398 Z M45.9045634,25.490389 L47.250657,27.3750344 L45.8737918,28.3584499 C45.2683617,28.7908737 44.8135873,29.2656161 44.5094686,29.7826768 C44.2053499,30.2997376 44.066535,30.8314503 44.0930238,31.377815 C44.1195126,31.9241796 44.3117711,32.447997 44.6697995,32.9492671 C45.0324775,33.4570472 45.4667686,33.8104525 45.9726726,34.009483 C46.4785766,34.2085134 47.0265668,34.2496808 47.6166432,34.1329851 C48.2067195,34.0162894 48.8044728,33.7417297 49.4099029,33.3093058 L49.4099029,33.3093058 L52.3686984,31.1960086 L47.4864937,24.3605074 L45.9045634,25.490389 Z M46.8823211,29.5846589 L48.1713013,28.6640146 L49.8661238,31.0369101 L48.5771436,31.9575544 C48.1019135,32.2969838 47.6673754,32.4525107 47.2735292,32.424135 C46.879683,32.3957593 46.5455932,32.1895264 46.2712598,31.8054363 C46.0015761,31.4278562 45.9171912,31.048189 46.0181051,30.6664347 C46.119019,30.2846803 46.407091,29.9240884 46.8823211,29.5846589 L46.8823211,29.5846589 Z M35.0524066,34.1715224 C34.4443672,34.7965601 34.0324455,35.4896116 33.8166413,36.250677 C33.6008371,37.0117424 33.5900159,37.7657391 33.7841778,38.5126669 C33.9783396,39.2595947 34.3707365,39.9203433 34.9613684,40.4949126 C35.5520004,41.0694819 36.2233144,41.443516 36.9753105,41.6170148 C37.7273067,41.7905135 38.4807185,41.7589123 39.235546,41.5222111 C39.9903735,41.28551 40.6718069,40.8546405 41.2798463,40.2296029 C41.8878857,39.6045652 42.3012021,38.9100801 42.5197954,38.1461475 C42.7383888,37.3822149 42.7492099,36.6282183 42.5522589,35.8841576 C42.3553079,35.140097 41.9615164,34.4807819 41.3708845,33.9062126 C40.7802526,33.3316433 40.1103331,32.9561757 39.3611262,32.7798098 C38.6119192,32.6034439 37.8585074,32.6350451 37.1008907,32.8746134 C36.343274,33.1141817 35.660446,33.5464847 35.0524066,34.1715224 Z M36.2394048,35.3262394 C36.5852621,34.9707134 36.9793629,34.7290845 37.4217073,34.6013527 C37.8640518,34.4736209 38.3109398,34.4702892 38.7623714,34.5913574 C39.213803,34.7124256 39.6258832,34.9542558 39.9986121,35.3168481 C40.371341,35.6794404 40.6244385,36.084698 40.7579045,36.5326207 C40.8913706,36.9805435 40.9003587,37.4273536 40.7848688,37.8730509 C40.669379,38.3187482 40.4387054,38.7193598 40.0928481,39.0748859 C39.7469909,39.4304119 39.35289,39.6720408 38.9105456,39.7997725 C38.4682012,39.9275043 38.0213131,39.9308361 37.5698815,39.8097679 C37.1184499,39.6886997 36.7063697,39.4468694 36.3336408,39.0842771 C35.9609119,38.7216848 35.7078144,38.3164273 35.5743484,37.8685045 C35.4408823,37.4205817 35.4318942,36.9737717 35.5473841,36.5280744 C35.662874,36.0823771 35.8935475,35.6817654 36.2394048,35.3262394 Z M24.1280463,48.1222587 L30.13942,51.3349276 L28.3520901,54.6792834 L22.3407164,51.4666145 L21.4300831,53.1705426 L28.8384663,57.1298177 L32.4470627,50.3776056 L25.0386796,46.4183305 L24.1280463,48.1222587 Z M17.7879524,61.6769563 C17.5267137,62.5089048 17.4712036,63.3132173 17.6214221,64.0898938 C17.7716406,64.8665703 18.1016757,65.5445857 18.6115272,66.12394 C19.1213788,66.7032943 19.7693811,67.1164007 20.5555343,67.3632593 C21.3416875,67.6101179 22.1095242,67.6415965 22.8590442,67.4576953 C23.6085643,67.2737941 24.2669452,66.9061494 24.8341869,66.3547613 C25.4014286,65.8033732 25.8156688,65.1117048 26.0769075,64.2797563 C26.3381461,63.4478078 26.3942554,62.6415871 26.2452353,61.8610943 C26.0962151,61.0806015 25.7661801,60.4025861 25.2551302,59.8270481 C24.7440803,59.2515101 24.0954787,58.8403118 23.3093255,58.5934533 C22.5231723,58.3465947 21.7559349,58.3132079 21.0076132,58.4932929 C20.2592914,58.6733778 19.6009105,59.0410225 19.0324705,59.5962269 C18.4640304,60.1514313 18.0491911,60.8450077 17.7879524,61.6769563 Z M19.3678914,62.1730701 C19.5164858,61.6998517 19.7594641,61.3065813 20.0968262,60.9932591 C20.4341883,60.6799369 20.8316522,60.4756273 21.2892181,60.3803304 C21.7467839,60.2850335 22.2236249,60.3152773 22.719741,60.4710619 C23.2158571,60.6268464 23.6243925,60.8746181 23.9453473,61.2143768 C24.2663021,61.5541356 24.4756263,61.9489816 24.5733199,62.3989149 C24.6710135,62.8488482 24.645563,63.3104241 24.4969685,63.7836425 C24.348374,64.2568609 24.1053958,64.6501312 23.7680337,64.9634535 C23.4306716,65.2767757 23.0332076,65.4810853 22.5756418,65.5763822 C22.1180759,65.6716791 21.641235,65.6414352 21.1451189,65.4856507 C20.6490028,65.3298662 20.2404673,65.0820945 19.9195125,64.7423358 C19.5985578,64.402577 19.3892336,64.007731 19.29154,63.5577977 C19.1938464,63.1078644 19.2192969,62.6462885 19.3678914,62.1730701 Z M15.3122251,71.6811685 L18.4951012,73.8880242 L18.3726831,75.1300056 L15.0050027,74.7980641 L14.8178443,76.6968626 L18.1855246,77.0288041 L18.0654607,78.2469012 L14.5129761,79.789874 L14.2928589,82.0230521 L18.9096914,79.9579648 L22.6676514,82.6917725 L22.868935,80.6496685 L19.6752939,78.4296936 L19.797712,77.1877122 L23.1773345,77.5208307 L23.3644929,75.6220322 L19.9848705,75.2889137 L20.1108199,74.0111059 L23.6752466,72.4693102 L23.8765302,70.4272061 L19.655971,72.3866551 L15.5323423,69.4479904 L15.3122251,71.6811685 Z M14.2216062,86.9815505 L16.0888822,87.5354606 L16.4921047,91.4145599 L14.7786736,92.3406754 L14.98959,94.3697428 L22.9562389,89.7653925 L22.7577293,87.8556821 L14.0156526,85.0002259 L14.2216062,86.9815505 Z M17.8969197,90.6532355 L17.6214877,88.0035123 L20.9579687,88.9958705 L17.8969197,90.6532355 Z M15.5291849,98.7989189 C15.7105974,99.4126693 16.0416379,99.8341193 16.5223067,100.063269 C17.0029754,100.292419 17.6196769,100.374997 18.3724112,100.311005 C19.1251456,100.247012 20.0787369,100.065256 21.2331853,99.7657342 L21.2331853,99.7657342 L22.9303343,99.3266567 L23.7466904,102.088533 L17.2102489,104.020576 L17.7544863,105.861827 L25.8099599,103.480789 L23.9799618,97.2895818 L20.6777262,98.1405249 C19.5440258,98.4255714 18.6883357,98.5575352 18.1106559,98.5364164 C17.532976,98.5152976 17.1783741,98.2822537 17.0468501,97.8372846 C17.0105676,97.7145346 16.9930303,97.598757 16.9942383,97.4899519 L16.9942383,97.4899519 L15.3836522,97.840877 C15.4058414,98.2263996 15.4543523,98.5457468 15.5291849,98.7989189 Z M21.1356869,114.474194 C21.5343916,115.249706 22.0600576,115.860996 22.7126848,116.308064 C23.365312,116.755132 24.0765566,117.005649 24.8464186,117.059617 C25.6162806,117.113584 26.3676232,116.952189 27.1004462,116.575432 C27.8332693,116.198674 28.4017198,115.681539 28.8057977,115.024028 C29.2098755,114.366517 29.4199959,113.642309 29.4361587,112.851404 C29.4523215,112.060499 29.2610505,111.27729 28.8623458,110.501778 C28.4636411,109.726267 27.9370607,109.113198 27.2826046,108.662573 C26.6281485,108.211947 25.9169039,107.96143 25.1488708,107.91102 C24.3808377,107.86061 23.6304096,108.023783 22.8975865,108.400541 C22.1647634,108.777299 21.5953985,109.292655 21.1894917,109.946608 C20.7835849,110.600562 20.5734646,111.32477 20.5591307,112.119233 C20.5447968,112.913695 20.7369822,113.698682 21.1356869,114.474194 Z M22.6084479,113.717021 C22.3816617,113.275904 22.2782083,112.825352 22.2980877,112.365364 C22.3179671,111.905376 22.4572096,111.480722 22.7158152,111.0914 C22.9744209,110.702079 23.3349543,110.388538 23.7974155,110.150779 C24.2598767,109.913019 24.7246586,109.80225 25.1917612,109.818471 C25.6588638,109.834693 26.0852469,109.968549 26.4709104,110.22004 C26.8565739,110.471531 27.1627987,110.817835 27.3895849,111.258952 C27.616371,111.700068 27.7198244,112.150621 27.6999451,112.610609 C27.6800657,113.070596 27.5408232,113.495251 27.2822175,113.884572 C27.0236118,114.273894 26.6630784,114.587434 26.2006173,114.825194 C25.7381561,115.062954 25.2733742,115.173723 24.8062716,115.157501 C24.339169,115.14128 23.9127859,115.007423 23.5271224,114.755933 C23.1414589,114.504442 22.835234,114.158138 22.6084479,113.717021 Z M28.1928114,125.83503 C28.8326343,126.665049 29.4894483,127.176415 30.1632534,127.369129 C30.8370585,127.561842 31.468586,127.431087 32.0578358,126.976861 C32.457005,126.66916 32.7097835,126.302588 32.8161715,125.877145 C32.9225594,125.451703 32.8796529,124.989829 32.6874521,124.491525 C33.0627353,124.676983 33.4390071,124.755618 33.8162676,124.727431 C34.1935281,124.699244 34.5468949,124.558162 34.8763679,124.304187 C35.4276015,123.879266 35.6860539,123.336604 35.651725,122.6762 C35.6173961,122.015796 35.3022989,121.299097 34.7064333,120.526102 L34.7064333,120.526102 L32.3180869,117.427789 L25.6652669,122.55614 L28.1928114,125.83503 Z M31.847698,122.517649 L30.7414394,121.08254 L32.3571242,119.837083 L33.4633829,121.272192 C33.7173583,121.601665 33.8418069,121.907247 33.8367284,122.188939 C33.8316499,122.470631 33.6992223,122.711601 33.4394455,122.911851 C33.1733327,123.116985 32.9062282,123.186521 32.6381319,123.120457 C32.3700356,123.054394 32.1065576,122.853458 31.847698,122.517649 L31.847698,122.517649 Z M29.2893375,124.89886 L27.9852711,123.207143 L29.6674842,121.910403 L30.9715506,123.60212 C31.528343,124.324426 31.5311224,124.898039 30.9798887,125.32296 C30.409647,125.762533 29.8461299,125.621166 29.2893375,124.89886 L29.2893375,124.89886 Z M33.974332,132.745806 L35.737576,131.918457 L38.6172694,134.548546 L37.9527393,136.379375 L39.4590405,137.755113 L42.3504803,129.019719 L40.932785,127.724906 L32.5034732,131.402438 L33.974332,132.745806 Z M39.1607664,133.045971 L37.1937143,131.249418 L40.3460518,129.773055 L39.1607664,133.045971 Z M45.5596162,142.262827 L49.2663383,136.542856 L51.5221015,138.004662 L52.3835228,136.675373 L46.2708074,132.71414 L45.4093861,134.043429 L47.6550789,135.498709 L43.9483568,141.21868 L45.5596162,142.262827 Z M55.0644195,147.489648 C56.0685369,147.928925 56.9474776,148.040564 57.7012416,147.824565 C58.4550057,147.608565 59.0226687,147.064471 59.4042305,146.192281 C59.7633476,145.371397 59.7832592,144.64225 59.4639655,144.00484 C59.1446718,143.36743 58.5159482,142.843515 57.5777948,142.433096 L57.5777948,142.433096 L55.6208654,141.576986 L56.7270741,139.04837 L54.9570425,138.274024 L51.5903201,145.969813 L55.0644195,147.489648 Z M55.5426261,146.127083 L53.9375042,145.424881 L55.043713,142.896265 L56.6488348,143.598467 C57.6309642,144.028125 57.94728,144.642402 57.5977821,145.441298 C57.4086044,145.873728 57.1342208,146.146634 56.7746313,146.260016 C56.4150419,146.373398 56.0043734,146.329087 55.5426261,146.127083 L55.5426261,146.127083 Z M70.2609568,150.695164 C70.6703596,150.768957 71.044644,150.688067 71.3838101,150.452495 C71.7229762,150.216923 71.9308747,149.886562 72.0075057,149.461413 C72.0841366,149.036264 72.0043112,148.656074 71.7680292,148.320845 C71.5317473,147.985615 71.2089049,147.781104 70.7995021,147.707311 C70.3900994,147.633519 70.0161697,147.71244 69.6777132,147.944076 C69.3392566,148.175712 69.1317128,148.504104 69.0550819,148.929253 C68.9784509,149.354402 69.0579216,149.73656 69.293494,150.075726 C69.5290664,150.414892 69.851554,150.621372 70.2609568,150.695164 Z" id="ДОБРОПОЖАЛОВАТЬ•ДОБРОПОЖАЛОВАТЬ•"></path>
                <path d="M84,0 C37.608081,0 5.45696821e-12,37.608081 5.45696821e-12,84 C5.45696821e-12,130.391919 37.608081,168 84,168 C130.391919,168 168,130.391919 168,84 C168,37.608081 130.391919,0 84,0 Z M84,2 C129.287349,2 166,38.7126505 166,84 C166,129.287349 129.287349,166 84,166 C38.7126505,166 2,129.287349 2,84 C2,38.7126505 38.7126505,2 84,2 Z" id="Oval-Copy-7"></path>
                <g id="004-road-sign-2" transform="translate(59.978961, 53.873672)">
                    <path d="M35.6527688,56.8162595 L31.652772,56.8162595 L31.652772,56.5429575 C31.652772,54.6296085 30.7194891,52.7162595 28.9860692,51.622934 C28.186047,51.0762125 27.6527752,49.982887 27.6527752,49.0262712 L27.6527752,37.682887 L34.3194747,37.682887 C35.119497,37.682887 35.6527688,37.1361655 35.6527688,36.3162595 L35.6527688,25.382887 C35.6527688,24.5628635 35.1193824,24.0162595 34.3194747,24.0162595 L27.6527752,24.0162595 L27.6527752,19.9162595 C27.6527752,19.096236 27.1193888,18.549632 26.3194811,18.549632 C25.5194588,18.549632 24.9861775,19.0963535 24.9861775,19.9162595 L24.9861775,25.382887 C24.9861775,25.7928988 25.1195623,26.0662008 25.3861982,26.3395028 C25.6528341,26.6128048 25.9195845,26.7495145 26.3195957,26.7495145 L32.9862952,26.7495145 L32.9862952,34.9495145 L26.3195957,34.9495145 C25.5195734,34.9495145 24.9863016,35.496236 24.9863016,36.3161421 L24.9863016,48.8895615 C24.9863016,50.8029105 25.9196991,52.7162595 27.6530043,53.809585 C28.4530266,54.3563065 28.9862984,55.449632 28.9862984,56.4062478 L28.9862984,56.8162595 L18.319602,56.8162595 L18.319602,56.5429575 C18.319602,55.449632 18.8529884,54.4928988 19.7862714,53.809585 C21.3863159,52.7162595 22.3195989,50.8029105 22.3195989,48.8895615 L22.3195989,36.3162595 C22.3195989,35.496236 21.7862125,34.949632 20.9863048,34.949632 L8.18606288,34.949632 L4.18606607,30.849632 L8.18606288,26.749632 L15.6527847,26.749632 C16.452807,26.749632 16.9860788,26.2029105 16.9860788,25.3830045 C16.9860788,24.562981 16.4526924,24.016377 15.6527847,24.016377 L7.65279109,24.016377 C7.25277995,24.016377 6.98614405,24.1530867 6.71950815,24.4263887 L1.38621725,29.8930162 C0.852830872,30.4397377 0.852830872,31.2596437 1.38621725,31.8063652 L6.71950815,37.2729927 C6.98614405,37.5462947 7.25289453,37.6830045 7.65279109,37.6830045 L19.6527815,37.6830045 L19.6527815,48.889679 C19.6527815,49.9830045 19.1193952,50.9397377 18.1861122,51.6230514 C16.5860677,52.716377 15.6527847,54.4930162 15.6527847,56.5430749 L15.6527847,56.816377 L11.6527879,56.816377 C10.8527656,56.816377 10.3194938,57.3630984 10.3194938,58.1830045 C10.3194938,59.0029105 10.8527656,59.549632 11.6527879,59.549632 L35.6528834,59.549632 C36.4529057,59.549632 36.9861775,59.0029105 36.9861775,58.1830045 C36.9861775,57.3630984 36.4527911,56.8162595 35.6527688,56.8162595 Z" id="Path"></path>
                    <path d="M46.7263744,14.5960902 L41.341808,9.19611342 C41.0726086,8.92614359 40.8032935,8.79110066 40.3994365,8.79110066 L28.2840753,8.79110066 L28.2840753,4.74097304 C28.2840753,2.4459394 26.5341056,0.690961441 24.2456215,0.690961441 C21.9571374,0.690961441 20.2071678,2.4459394 20.2071678,4.74097304 L20.2071678,8.79098464 L13.476373,8.79098464 C12.6686591,8.79098464 12.1302603,9.33104033 12.1302603,10.1409498 L12.1302603,20.9410194 C12.1302603,21.751045 12.6687748,22.2909846 13.476373,22.2909846 L20.2071678,22.2909846 L20.2071678,26.3409962 C20.2071678,27.1510218 20.7456823,27.6909614 21.5532805,27.6909614 C22.3608787,27.6909614 22.8993931,27.1509058 22.8993931,26.3409962 L22.8993931,20.9410194 C22.8993931,20.1309939 22.3608787,19.5910543 21.5532805,19.5910543 L14.8224856,19.5910543 L14.8224856,11.4910311 L21.5532805,11.4910311 C22.3609943,11.4910311 22.8993931,10.9509754 22.8993931,10.1410659 L22.8993931,4.74097304 C22.8993931,3.93094752 23.4379076,3.39100785 24.2455058,3.39100785 C25.053104,3.39100785 25.5916185,3.93106354 25.5916185,4.74097304 L25.5916185,10.1409498 C25.5916185,10.9509754 26.130133,11.490915 26.9377312,11.490915 L39.8608064,11.490915 L43.8994915,15.5410427 L39.8610377,19.5910543 L32.322529,19.5910543 C31.5148151,19.5910543 30.9764163,20.1311099 30.9764163,20.9410194 C30.9764163,21.750929 31.5149308,22.2909846 32.322529,22.2909846 L40.3994365,22.2909846 C40.8032935,22.2909846 41.0724929,22.1559417 41.341808,21.8859719 L46.7263744,16.4859951 C47.2648889,15.9460554 47.2648889,15.1360299 46.7263744,14.5960902 Z" id="Path"></path>
                </g>
            </g>
        </g>
    </g>
</svg>