<svg width="22" height="23" viewBox="0 0 22 23" fill="none" xmlns="http://www.w3.org/2000/svg">
<path fill-rule="evenodd" clip-rule="evenodd" d="M1.5538 17.0938L0 23L5.80717 21.4149C7.40702 22.3234 9.21318 22.8016 11.0461 22.8026C17.0835 22.8026 21.9972 17.6899 22 11.4061C22.0009 8.3605 20.8625 5.497 18.7948 3.34267C16.7261 1.18833 13.9759 0.000958333 11.0461 0C5.00862 0 0.0948673 5.11271 0.0921042 11.3955C0.0911831 13.4052 0.594993 15.365 1.5538 17.0938ZM17.0082 14.2067C17.2274 14.3167 17.375 14.3908 17.4379 14.5005C17.5172 14.6368 17.5172 15.2912 17.2551 16.0556C16.9929 16.8188 15.7383 17.5161 15.1347 17.6096C14.5935 17.6932 13.9086 17.7284 13.156 17.4798C12.7004 17.3291 12.1149 17.1279 11.3654 16.7913C8.42593 15.4709 6.43853 12.5088 6.05721 11.9405C6.02978 11.8996 6.01067 11.8712 6.0001 11.8565L5.99637 11.8514C5.82665 11.6152 4.71796 10.0726 4.71796 8.47576C4.71796 6.97254 5.4265 6.18447 5.75411 5.82009C5.77717 5.79445 5.79834 5.7709 5.81724 5.74936C6.10474 5.42162 6.4451 5.34023 6.65439 5.34023L7.25688 5.35123C7.27929 5.35238 7.3026 5.35224 7.32671 5.35209C7.50954 5.35094 7.73801 5.34952 7.96401 5.91213C8.04451 6.11388 8.15987 6.40639 8.28327 6.71928C8.5601 7.4212 8.87739 8.2257 8.93223 8.33828C9.0115 8.50215 9.06329 8.69352 8.95865 8.91128C8.94252 8.94469 8.92764 8.97618 8.91344 9.00622C8.83463 9.173 8.77679 9.29539 8.64155 9.45568C8.58888 9.51967 8.53456 9.58858 8.48029 9.65744C8.37226 9.79449 8.2644 9.93132 8.17013 10.0287C8.01369 10.1914 7.84986 10.3685 8.03272 10.6952C8.21558 11.0229 8.84661 12.093 9.77994 12.9596C10.7823 13.8905 11.6541 14.2839 12.0968 14.4837C12.184 14.5231 12.2545 14.5549 12.3062 14.5818C12.6201 14.7457 12.804 14.7182 12.9869 14.5005C13.1698 14.2827 13.7722 13.5458 13.9815 13.2192C14.1919 12.8915 14.4012 12.9464 14.6887 13.0553C14.9772 13.1642 16.5215 13.955 16.8354 14.1188C16.8971 14.1509 16.9548 14.1799 17.0082 14.2067Z" fill="#6DB63D"/>
</svg>
